<?xml version="1.0" encoding="utf-8"?>
<!-- Generator: Adobe Illustrator 16.0.0, SVG Export Plug-In . SVG Version: 6.00 Build 0)  -->
<!DOCTYPE svg PUBLIC "-//W3C//DTD SVG 1.1//EN" "http://www.w3.org/Graphics/SVG/1.1/DTD/svg11.dtd">
<svg version="1.1" id="Layer_1" xmlns="http://www.w3.org/2000/svg" xmlns:xlink="http://www.w3.org/1999/xlink" x="0px" y="0px"
	 width="80px" height="122.177px" viewBox="0 0 80 122.177" enable-background="new 0 0 80 122.177" xml:space="preserve">
<path fill="#5E74D3" d="M80,43.611c0-3.011-1.396-5.693-3.571-7.445C78.604,34.416,80,31.734,80,28.723
	c0-4.214-2.73-7.783-6.516-9.054c1.027-1.523,1.628-3.359,1.628-5.335c0-5.278-4.279-9.556-9.557-9.556
	c-0.773,0-1.521,0.102-2.24,0.275C61.706,2.046,58.536,0,54.888,0c-3.01,0-5.692,1.396-7.443,3.572C45.692,1.396,43.011,0,40,0
	c-2.887,0-5.47,1.287-7.222,3.311C31.026,1.287,28.443,0,25.555,0c-4.211,0-7.778,2.728-9.051,6.51
	c-0.865-0.256-1.779-0.399-2.727-0.399c-5.277,0-9.555,4.278-9.555,9.556c0,1.641,0.415,3.185,1.143,4.533
	C2.191,21.754,0,25.005,0,28.778c0,3.011,1.396,5.693,3.572,7.444C1.396,37.973,0,40.655,0,43.667c0,2.769,1.185,5.255,3.066,7
	C1.185,52.412,0,54.898,0,57.667c0,2.541,0.998,4.844,2.616,6.555C0.998,65.934,0,68.236,0,70.777c0,2.568,1.018,4.894,2.666,6.611
	C1.018,79.105,0,81.431,0,83.999c0,2.77,1.185,5.255,3.066,7C1.185,92.744,0,95.23,0,97.999c0,3.012,1.396,5.693,3.572,7.444
	C1.396,107.194,0,109.876,0,112.888c0,5.277,4.278,9.555,9.555,9.555c0.76,0,1.496-0.098,2.205-0.266h56.693
	c0.642,0.137,1.308,0.211,1.991,0.211c5.278,0,9.556-4.278,9.556-9.555c0-3.012-1.396-5.693-3.571-7.445
	c2.176-1.751,3.571-4.433,3.571-7.443c0-2.77-1.185-5.256-3.066-7.001C78.815,89.198,80,86.713,80,83.944
	c0-2.569-1.019-4.895-2.667-6.612C78.981,75.616,80,73.29,80,70.722c0-2.541-0.999-4.845-2.616-6.556
	C79.001,62.455,80,60.152,80,57.611c0-2.769-1.185-5.255-3.066-7C78.815,48.866,80,46.38,80,43.611z"/>
</svg>
