<svg id="Layer_1" data-name="Layer 1" xmlns="http://www.w3.org/2000/svg" viewBox="0 0 600 426.32"><defs><style>.cls-1{fill:none;stroke:#000;stroke-linecap:round;stroke-linejoin:round;stroke-width:8px;}</style></defs><title>info</title><path d="M16.6,20.13a0.72,0.72,0,0,1,.72-0.72H32.79a0.72,0.72,0,0,1,.72.72v3.12a0.72,0.72,0,0,1-.72.72H21.54v7.14h9.38a0.75,0.75,0,0,1,.72.72v3.12a0.75,0.75,0,0,1-.72.72H21.54v9.61a0.75,0.75,0,0,1-.72.72h-3.5a0.72,0.72,0,0,1-.72-0.72V20.13Z"/><path d="M35.75,31.53a0.72,0.72,0,0,1,.72-0.72h1.44a0.7,0.7,0,0,1,.68.49l0.53,1.48a5.3,5.3,0,0,1,4.29-2.36c1.79,0,3.38.57,2.93,1.52l-1.41,2.47a0.68,0.68,0,0,1-.87.34,4.13,4.13,0,0,0-1.1-.23,3.08,3.08,0,0,0-2.7,1.56v9.2a0.71,0.71,0,0,1-.87.72H36.48a0.75,0.75,0,0,1-.72-0.72V31.53Z"/><path d="M55.21,30.42a8,8,0,1,1-7.79,7.94A7.93,7.93,0,0,1,55.21,30.42Zm0,11.85a3.79,3.79,0,0,0,3.65-3.91A3.66,3.66,0,1,0,55.21,42.28Z"/><path d="M66.38,31.53a0.72,0.72,0,0,1,.72-0.72h1.41a0.65,0.65,0,0,1,.65.42l0.53,1.44a6.92,6.92,0,0,1,5.09-2.24,6,6,0,0,1,4.94,2.36,7.74,7.74,0,0,1,5.36-2.36c4.86,0,6.65,3.61,6.65,7.6v7.26A0.72,0.72,0,0,1,91,46H87.92a0.72,0.72,0,0,1-.72-0.72V37.76c0-2-.95-3.23-2.85-3.23a3.82,3.82,0,0,0-3.19,1.6s0,0.76,0,1.44v7.71a0.75,0.75,0,0,1-.72.72H77.63a0.72,0.72,0,0,1-.72-0.72V37.76c0-2-.87-3.23-2.81-3.23a3.36,3.36,0,0,0-3.19,2.39v8.36a0.75,0.75,0,0,1-.72.72H67.1a0.75,0.75,0,0,1-.72-0.72V31.53Z"/><path d="M98.42,40.15c1.63,0,3.84,1.22,3.84,5a9.68,9.68,0,0,1-4.33,8.21A0.64,0.64,0,0,1,97,53.26l-0.57-.61a0.68,0.68,0,0,1,.15-1c0.42-.38,3-2.36,3-5.55a4,4,0,0,1-1.44.3,3.11,3.11,0,0,1-3.08-3.08A3.22,3.22,0,0,1,98.42,40.15Z"/><path d="M115,34.79h-1.29a0.71,0.71,0,0,1-.68-0.72V31.53a0.69,0.69,0,0,1,.68-0.72H115V26.59a0.75,0.75,0,0,1,.72-0.72l3.12,0a0.71,0.71,0,0,1,.68.72V30.8h3.34a0.7,0.7,0,0,1,.72.72v2.55a0.72,0.72,0,0,1-.72.72h-3.34v6.08a1,1,0,0,0,1.18,1.22,6.11,6.11,0,0,0,1.86-.42,0.59,0.59,0,0,1,.84.42l0.76,2.39a0.69,0.69,0,0,1-.42.91,14.3,14.3,0,0,1-4.52,1c-2.93,0-4.22-1.82-4.22-4.9V34.79Z"/><path d="M133.94,30.42a8,8,0,1,1-7.79,7.94A7.93,7.93,0,0,1,133.94,30.42Zm0,11.85a3.79,3.79,0,0,0,3.65-3.91A3.66,3.66,0,1,0,133.94,42.28Z"/><path d="M153.25,22.41a2.18,2.18,0,0,1,2.17-2.24,2.22,2.22,0,1,1,0,4.45A2.17,2.17,0,0,1,153.25,22.41Zm0.42,9.12a0.75,0.75,0,0,1,.72-0.72h2.17a0.75,0.75,0,0,1,.72.72V45.28a0.75,0.75,0,0,1-.72.72h-2.17a0.75,0.75,0,0,1-.72-0.72V31.53Z"/><path d="M161.3,44l0.8-1.48a0.66,0.66,0,0,1,1-.19,7.87,7.87,0,0,0,3.53,1c1.14,0,1.86-.46,1.86-1.29,0-1-.84-1.52-2.93-2.47-2.36-1-4.33-2.47-4.33-5,0-1.9,1.56-4.18,5.21-4.18a8.53,8.53,0,0,1,4.48,1.18,0.85,0.85,0,0,1,.3,1.1L170.5,34a0.8,0.8,0,0,1-1,.3,8.69,8.69,0,0,0-3.12-.8c-1.29,0-1.71.57-1.71,1.14,0,1,.95,1.41,2.43,2.05,2.77,1.22,5.05,2.39,5.05,5.24,0,2.36-2.24,4.45-5.62,4.45a8,8,0,0,1-5-1.56A0.64,0.64,0,0,1,161.3,44Z"/><path d="M189.15,36.39a10.93,10.93,0,0,1,3,.46c0-2.39-.42-3.34-2.36-3.34a16.13,16.13,0,0,0-4.26.68,0.68,0.68,0,0,1-.84-0.61l-0.3-1.41a0.68,0.68,0,0,1,.49-0.87,15.66,15.66,0,0,1,5.24-.87c4.86,0,5.32,3,5.32,6.76v8.09a0.75,0.75,0,0,1-.72.72h-1.06a0.64,0.64,0,0,1-.65-0.53l-0.38-1A6.56,6.56,0,0,1,188,46.38a4.72,4.72,0,0,1-4.9-5.09C183.08,38.52,185.28,36.39,189.15,36.39Zm-0.46,7.29a4.5,4.5,0,0,0,3.42-1.9V39.35a5.73,5.73,0,0,0-2.66-.61c-1.82,0-3.08.95-3.08,2.51A2.29,2.29,0,0,0,188.7,43.68Z"/><path d="M209.79,40.76a6.1,6.1,0,0,1-1.18-3.69,6.51,6.51,0,0,1,6.54-6.65h6.65a0.7,0.7,0,0,1,.72.72v1a0.63,0.63,0,0,1-.42.65l-2.09.57a5.09,5.09,0,0,1,1.63,4.07,6.21,6.21,0,0,1-6.46,6.19,11.16,11.16,0,0,1-3.31-.61,2.09,2.09,0,0,0-1.56,1.86,1.62,1.62,0,0,0,1.82,1.56h5.17c3.31,0,6,1.79,6,5.09s-3,6.31-8.09,6.31c-5.36,0-7.52-2.74-7.52-5.21A4.19,4.19,0,0,1,209.9,49V48.89a3.92,3.92,0,0,1-2.81-3.8A5.24,5.24,0,0,1,209.79,40.76Zm5.36,13.91c2.32,0,4.33-1.18,4.33-3,0-.61-0.38-2.17-2.85-2.17-1.1,0-2.24,0-3.34.08-0.23.08-2.09,0.68-2.09,2.39C211.19,53.53,212.83,54.66,215.15,54.66Zm3.27-17.51a3.2,3.2,0,0,0-3.19-3.5,3.3,3.3,0,0,0-3.34,3.5,3.29,3.29,0,0,0,3.34,3.5A3.2,3.2,0,0,0,218.41,37.15Z"/><path d="M231.07,36.39a10.93,10.93,0,0,1,3,.46c0-2.39-.42-3.34-2.36-3.34a16.13,16.13,0,0,0-4.26.68,0.68,0.68,0,0,1-.84-0.61l-0.3-1.41a0.68,0.68,0,0,1,.49-0.87,15.66,15.66,0,0,1,5.24-.87c4.86,0,5.32,3,5.32,6.76v8.09a0.75,0.75,0,0,1-.72.72h-1.06a0.64,0.64,0,0,1-.65-0.53l-0.38-1a6.56,6.56,0,0,1-4.67,1.94,4.72,4.72,0,0,1-4.9-5.09C225,38.52,227.19,36.39,231.07,36.39Zm-0.46,7.29a4.5,4.5,0,0,0,3.42-1.9V39.35a5.73,5.73,0,0,0-2.66-.61c-1.82,0-3.08.95-3.08,2.51A2.29,2.29,0,0,0,230.61,43.68Z"/><path d="M242.16,31.53a0.75,0.75,0,0,1,.72-0.72h1.06a0.66,0.66,0,0,1,.65.46L245,32.55a7.06,7.06,0,0,1,5-2.13,5.64,5.64,0,0,1,4.9,2.43,8.46,8.46,0,0,1,5.51-2.43c4.64,0,6.27,3.27,6.27,7.22v7.64A0.72,0.72,0,0,1,266,46h-2.13a0.72,0.72,0,0,1-.72-0.72V37.49c0-2.39-1.1-3.76-3.15-3.76a5.47,5.47,0,0,0-3.91,1.86,10.62,10.62,0,0,1,.11,1.82v7.87a0.75,0.75,0,0,1-.72.72h-2a0.72,0.72,0,0,1-.72-0.72V37.49c0-2.43-1.1-3.76-3.23-3.76A4.31,4.31,0,0,0,245.74,36v9.27A0.75,0.75,0,0,1,245,46h-2.13a0.75,0.75,0,0,1-.72-0.72V31.53Z"/><path d="M278,30.42a6.84,6.84,0,0,1,7,7,9.4,9.4,0,0,1-.08,1,0.7,0.7,0,0,1-.68.65H273.86a4.4,4.4,0,0,0,4.37,4.07,6.48,6.48,0,0,0,3.38-1.1c0.46-.27.72-0.42,1,0l1.06,1.44a0.59,0.59,0,0,1-.08,1,8.73,8.73,0,0,1-5.62,1.9c-4.6,0-7.64-3.61-7.64-8S273.4,30.42,278,30.42Zm3.46,6.31a3.6,3.6,0,0,0-3.5-3.38A3.84,3.84,0,0,0,274,36.73h7.37Z"/><path d="M290.61,41.1c1.41,0,3.15,1,3.15,4.22a9.81,9.81,0,0,1-3.76,7.6,0.57,0.57,0,0,1-.91,0l-0.57-.57a0.64,0.64,0,0,1,.19-1,7,7,0,0,0,2.7-5.17,4.2,4.2,0,0,1-.95.15,2.65,2.65,0,0,1-2.62-2.62A2.72,2.72,0,0,1,290.61,41.1Z"/><path d="M311.21,36.39a10.93,10.93,0,0,1,3,.46c0-2.39-.42-3.34-2.36-3.34a16.13,16.13,0,0,0-4.26.68,0.68,0.68,0,0,1-.84-0.61l-0.3-1.41A0.68,0.68,0,0,1,307,31.3a15.66,15.66,0,0,1,5.24-.87c4.86,0,5.32,3,5.32,6.76v8.09a0.75,0.75,0,0,1-.72.72h-1.06a0.64,0.64,0,0,1-.65-0.53l-0.38-1A6.56,6.56,0,0,1,310,46.38a4.72,4.72,0,0,1-4.9-5.09C305.13,38.52,307.33,36.39,311.21,36.39Zm-0.46,7.29a4.5,4.5,0,0,0,3.42-1.9V39.35a5.73,5.73,0,0,0-2.66-.61c-1.82,0-3.08.95-3.08,2.51A2.29,2.29,0,0,0,310.75,43.68Z"/><path d="M322.3,31.53A0.75,0.75,0,0,1,323,30.8h1.1a0.62,0.62,0,0,1,.61.46l0.46,1.29a7.77,7.77,0,0,1,5.32-2.13c4.64,0,6.35,3.27,6.35,7.22v7.64a0.75,0.75,0,0,1-.72.72H334a0.72,0.72,0,0,1-.72-0.72V37.49c0-2.43-1.18-3.76-3.15-3.76A5,5,0,0,0,325.88,36v9.27c0,0.49-.23.72-0.87,0.72h-2a0.75,0.75,0,0,1-.72-0.72V31.53Z"/><path d="M356.46,30.42a6.84,6.84,0,0,1,7,7,9.4,9.4,0,0,1-.08,1,0.7,0.7,0,0,1-.68.65H352.36a4.4,4.4,0,0,0,4.37,4.07,6.48,6.48,0,0,0,3.38-1.1c0.46-.27.72-0.42,1,0l1.06,1.44a0.59,0.59,0,0,1-.08,1,8.73,8.73,0,0,1-5.62,1.9c-4.6,0-7.64-3.61-7.64-8S351.9,30.42,356.46,30.42Zm3.46,6.31a3.6,3.6,0,0,0-3.5-3.38,3.84,3.84,0,0,0-3.88,3.38h7.37Z"/><path d="M370.68,38.25l-4.79-6.42a0.59,0.59,0,0,1,.46-1h2.47a1.1,1.1,0,0,1,.91.42l3,4.37h0l3.12-4.37a1,1,0,0,1,.87-0.42h2.51c0.65,0,.84.49,0.46,1L375,38.21,379.8,45c0.34,0.49.15,1-.46,1h-2.39a1,1,0,0,1-.8-0.46l-3.34-4.71h0l-3.42,4.86a0.73,0.73,0,0,1-.61.3h-2.55c-0.65,0-.8-0.49-0.46-1Z"/><path d="M387.09,56.68a0.7,0.7,0,0,1-.8.72h-2.13a0.75,0.75,0,0,1-.72-0.72V31.53a0.75,0.75,0,0,1,.72-0.72h1.14a0.67,0.67,0,0,1,.65.49l0.38,1A6.43,6.43,0,0,1,391,30.42c4.18,0,7.26,3.65,7.26,8s-3.27,7.94-7.41,7.94a7.6,7.6,0,0,1-3.72-1V56.68Zm3.27-13.56a4.44,4.44,0,0,0,4.33-4.67c0-2.54-1.6-4.71-4.18-4.71a3.88,3.88,0,0,0-3.5,2.2V42A5.63,5.63,0,0,0,390.36,43.11Z"/><path d="M408.56,30.42a6.84,6.84,0,0,1,7,7,9.4,9.4,0,0,1-.08,1,0.7,0.7,0,0,1-.68.65H404.46a4.4,4.4,0,0,0,4.37,4.07,6.48,6.48,0,0,0,3.38-1.1c0.46-.27.72-0.42,1,0l1.06,1.44a0.59,0.59,0,0,1-.08,1,8.73,8.73,0,0,1-5.62,1.9c-4.6,0-7.64-3.61-7.64-8S404,30.42,408.56,30.42ZM412,36.73a3.6,3.6,0,0,0-3.5-3.38,3.84,3.84,0,0,0-3.88,3.38H412Z"/><path d="M419.2,31.53a0.75,0.75,0,0,1,.72-0.72H421a0.72,0.72,0,0,1,.65.53l0.42,1.29a5.41,5.41,0,0,1,4.45-2.2c1.44,0,3.19.38,2.77,1.41l-0.91,1.86a0.65,0.65,0,0,1-.91.34,3.49,3.49,0,0,0-1.29-.27,4,4,0,0,0-3.42,1.86v9.65c0,0.65-.42.72-1,0.72h-1.82a0.75,0.75,0,0,1-.72-0.72V31.53Z"/><path d="M431.55,22.41a2.18,2.18,0,0,1,2.17-2.24,2.22,2.22,0,1,1,0,4.45A2.17,2.17,0,0,1,431.55,22.41ZM432,31.53a0.75,0.75,0,0,1,.72-0.72h2.17a0.75,0.75,0,0,1,.72.72V45.28a0.75,0.75,0,0,1-.72.72h-2.17a0.75,0.75,0,0,1-.72-0.72V31.53Z"/><path d="M440.52,31.53a0.75,0.75,0,0,1,.72-0.72h1.06a0.66,0.66,0,0,1,.65.46l0.42,1.29a7.06,7.06,0,0,1,5-2.13,5.64,5.64,0,0,1,4.9,2.43,8.46,8.46,0,0,1,5.51-2.43c4.64,0,6.27,3.27,6.27,7.22v7.64a0.72,0.72,0,0,1-.72.72h-2.13a0.72,0.72,0,0,1-.72-0.72V37.49c0-2.39-1.1-3.76-3.15-3.76a5.47,5.47,0,0,0-3.91,1.86,10.62,10.62,0,0,1,.11,1.82v7.87a0.75,0.75,0,0,1-.72.72h-2a0.72,0.72,0,0,1-.72-0.72V37.49c0-2.43-1.1-3.76-3.23-3.76A4.31,4.31,0,0,0,444.09,36v9.27a0.75,0.75,0,0,1-.72.72h-2.13a0.75,0.75,0,0,1-.72-0.72V31.53Z"/><path d="M476.32,30.42a6.84,6.84,0,0,1,7,7,9.41,9.41,0,0,1-.08,1,0.7,0.7,0,0,1-.68.65H472.21a4.4,4.4,0,0,0,4.37,4.07,6.48,6.48,0,0,0,3.38-1.1c0.46-.27.72-0.42,1,0l1.06,1.44a0.59,0.59,0,0,1-.08,1,8.73,8.73,0,0,1-5.62,1.9c-4.6,0-7.64-3.61-7.64-8S471.76,30.42,476.32,30.42Zm3.46,6.31a3.6,3.6,0,0,0-3.5-3.38,3.84,3.84,0,0,0-3.88,3.38h7.37Z"/><path d="M487,31.53a0.75,0.75,0,0,1,.72-0.72h1.1a0.62,0.62,0,0,1,.61.46l0.46,1.29a7.77,7.77,0,0,1,5.32-2.13c4.64,0,6.35,3.27,6.35,7.22v7.64a0.75,0.75,0,0,1-.72.72h-2.17a0.72,0.72,0,0,1-.72-0.72V37.49c0-2.43-1.18-3.76-3.15-3.76A5,5,0,0,0,490.53,36v9.27c0,0.49-.23.72-0.87,0.72h-2a0.75,0.75,0,0,1-.72-0.72V31.53Z"/><path d="M507.13,34h-1.6a0.72,0.72,0,0,1-.72-0.72V31.53a0.7,0.7,0,0,1,.72-0.72h1.6V26.59a0.75,0.75,0,0,1,.72-0.72l2.17,0a0.71,0.71,0,0,1,.68.72V30.8h3.88a0.7,0.7,0,0,1,.72.72v1.71a0.72,0.72,0,0,1-.72.72H510.7v7.52c0,1.29.49,1.52,1.22,1.52a6.2,6.2,0,0,0,2.32-.68,0.57,0.57,0,0,1,.87.34l0.68,1.67a0.63,0.63,0,0,1-.34.91A11.66,11.66,0,0,1,511,46.38c-3,0-3.88-1.82-3.88-4.52V34Z"/><path d="M528.64,34H527a0.72,0.72,0,0,1-.72-0.72V31.53A0.7,0.7,0,0,1,527,30.8h1.6V26.59a0.75,0.75,0,0,1,.72-0.72l2.17,0a0.71,0.71,0,0,1,.68.72V30.8h3.88a0.7,0.7,0,0,1,.72.72v1.71a0.72,0.72,0,0,1-.72.72h-3.88v7.52c0,1.29.49,1.52,1.22,1.52a6.2,6.2,0,0,0,2.32-.68,0.57,0.57,0,0,1,.87.34l0.68,1.67a0.63,0.63,0,0,1-.34.91,11.66,11.66,0,0,1-4.45,1.14c-3,0-3.88-1.82-3.88-4.52V34Z"/><path d="M540.8,20.13a0.75,0.75,0,0,1,.72-0.72h2.2a0.75,0.75,0,0,1,.72.72V32.06A7.83,7.83,0,0,1,549,30.42c4.29,0,6.35,3.08,6.35,7.22v7.64a0.75,0.75,0,0,1-.72.72H552.5a0.72,0.72,0,0,1-.72-0.72V37.57c0-2.47-1.25-3.84-3.23-3.84a4.69,4.69,0,0,0-4.1,2.39v9.16a0.69,0.69,0,0,1-.76.72h-2.17a0.75,0.75,0,0,1-.72-0.72V20.13Z"/><path d="M565.08,36.39a10.93,10.93,0,0,1,3,.46c0-2.39-.42-3.34-2.36-3.34a16.13,16.13,0,0,0-4.26.68,0.68,0.68,0,0,1-.84-0.61l-0.3-1.41a0.68,0.68,0,0,1,.49-0.87,15.66,15.66,0,0,1,5.24-.87c4.86,0,5.32,3,5.32,6.76v8.09a0.75,0.75,0,0,1-.72.72H569.6a0.64,0.64,0,0,1-.65-0.53l-0.38-1a6.56,6.56,0,0,1-4.67,1.94,4.72,4.72,0,0,1-4.9-5.09C559,38.52,561.21,36.39,565.08,36.39Zm-0.46,7.29a4.5,4.5,0,0,0,3.42-1.9V39.35a5.73,5.73,0,0,0-2.66-.61c-1.82,0-3.08.95-3.08,2.51A2.29,2.29,0,0,0,564.63,43.68Z"/><path d="M577.17,34h-1.6a0.72,0.72,0,0,1-.72-0.72V31.53a0.7,0.7,0,0,1,.72-0.72h1.6V26.59a0.75,0.75,0,0,1,.72-0.72l2.17,0a0.71,0.71,0,0,1,.68.72V30.8h3.88a0.7,0.7,0,0,1,.72.72v1.71a0.72,0.72,0,0,1-.72.72h-3.88v7.52c0,1.29.49,1.52,1.22,1.52a6.2,6.2,0,0,0,2.32-.68,0.57,0.57,0,0,1,.87.34l0.68,1.67a0.63,0.63,0,0,1-.34.91A11.66,11.66,0,0,1,581,46.38c-3,0-3.88-1.82-3.88-4.52V34Z"/><path d="M48.37,78.39a10.93,10.93,0,0,1,3,.46c0-2.39-.42-3.34-2.36-3.34a16.13,16.13,0,0,0-4.26.68,0.68,0.68,0,0,1-.84-0.61l-0.3-1.41a0.68,0.68,0,0,1,.49-0.87,15.66,15.66,0,0,1,5.24-.87c4.86,0,5.32,3,5.32,6.76v8.09A0.75,0.75,0,0,1,54,88H52.89a0.64,0.64,0,0,1-.65-0.53l-0.38-1a6.56,6.56,0,0,1-4.67,1.94,4.72,4.72,0,0,1-4.9-5.09C42.29,80.52,44.49,78.39,48.37,78.39Zm-0.46,7.29a4.5,4.5,0,0,0,3.42-1.9V81.35a5.73,5.73,0,0,0-2.66-.61c-1.82,0-3.08.95-3.08,2.51A2.29,2.29,0,0,0,47.91,85.68Z"/><path d="M60.45,76h-1.6a0.72,0.72,0,0,1-.72-0.72V73.53a0.7,0.7,0,0,1,.72-0.72h1.6V68.59a0.75,0.75,0,0,1,.72-0.72l2.17,0a0.71,0.71,0,0,1,.68.72V72.8H67.9a0.7,0.7,0,0,1,.72.72v1.71a0.72,0.72,0,0,1-.72.72H64v7.52c0,1.29.49,1.52,1.22,1.52a6.2,6.2,0,0,0,2.32-.68,0.57,0.57,0,0,1,.87.34l0.68,1.67a0.63,0.63,0,0,1-.34.91,11.66,11.66,0,0,1-4.45,1.14c-3,0-3.88-1.82-3.88-4.52V76Z"/><path d="M73.6,76H72a0.72,0.72,0,0,1-.72-0.72V73.53A0.7,0.7,0,0,1,72,72.8h1.6V68.59a0.75,0.75,0,0,1,.72-0.72l2.17,0a0.71,0.71,0,0,1,.68.72V72.8H81a0.7,0.7,0,0,1,.72.72v1.71A0.72,0.72,0,0,1,81,76H77.17v7.52c0,1.29.49,1.52,1.22,1.52a6.2,6.2,0,0,0,2.32-.68,0.57,0.57,0,0,1,.87.34l0.68,1.67a0.63,0.63,0,0,1-.34.91,11.66,11.66,0,0,1-4.45,1.14c-3,0-3.88-1.82-3.88-4.52V76Z"/><path d="M92.26,72.42a6.84,6.84,0,0,1,7,7,9.41,9.41,0,0,1-.08,1,0.7,0.7,0,0,1-.68.65H88.15a4.4,4.4,0,0,0,4.37,4.07,6.48,6.48,0,0,0,3.38-1.1c0.46-.27.72-0.42,1,0L98,85.49a0.59,0.59,0,0,1-.08,1,8.73,8.73,0,0,1-5.62,1.9c-4.6,0-7.64-3.61-7.64-8S87.7,72.42,92.26,72.42Zm3.46,6.31a3.6,3.6,0,0,0-3.5-3.38,3.84,3.84,0,0,0-3.88,3.38h7.37Z"/><path d="M102.9,73.53a0.75,0.75,0,0,1,.72-0.72h1.06a0.66,0.66,0,0,1,.65.46l0.42,1.29a7.06,7.06,0,0,1,5-2.13,5.64,5.64,0,0,1,4.9,2.43,8.46,8.46,0,0,1,5.51-2.43c4.64,0,6.27,3.27,6.27,7.22v7.64a0.72,0.72,0,0,1-.72.72h-2.13a0.72,0.72,0,0,1-.72-0.72V79.49c0-2.39-1.1-3.76-3.15-3.76a5.47,5.47,0,0,0-3.91,1.86,10.62,10.62,0,0,1,.11,1.82v7.87a0.75,0.75,0,0,1-.72.72h-2a0.72,0.72,0,0,1-.72-0.72V79.49c0-2.43-1.1-3.76-3.23-3.76A4.31,4.31,0,0,0,106.47,78v9.27a0.75,0.75,0,0,1-.72.72h-2.13a0.75,0.75,0,0,1-.72-0.72V73.53Z"/><path d="M135.84,98.68a0.7,0.7,0,0,1-.8.72h-2.13a0.75,0.75,0,0,1-.72-0.72V73.53a0.75,0.75,0,0,1,.72-0.72h1.14a0.67,0.67,0,0,1,.65.49l0.38,1a6.43,6.43,0,0,1,4.64-1.86c4.18,0,7.26,3.65,7.26,8s-3.27,7.94-7.41,7.94a7.6,7.6,0,0,1-3.72-1V98.68Zm3.27-13.56a4.44,4.44,0,0,0,4.33-4.67c0-2.54-1.6-4.71-4.18-4.71a3.88,3.88,0,0,0-3.5,2.2V84A5.63,5.63,0,0,0,139.11,85.11Z"/><path d="M151.8,76h-1.6a0.72,0.72,0,0,1-.72-0.72V73.53a0.7,0.7,0,0,1,.72-0.72h1.6V68.59a0.75,0.75,0,0,1,.72-0.72l2.17,0a0.71,0.71,0,0,1,.68.72V72.8h3.88a0.7,0.7,0,0,1,.72.72v1.71a0.72,0.72,0,0,1-.72.72h-3.88v7.52c0,1.29.49,1.52,1.22,1.52a6.2,6.2,0,0,0,2.32-.68,0.57,0.57,0,0,1,.87.34l0.68,1.67a0.63,0.63,0,0,1-.34.91,11.66,11.66,0,0,1-4.45,1.14c-3,0-3.88-1.82-3.88-4.52V76Z"/><path d="M163.05,86l0.8-1.48a0.66,0.66,0,0,1,1-.19,7.87,7.87,0,0,0,3.53,1c1.14,0,1.86-.46,1.86-1.29,0-1-.84-1.52-2.93-2.47-2.36-1-4.33-2.47-4.33-5,0-1.9,1.56-4.18,5.21-4.18a8.53,8.53,0,0,1,4.48,1.18,0.85,0.85,0,0,1,.3,1.1L172.25,76a0.8,0.8,0,0,1-1,.3,8.69,8.69,0,0,0-3.12-.8c-1.29,0-1.71.57-1.71,1.14,0,1,.95,1.41,2.43,2.05,2.77,1.22,5.05,2.39,5.05,5.24,0,2.36-2.24,4.45-5.62,4.45a8,8,0,0,1-5-1.56A0.64,0.64,0,0,1,163.05,86Z"/><path d="M186.92,76h-1.6a0.72,0.72,0,0,1-.72-0.72V73.53a0.7,0.7,0,0,1,.72-0.72h1.6V68.59a0.75,0.75,0,0,1,.72-0.72l2.17,0a0.71,0.71,0,0,1,.68.72V72.8h3.88a0.7,0.7,0,0,1,.72.72v1.71a0.72,0.72,0,0,1-.72.72h-3.88v7.52c0,1.29.49,1.52,1.22,1.52a6.2,6.2,0,0,0,2.32-.68,0.57,0.57,0,0,1,.87.34l0.68,1.67a0.63,0.63,0,0,1-.34.91,11.66,11.66,0,0,1-4.45,1.14c-3,0-3.88-1.82-3.88-4.52V76Z"/><path d="M205.61,72.42a8,8,0,1,1-7.68,7.94A7.86,7.86,0,0,1,205.61,72.42Zm0,12.69a4.52,4.52,0,0,0,4.29-4.75,4.31,4.31,0,1,0-8.59,0A4.52,4.52,0,0,0,205.61,85.11Z"/><path d="M231.94,72.42a6.84,6.84,0,0,1,7,7,9.4,9.4,0,0,1-.08,1,0.7,0.7,0,0,1-.68.65H227.84a4.4,4.4,0,0,0,4.37,4.07,6.48,6.48,0,0,0,3.38-1.1c0.46-.27.72-0.42,1,0l1.06,1.44a0.59,0.59,0,0,1-.08,1,8.73,8.73,0,0,1-5.62,1.9c-4.6,0-7.64-3.61-7.64-8S227.38,72.42,231.94,72.42Zm3.46,6.31a3.6,3.6,0,0,0-3.5-3.38A3.84,3.84,0,0,0,228,78.73h7.37Z"/><path d="M246.16,80.25l-4.79-6.42a0.59,0.59,0,0,1,.46-1h2.47a1.1,1.1,0,0,1,.91.42l3,4.37h0l3.12-4.37a1,1,0,0,1,.87-0.42h2.51c0.65,0,.84.49,0.46,1l-4.79,6.42,4.83,6.8c0.34,0.49.15,1-.46,1h-2.39a1,1,0,0,1-.8-0.46l-3.34-4.71h0l-3.42,4.86a0.73,0.73,0,0,1-.61.3h-2.55c-0.65,0-.8-0.49-0.46-1Z"/><path d="M262.57,98.68a0.7,0.7,0,0,1-.8.72h-2.13a0.75,0.75,0,0,1-.72-0.72V73.53a0.75,0.75,0,0,1,.72-0.72h1.14a0.67,0.67,0,0,1,.65.49l0.38,1a6.43,6.43,0,0,1,4.64-1.86c4.18,0,7.26,3.65,7.26,8s-3.27,7.94-7.41,7.94a7.6,7.6,0,0,1-3.72-1V98.68Zm3.27-13.56a4.44,4.44,0,0,0,4.33-4.67c0-2.54-1.6-4.71-4.18-4.71a3.88,3.88,0,0,0-3.5,2.2V84A5.63,5.63,0,0,0,265.84,85.11Z"/><path d="M277.54,62.13a0.75,0.75,0,0,1,.72-0.72h2.17a0.75,0.75,0,0,1,.72.72V87.28a0.75,0.75,0,0,1-.72.72h-2.17a0.75,0.75,0,0,1-.72-0.72V62.13Z"/><path d="M292.63,72.42A8,8,0,1,1,285,80.37,7.86,7.86,0,0,1,292.63,72.42Zm0,12.69a4.52,4.52,0,0,0,4.29-4.75,4.31,4.31,0,1,0-8.59,0A4.52,4.52,0,0,0,292.63,85.11Z"/><path d="M304.11,73.53a0.75,0.75,0,0,1,.72-0.72h1.1a0.72,0.72,0,0,1,.65.53L307,74.63a5.41,5.41,0,0,1,4.45-2.2c1.44,0,3.19.38,2.77,1.41l-0.91,1.86a0.65,0.65,0,0,1-.91.34,3.49,3.49,0,0,0-1.29-.27,4,4,0,0,0-3.42,1.86v9.65c0,0.65-.42.72-1,0.72h-1.82a0.75,0.75,0,0,1-.72-0.72V73.53Z"/><path d="M323.26,72.42a6.84,6.84,0,0,1,7,7,9.4,9.4,0,0,1-.08,1,0.7,0.7,0,0,1-.68.65H319.15a4.4,4.4,0,0,0,4.37,4.07,6.48,6.48,0,0,0,3.38-1.1c0.46-.27.72-0.42,1,0L329,85.49a0.59,0.59,0,0,1-.08,1,8.73,8.73,0,0,1-5.62,1.9c-4.6,0-7.64-3.61-7.64-8S318.7,72.42,323.26,72.42Zm3.46,6.31a3.6,3.6,0,0,0-3.5-3.38,3.84,3.84,0,0,0-3.88,3.38h7.37Z"/><path d="M343.24,76h-1.6a0.72,0.72,0,0,1-.72-0.72V73.53a0.7,0.7,0,0,1,.72-0.72h1.6V68.59a0.75,0.75,0,0,1,.72-0.72l2.17,0a0.71,0.71,0,0,1,.68.72V72.8h3.88a0.7,0.7,0,0,1,.72.72v1.71a0.72,0.72,0,0,1-.72.72h-3.88v7.52c0,1.29.49,1.52,1.22,1.52a6.2,6.2,0,0,0,2.32-.68,0.57,0.57,0,0,1,.87.34l0.68,1.67a0.63,0.63,0,0,1-.34.91,11.66,11.66,0,0,1-4.45,1.14c-3,0-3.88-1.82-3.88-4.52V76Z"/><path d="M355.4,62.13a0.75,0.75,0,0,1,.72-0.72h2.2a0.75,0.75,0,0,1,.72.72V74.06a7.83,7.83,0,0,1,4.56-1.63c4.29,0,6.35,3.08,6.35,7.22v7.64a0.75,0.75,0,0,1-.72.72h-2.13a0.72,0.72,0,0,1-.72-0.72V79.57c0-2.47-1.25-3.84-3.23-3.84a4.69,4.69,0,0,0-4.1,2.39v9.16a0.69,0.69,0,0,1-.76.72h-2.17a0.75,0.75,0,0,1-.72-0.72V62.13Z"/><path d="M381.21,72.42a6.84,6.84,0,0,1,7,7,9.41,9.41,0,0,1-.08,1,0.7,0.7,0,0,1-.68.65H377.1a4.4,4.4,0,0,0,4.37,4.07,6.48,6.48,0,0,0,3.38-1.1c0.46-.27.72-0.42,1,0l1.06,1.44a0.59,0.59,0,0,1-.08,1,8.73,8.73,0,0,1-5.62,1.9c-4.6,0-7.64-3.61-7.64-8S376.65,72.42,381.21,72.42Zm3.46,6.31a3.6,3.6,0,0,0-3.5-3.38,3.84,3.84,0,0,0-3.88,3.38h7.37Z"/><path d="M398.15,73.68a0.56,0.56,0,0,1,.57-0.87H401a0.7,0.7,0,0,1,.68.42l4,9h0l4.1-9a1,1,0,0,1,1-.42h1.75a0.56,0.56,0,0,1,.57.87L406.36,88a0.67,0.67,0,0,1-.65.38h-0.19a0.67,0.67,0,0,1-.65-0.38Z"/><path d="M421,78.39a10.93,10.93,0,0,1,3,.46c0-2.39-.42-3.34-2.36-3.34a16.13,16.13,0,0,0-4.26.68,0.68,0.68,0,0,1-.84-0.61l-0.3-1.41a0.68,0.68,0,0,1,.49-0.87,15.66,15.66,0,0,1,5.24-.87c4.86,0,5.32,3,5.32,6.76v8.09a0.75,0.75,0,0,1-.72.72h-1.06a0.64,0.64,0,0,1-.65-0.53l-0.38-1a6.56,6.56,0,0,1-4.67,1.94,4.72,4.72,0,0,1-4.9-5.09C414.87,80.52,417.08,78.39,421,78.39Zm-0.46,7.29a4.5,4.5,0,0,0,3.42-1.9V81.35a5.73,5.73,0,0,0-2.66-.61c-1.82,0-3.08.95-3.08,2.51A2.29,2.29,0,0,0,420.5,85.68Z"/><path d="M431.14,86l0.8-1.48a0.66,0.66,0,0,1,1-.19,7.87,7.87,0,0,0,3.53,1c1.14,0,1.86-.46,1.86-1.29,0-1-.84-1.52-2.93-2.47-2.36-1-4.33-2.47-4.33-5,0-1.9,1.56-4.18,5.21-4.18a8.53,8.53,0,0,1,4.48,1.18,0.85,0.85,0,0,1,.3,1.1L440.33,76a0.8,0.8,0,0,1-1,.3,8.69,8.69,0,0,0-3.12-.8c-1.29,0-1.71.57-1.71,1.14,0,1,.95,1.41,2.43,2.05,2.77,1.22,5.05,2.39,5.05,5.24,0,2.36-2.24,4.45-5.62,4.45a8,8,0,0,1-5-1.56A0.64,0.64,0,0,1,431.14,86Z"/><path d="M446.64,76H445a0.72,0.72,0,0,1-.72-0.72V73.53A0.7,0.7,0,0,1,445,72.8h1.6V68.59a0.75,0.75,0,0,1,.72-0.72l2.17,0a0.71,0.71,0,0,1,.68.72V72.8h3.88a0.7,0.7,0,0,1,.72.72v1.71a0.72,0.72,0,0,1-.72.72h-3.88v7.52c0,1.29.49,1.52,1.22,1.52a6.2,6.2,0,0,0,2.32-.68,0.57,0.57,0,0,1,.87.34l0.68,1.67a0.63,0.63,0,0,1-.34.91,11.66,11.66,0,0,1-4.45,1.14c-3,0-3.88-1.82-3.88-4.52V76Z"/><path d="M458.8,73.53a0.75,0.75,0,0,1,.72-0.72h1.1a0.62,0.62,0,0,1,.61.46l0.46,1.29A7.77,7.77,0,0,1,467,72.42c4.64,0,6.35,3.27,6.35,7.22v7.64a0.75,0.75,0,0,1-.72.72h-2.17a0.72,0.72,0,0,1-.72-0.72V79.49c0-2.43-1.18-3.76-3.15-3.76A5,5,0,0,0,462.37,78v9.27c0,0.49-.23.72-0.87,0.72h-2a0.75,0.75,0,0,1-.72-0.72V73.53Z"/><path d="M484.6,72.42a6.84,6.84,0,0,1,7,7,9.41,9.41,0,0,1-.08,1,0.7,0.7,0,0,1-.68.65H480.5a4.4,4.4,0,0,0,4.37,4.07,6.48,6.48,0,0,0,3.38-1.1c0.46-.27.72-0.42,1,0l1.06,1.44a0.59,0.59,0,0,1-.08,1,8.73,8.73,0,0,1-5.62,1.9c-4.6,0-7.64-3.61-7.64-8S480,72.42,484.6,72.42Zm3.46,6.31a3.6,3.6,0,0,0-3.5-3.38,3.84,3.84,0,0,0-3.88,3.38h7.37Z"/><path d="M494.33,86l0.8-1.48a0.66,0.66,0,0,1,1-.19,7.87,7.87,0,0,0,3.53,1c1.14,0,1.86-.46,1.86-1.29,0-1-.84-1.52-2.93-2.47-2.36-1-4.33-2.47-4.33-5,0-1.9,1.56-4.18,5.21-4.18a8.53,8.53,0,0,1,4.48,1.18,0.85,0.85,0,0,1,.3,1.1L503.52,76a0.8,0.8,0,0,1-1,.3,8.69,8.69,0,0,0-3.12-.8c-1.29,0-1.71.57-1.71,1.14,0,1,.95,1.41,2.43,2.05,2.77,1.22,5.05,2.39,5.05,5.24,0,2.36-2.24,4.45-5.62,4.45a8,8,0,0,1-5-1.56A0.64,0.64,0,0,1,494.33,86Z"/><path d="M507.93,86l0.8-1.48a0.66,0.66,0,0,1,1-.19,7.87,7.87,0,0,0,3.53,1c1.14,0,1.86-.46,1.86-1.29,0-1-.84-1.52-2.93-2.47-2.36-1-4.33-2.47-4.33-5,0-1.9,1.56-4.18,5.21-4.18a8.53,8.53,0,0,1,4.48,1.18,0.85,0.85,0,0,1,.3,1.1L517.13,76a0.8,0.8,0,0,1-1,.3,8.69,8.69,0,0,0-3.12-.8c-1.29,0-1.71.57-1.71,1.14,0,1,.95,1.41,2.43,2.05,2.77,1.22,5.05,2.39,5.05,5.24,0,2.36-2.24,4.45-5.62,4.45a8,8,0,0,1-5-1.56A0.64,0.64,0,0,1,507.93,86Z"/><path d="M537.34,72.42a8,8,0,1,1-7.68,7.94A7.86,7.86,0,0,1,537.34,72.42Zm0,12.69a4.52,4.52,0,0,0,4.29-4.75,4.31,4.31,0,1,0-8.59,0A4.52,4.52,0,0,0,537.34,85.11Z"/><path d="M550,76h-1.79a0.72,0.72,0,0,1-.72-0.72V73.53a0.7,0.7,0,0,1,.72-0.72H550V68.09c0-4.71,2.81-7.07,6.46-7.07a6.83,6.83,0,0,1,4.33,1.52,0.7,0.7,0,0,1,.15.87L560,65.13a0.6,0.6,0,0,1-1,.11,5.17,5.17,0,0,0-2.51-.91c-1.67,0-2.85,1.22-2.85,3.76V72.8h4.1a0.7,0.7,0,0,1,.72.72v1.71a0.72,0.72,0,0,1-.72.72h-4.1V87.28A0.75,0.75,0,0,1,553,88h-2.24a0.75,0.75,0,0,1-.72-0.72V76Z"/><path d="M80.86,104.13a0.75,0.75,0,0,1,.72-0.72h2.2a0.75,0.75,0,0,1,.72.72v11.93a7.83,7.83,0,0,1,4.56-1.63c4.29,0,6.35,3.08,6.35,7.22v7.64a0.75,0.75,0,0,1-.72.72H92.56a0.72,0.72,0,0,1-.72-0.72v-7.71c0-2.47-1.25-3.84-3.23-3.84a4.69,4.69,0,0,0-4.1,2.39v9.16a0.69,0.69,0,0,1-.76.72H81.58a0.75,0.75,0,0,1-.72-0.72V104.13Z"/><path d="M99.93,115.53a0.75,0.75,0,0,1,.72-0.72h2.17a0.75,0.75,0,0,1,.72.72v7.79c0,2.47,1.18,3.8,3.12,3.8a4,4,0,0,0,3.76-2.51v-9.08c0-.61.3-0.72,0.84-0.72h2a0.75,0.75,0,0,1,.72.72v13.75a0.75,0.75,0,0,1-.72.72h-1.06a0.73,0.73,0,0,1-.68-0.61l-0.38-1.1a6.88,6.88,0,0,1-5,2.09c-4.56,0-6.16-3.23-6.16-7.18v-7.68Z"/><path d="M118.9,115.53a0.75,0.75,0,0,1,.72-0.72h1.06a0.66,0.66,0,0,1,.65.46l0.42,1.29a7.06,7.06,0,0,1,5-2.13,5.64,5.64,0,0,1,4.9,2.43,8.46,8.46,0,0,1,5.51-2.43c4.64,0,6.27,3.27,6.27,7.22v7.64a0.72,0.72,0,0,1-.72.72h-2.13a0.72,0.72,0,0,1-.72-0.72v-7.79c0-2.39-1.1-3.76-3.15-3.76a5.47,5.47,0,0,0-3.91,1.86,10.62,10.62,0,0,1,.11,1.82v7.87a0.75,0.75,0,0,1-.72.72h-2a0.72,0.72,0,0,1-.72-0.72v-7.79c0-2.43-1.1-3.76-3.23-3.76a4.31,4.31,0,0,0-3.76,2.28v9.27a0.75,0.75,0,0,1-.72.72h-2.13a0.75,0.75,0,0,1-.72-0.72V115.53Z"/><path d="M153.17,120.39a10.93,10.93,0,0,1,3,.46c0-2.39-.42-3.34-2.36-3.34a16.13,16.13,0,0,0-4.26.68,0.68,0.68,0,0,1-.84-0.61l-0.3-1.41a0.68,0.68,0,0,1,.49-0.87,15.66,15.66,0,0,1,5.24-.87c4.86,0,5.32,3,5.32,6.76v8.09a0.75,0.75,0,0,1-.72.72h-1.06a0.64,0.64,0,0,1-.65-0.53l-0.38-1a6.56,6.56,0,0,1-4.67,1.94,4.72,4.72,0,0,1-4.9-5.09C147.09,122.52,149.3,120.39,153.17,120.39Zm-0.46,7.29a4.5,4.5,0,0,0,3.42-1.9v-2.43a5.73,5.73,0,0,0-2.66-.61c-1.82,0-3.08.95-3.08,2.51A2.29,2.29,0,0,0,152.71,127.68Z"/><path d="M164.27,115.53a0.75,0.75,0,0,1,.72-0.72h1.1a0.62,0.62,0,0,1,.61.46l0.46,1.29a7.77,7.77,0,0,1,5.32-2.13c4.64,0,6.35,3.27,6.35,7.22v7.64a0.75,0.75,0,0,1-.72.72h-2.17a0.72,0.72,0,0,1-.72-0.72v-7.79c0-2.43-1.18-3.76-3.15-3.76a5,5,0,0,0-4.22,2.28v9.27c0,0.49-.23.72-0.87,0.72h-2a0.75,0.75,0,0,1-.72-0.72V115.53Z"/><path d="M198.31,114.42a9.14,9.14,0,0,1,3.65.84V104.13a0.75,0.75,0,0,1,.72-0.72h2.2a0.75,0.75,0,0,1,.72.72v25.15a0.75,0.75,0,0,1-.72.72h-1.14a0.76,0.76,0,0,1-.68-0.65l-0.3-1.1a6.79,6.79,0,0,1-4.83,2.13c-4,0-7.1-3.61-7.1-8A7.67,7.67,0,0,1,198.31,114.42Zm0.08,12.69a4.09,4.09,0,0,0,3.61-2.28v-6.19a6.3,6.3,0,0,0-3.31-.91,4.41,4.41,0,0,0-4.33,4.67C194.36,124.95,196,127.11,198.39,127.11Z"/><path d="M217,114.42a6.84,6.84,0,0,1,7,7,9.41,9.41,0,0,1-.08,1,0.7,0.7,0,0,1-.68.65H212.94a4.4,4.4,0,0,0,4.37,4.07,6.48,6.48,0,0,0,3.38-1.1c0.46-.27.72-0.42,1,0l1.06,1.44a0.59,0.59,0,0,1-.08,1,8.73,8.73,0,0,1-5.62,1.9c-4.6,0-7.64-3.61-7.64-8S212.49,114.42,217,114.42Zm3.46,6.31a3.6,3.6,0,0,0-3.5-3.38,3.84,3.84,0,0,0-3.88,3.38h7.37Z"/><path d="M234.53,114.42a6.73,6.73,0,0,1,5.51,2.7,0.74,0.74,0,0,1-.15,1.06l-1.25,1.14c-0.46.42-.72,0.11-1-0.15a4.22,4.22,0,0,0-3-1.44,4.69,4.69,0,1,0,3.5,7.64,0.7,0.7,0,0,1,1-.08l1,0.84a0.74,0.74,0,0,1,.27,1.06,6.74,6.74,0,0,1-5.89,3.19,7.91,7.91,0,0,1-7.94-7.94A8.08,8.08,0,0,1,234.53,114.42Z"/><path d="M243.76,106.41a2.18,2.18,0,0,1,2.17-2.24,2.22,2.22,0,1,1,0,4.45A2.17,2.17,0,0,1,243.76,106.41Zm0.42,9.12a0.75,0.75,0,0,1,.72-0.72h2.17a0.75,0.75,0,0,1,.72.72v13.75a0.75,0.75,0,0,1-.72.72H244.9a0.75,0.75,0,0,1-.72-0.72V115.53Z"/><path d="M251.82,128l0.8-1.48a0.66,0.66,0,0,1,1-.19,7.87,7.87,0,0,0,3.53,1c1.14,0,1.86-.46,1.86-1.29,0-1-.84-1.52-2.93-2.47-2.36-1-4.33-2.47-4.33-5,0-1.9,1.56-4.18,5.21-4.18a8.53,8.53,0,0,1,4.48,1.18,0.85,0.85,0,0,1,.3,1.1L261,118a0.8,0.8,0,0,1-1,.3,8.69,8.69,0,0,0-3.12-.8c-1.29,0-1.71.57-1.71,1.14,0,1,.95,1.41,2.43,2.05,2.77,1.22,5.05,2.39,5.05,5.24,0,2.36-2.24,4.45-5.62,4.45a8,8,0,0,1-5-1.56A0.64,0.64,0,0,1,251.82,128Z"/><path d="M265.91,106.41a2.18,2.18,0,0,1,2.17-2.24,2.22,2.22,0,1,1,0,4.45A2.17,2.17,0,0,1,265.91,106.41Zm0.42,9.12a0.75,0.75,0,0,1,.72-0.72h2.17a0.75,0.75,0,0,1,.72.72v13.75a0.75,0.75,0,0,1-.72.72h-2.17a0.75,0.75,0,0,1-.72-0.72V115.53Z"/><path d="M281.42,114.42a8,8,0,1,1-7.68,7.94A7.86,7.86,0,0,1,281.42,114.42Zm0,12.69a4.52,4.52,0,0,0,4.29-4.75,4.31,4.31,0,1,0-8.59,0A4.52,4.52,0,0,0,281.42,127.11Z"/><path d="M292.89,115.53a0.75,0.75,0,0,1,.72-0.72h1.1a0.62,0.62,0,0,1,.61.46l0.46,1.29a7.77,7.77,0,0,1,5.32-2.13c4.64,0,6.35,3.27,6.35,7.22v7.64a0.75,0.75,0,0,1-.72.72h-2.17a0.72,0.72,0,0,1-.72-0.72v-7.79c0-2.43-1.18-3.76-3.15-3.76a5,5,0,0,0-4.22,2.28v9.27c0,0.49-.23.72-0.87,0.72h-2a0.75,0.75,0,0,1-.72-0.72V115.53Z"/><path d="M311.29,128l0.8-1.48a0.66,0.66,0,0,1,1-.19,7.87,7.87,0,0,0,3.53,1c1.14,0,1.86-.46,1.86-1.29,0-1-.84-1.52-2.93-2.47-2.36-1-4.33-2.47-4.33-5,0-1.9,1.56-4.18,5.21-4.18a8.53,8.53,0,0,1,4.48,1.18,0.85,0.85,0,0,1,.3,1.1L320.48,118a0.8,0.8,0,0,1-1,.3,8.69,8.69,0,0,0-3.12-.8c-1.29,0-1.71.57-1.71,1.14,0,1,.95,1.41,2.43,2.05,2.77,1.22,5.05,2.39,5.05,5.24,0,2.36-2.24,4.45-5.62,4.45a8,8,0,0,1-5-1.56A0.64,0.64,0,0,1,311.29,128Z"/><path d="M327.82,125.1c1.41,0,3.15,1,3.15,4.22a9.81,9.81,0,0,1-3.76,7.6,0.57,0.57,0,0,1-.91,0l-0.57-.57a0.64,0.64,0,0,1,.19-1,7,7,0,0,0,2.7-5.17,4.2,4.2,0,0,1-.95.15,2.65,2.65,0,0,1-2.62-2.62A2.72,2.72,0,0,1,327.82,125.1Z"/><path d="M349.93,114.42a6.84,6.84,0,0,1,7,7,9.41,9.41,0,0,1-.08,1,0.7,0.7,0,0,1-.68.65H345.83a4.4,4.4,0,0,0,4.37,4.07,6.48,6.48,0,0,0,3.38-1.1c0.46-.27.72-0.42,1,0l1.06,1.44a0.59,0.59,0,0,1-.08,1,8.73,8.73,0,0,1-5.62,1.9c-4.6,0-7.64-3.61-7.64-8S345.37,114.42,349.93,114.42Zm3.46,6.31a3.6,3.6,0,0,0-3.5-3.38,3.84,3.84,0,0,0-3.88,3.38h7.37Z"/><path d="M358.52,115.68a0.56,0.56,0,0,1,.57-0.87h2.24a0.7,0.7,0,0,1,.68.42l4,9h0l4.1-9a1,1,0,0,1,1-.42h1.75a0.56,0.56,0,0,1,.57.87L366.73,130a0.67,0.67,0,0,1-.65.38h-0.19a0.67,0.67,0,0,1-.65-0.38Z"/><path d="M382.88,114.42a8,8,0,1,1-7.68,7.94A7.86,7.86,0,0,1,382.88,114.42Zm0,12.69a4.52,4.52,0,0,0,4.29-4.75,4.31,4.31,0,1,0-8.59,0A4.52,4.52,0,0,0,382.88,127.11Z"/><path d="M394.35,104.13a0.75,0.75,0,0,1,.72-0.72h2.17a0.75,0.75,0,0,1,.72.72v25.15a0.75,0.75,0,0,1-.72.72h-2.17a0.75,0.75,0,0,1-.72-0.72V104.13Z"/><path d="M402.67,115.53a0.75,0.75,0,0,1,.72-0.72h2.17a0.75,0.75,0,0,1,.72.72v7.79c0,2.47,1.18,3.8,3.12,3.8a4,4,0,0,0,3.76-2.51v-9.08c0-.61.3-0.72,0.84-0.72h2a0.75,0.75,0,0,1,.72.72v13.75a0.75,0.75,0,0,1-.72.72h-1.06a0.73,0.73,0,0,1-.68-0.61l-0.38-1.1a6.88,6.88,0,0,1-5,2.09c-4.56,0-6.16-3.23-6.16-7.18v-7.68Z"/><path d="M422.62,118H421a0.72,0.72,0,0,1-.72-0.72v-1.71a0.7,0.7,0,0,1,.72-0.72h1.6v-4.22a0.75,0.75,0,0,1,.72-0.72l2.17,0a0.71,0.71,0,0,1,.68.72v4.25h3.88a0.7,0.7,0,0,1,.72.72v1.71a0.72,0.72,0,0,1-.72.72h-3.88v7.52c0,1.29.49,1.52,1.22,1.52a6.2,6.2,0,0,0,2.32-.68,0.57,0.57,0,0,1,.87.34l0.68,1.67a0.63,0.63,0,0,1-.34.91,11.66,11.66,0,0,1-4.45,1.14c-3,0-3.88-1.82-3.88-4.52V118Z"/><path d="M434.37,106.41a2.18,2.18,0,0,1,2.17-2.24,2.22,2.22,0,1,1,0,4.45A2.17,2.17,0,0,1,434.37,106.41Zm0.42,9.12a0.75,0.75,0,0,1,.72-0.72h2.17a0.75,0.75,0,0,1,.72.72v13.75a0.75,0.75,0,0,1-.72.72H435.5a0.75,0.75,0,0,1-.72-0.72V115.53Z"/><path d="M449.87,114.42a8,8,0,1,1-7.68,7.94A7.86,7.86,0,0,1,449.87,114.42Zm0,12.69a4.52,4.52,0,0,0,4.29-4.75,4.31,4.31,0,1,0-8.59,0A4.52,4.52,0,0,0,449.87,127.11Z"/><path d="M461.34,115.53a0.75,0.75,0,0,1,.72-0.72h1.1a0.62,0.62,0,0,1,.61.46l0.46,1.29a7.77,7.77,0,0,1,5.32-2.13c4.64,0,6.35,3.27,6.35,7.22v7.64a0.75,0.75,0,0,1-.72.72H473a0.72,0.72,0,0,1-.72-0.72v-7.79c0-2.43-1.18-3.76-3.15-3.76a5,5,0,0,0-4.22,2.28v9.27c0,0.49-.23.72-0.87,0.72h-2a0.75,0.75,0,0,1-.72-0.72V115.53Z"/><path d="M482.66,125.1c1.41,0,3.15,1,3.15,4.22a9.81,9.81,0,0,1-3.76,7.6,0.57,0.57,0,0,1-.91,0l-0.57-.57a0.64,0.64,0,0,1,.19-1,7,7,0,0,0,2.7-5.17,4.2,4.2,0,0,1-.95.15,2.65,2.65,0,0,1-2.62-2.62A2.72,2.72,0,0,1,482.66,125.1Z"/><path d="M504.09,115.72v-0.08l-0.87-.95c-1.48-1.56-2.66-3.23-2.62-5.51,0-2.89,2.28-6.16,7-6.16,4.18,0,6.8,2.74,6.8,6,0,3.65-3.65,6.08-5.13,7.11l5.32,5.32A13.74,13.74,0,0,0,516,116c0-.84.34-1.06,1.06-0.91l1.56,0.3a0.83,0.83,0,0,1,.65,1.18,20.36,20.36,0,0,1-2.32,7.29l3.53,3.42c0.46,0.46.8,0.87-.08,1.75l-1,1a1.07,1.07,0,0,1-1.63-.11l-3-3a10.86,10.86,0,0,1-8.28,3.5c-4.79,0-7.67-3.27-7.67-7.07C498.81,118.76,502.72,116.51,504.09,115.72Zm2.7,11.47a7.39,7.39,0,0,0,5.7-2.74l-6.35-6.69c-1.18.72-3.72,2.32-3.72,5.32A4.15,4.15,0,0,0,506.79,127.19Zm4.18-18a3.38,3.38,0,0,0-3.61-3.27,3.18,3.18,0,0,0-3.38,3.27c0,1.48.91,2.58,2.2,3.88l0.84,0.84C508.16,113.25,511,111.77,511,109.22Z"/><path d="M7.63,148.41a2.18,2.18,0,0,1,2.17-2.24,2.22,2.22,0,1,1,0,4.45A2.17,2.17,0,0,1,7.63,148.41Zm0.42,9.12a0.75,0.75,0,0,1,.72-0.72h2.17a0.75,0.75,0,0,1,.72.72v13.75a0.75,0.75,0,0,1-.72.72H8.77a0.75,0.75,0,0,1-.72-0.72V157.53Z"/><path d="M16.6,157.53a0.75,0.75,0,0,1,.72-0.72h1.1a0.62,0.62,0,0,1,.61.46l0.46,1.29a7.77,7.77,0,0,1,5.32-2.13c4.64,0,6.35,3.27,6.35,7.22v7.64a0.75,0.75,0,0,1-.72.72H28.27a0.72,0.72,0,0,1-.72-0.72v-7.79c0-2.43-1.18-3.76-3.15-3.76A5,5,0,0,0,20.17,162v9.27c0,0.49-.23.72-0.87,0.72h-2a0.75,0.75,0,0,1-.72-0.72V157.53Z"/><path d="M42.29,156.42a9.14,9.14,0,0,1,3.65.84V146.13a0.75,0.75,0,0,1,.72-0.72h2.2a0.75,0.75,0,0,1,.72.72v25.15a0.75,0.75,0,0,1-.72.72H47.72a0.76,0.76,0,0,1-.68-0.65l-0.3-1.1a6.79,6.79,0,0,1-4.83,2.13c-4,0-7.1-3.61-7.1-8A7.67,7.67,0,0,1,42.29,156.42Zm0.08,12.69A4.09,4.09,0,0,0,46,166.84v-6.19a6.3,6.3,0,0,0-3.31-.91,4.41,4.41,0,0,0-4.33,4.67C38.34,166.95,39.93,169.11,42.36,169.11Z"/><path d="M54.11,148.41a2.18,2.18,0,0,1,2.17-2.24,2.22,2.22,0,1,1,0,4.45A2.17,2.17,0,0,1,54.11,148.41Zm0.42,9.12a0.75,0.75,0,0,1,.72-0.72h2.17a0.75,0.75,0,0,1,.72.72v13.75a0.75,0.75,0,0,1-.72.72H55.25a0.75,0.75,0,0,1-.72-0.72V157.53Z"/><path d="M61,157.68a0.56,0.56,0,0,1,.57-0.87h2.24a0.7,0.7,0,0,1,.68.42l4,9h0l4.1-9a1,1,0,0,1,1-.42h1.75a0.56,0.56,0,0,1,.57.87L69.23,172a0.67,0.67,0,0,1-.65.38H68.39a0.67,0.67,0,0,1-.65-0.38Z"/><path d="M78.43,148.41a2.18,2.18,0,0,1,2.17-2.24,2.22,2.22,0,1,1,0,4.45A2.17,2.17,0,0,1,78.43,148.41Zm0.42,9.12a0.75,0.75,0,0,1,.72-0.72h2.17a0.75,0.75,0,0,1,.72.72v13.75a0.75,0.75,0,0,1-.72.72H79.57a0.75,0.75,0,0,1-.72-0.72V157.53Z"/><path d="M93.78,156.42a9.14,9.14,0,0,1,3.65.84V146.13a0.75,0.75,0,0,1,.72-0.72h2.2a0.75,0.75,0,0,1,.72.72v25.15a0.75,0.75,0,0,1-.72.72H99.21a0.76,0.76,0,0,1-.68-0.65l-0.3-1.1a6.79,6.79,0,0,1-4.83,2.13c-4,0-7.1-3.61-7.1-8A7.67,7.67,0,0,1,93.78,156.42Zm0.08,12.69a4.09,4.09,0,0,0,3.61-2.28v-6.19a6.3,6.3,0,0,0-3.31-.91,4.41,4.41,0,0,0-4.33,4.67C89.83,166.95,91.42,169.11,93.85,169.11Z"/><path d="M105.79,157.53a0.75,0.75,0,0,1,.72-0.72h2.17a0.75,0.75,0,0,1,.72.72v7.79c0,2.47,1.18,3.8,3.12,3.8a4,4,0,0,0,3.76-2.51v-9.08c0-.61.3-0.72,0.84-0.72h2a0.75,0.75,0,0,1,.72.72v13.75a0.75,0.75,0,0,1-.72.72H118a0.73,0.73,0,0,1-.68-0.61l-0.38-1.1a6.88,6.88,0,0,1-5,2.09c-4.56,0-6.16-3.23-6.16-7.18v-7.68Z"/><path d="M129.73,162.39a10.93,10.93,0,0,1,3,.46c0-2.39-.42-3.34-2.36-3.34a16.13,16.13,0,0,0-4.26.68,0.68,0.68,0,0,1-.84-0.61l-0.3-1.41a0.68,0.68,0,0,1,.49-0.87,15.66,15.66,0,0,1,5.24-.87c4.86,0,5.32,3,5.32,6.76v8.09a0.75,0.75,0,0,1-.72.72h-1.06a0.64,0.64,0,0,1-.65-0.53l-0.38-1a6.56,6.56,0,0,1-4.67,1.94,4.72,4.72,0,0,1-4.9-5.09C123.65,164.52,125.85,162.39,129.73,162.39Zm-0.46,7.29a4.5,4.5,0,0,0,3.42-1.9v-2.43a5.73,5.73,0,0,0-2.66-.61c-1.82,0-3.08.95-3.08,2.51A2.29,2.29,0,0,0,129.27,169.68Z"/><path d="M140.82,146.13a0.75,0.75,0,0,1,.72-0.72h2.17a0.75,0.75,0,0,1,.72.72v25.15a0.75,0.75,0,0,1-.72.72h-2.17a0.75,0.75,0,0,1-.72-0.72V146.13Z"/><path d="M149,148.41a2.18,2.18,0,0,1,2.17-2.24,2.22,2.22,0,1,1,0,4.45A2.17,2.17,0,0,1,149,148.41Zm0.42,9.12a0.75,0.75,0,0,1,.72-0.72h2.17a0.75,0.75,0,0,1,.72.72v13.75a0.75,0.75,0,0,1-.72.72h-2.17a0.75,0.75,0,0,1-.72-0.72V157.53Z"/><path d="M158.91,160h-1.6a0.72,0.72,0,0,1-.72-0.72v-1.71a0.7,0.7,0,0,1,.72-0.72h1.6v-4.22a0.75,0.75,0,0,1,.72-0.72l2.17,0a0.71,0.71,0,0,1,.68.72v4.25h3.88a0.7,0.7,0,0,1,.72.72v1.71a0.72,0.72,0,0,1-.72.72h-3.88v7.52c0,1.29.49,1.52,1.22,1.52a6.2,6.2,0,0,0,2.32-.68,0.57,0.57,0,0,1,.87.34l0.68,1.67a0.63,0.63,0,0,1-.34.91,11.66,11.66,0,0,1-4.45,1.14c-3,0-3.88-1.82-3.88-4.52V160Z"/><path d="M169,157.79a0.67,0.67,0,0,1,.65-1h2.51a0.83,0.83,0,0,1,.65.42l4.71,10.11h0l4.56-10.11a0.77,0.77,0,0,1,.8-0.42h2.17a0.65,0.65,0,0,1,.65,1l-11.63,25.15a0.76,0.76,0,0,1-.65.46h-2.28a0.68,0.68,0,0,1-.65-1l5.09-10.9Z"/><path d="M190,167.1a2.64,2.64,0,1,1-2.62,2.66A2.64,2.64,0,0,1,190,167.1Z"/><path d="M206.37,146.13a0.72,0.72,0,0,1,.72-0.72h15.2a0.72,0.72,0,0,1,.72.72v2.13a0.72,0.72,0,0,1-.72.72h-12v7.75h10.14a0.75,0.75,0,0,1,.72.72v2.13a0.72,0.72,0,0,1-.72.72H210.28v8.17h12a0.72,0.72,0,0,1,.72.72v2.09a0.72,0.72,0,0,1-.72.72h-15.2a0.72,0.72,0,0,1-.72-0.72V146.13Z"/><path d="M224.65,157.68a0.56,0.56,0,0,1,.57-0.87h2.24a0.7,0.7,0,0,1,.68.42l4,9h0l4.1-9a1,1,0,0,1,1-.42H239a0.56,0.56,0,0,1,.57.87L232.86,172a0.67,0.67,0,0,1-.65.38H232a0.67,0.67,0,0,1-.65-0.38Z"/><path d="M249,156.42a6.84,6.84,0,0,1,7,7,9.4,9.4,0,0,1-.08,1,0.7,0.7,0,0,1-.68.65H244.86a4.4,4.4,0,0,0,4.37,4.07,6.48,6.48,0,0,0,3.38-1.1c0.46-.27.72-0.42,1,0l1.06,1.44a0.59,0.59,0,0,1-.08,1,8.73,8.73,0,0,1-5.62,1.9c-4.6,0-7.64-3.61-7.64-8S244.41,156.42,249,156.42Zm3.46,6.31a3.6,3.6,0,0,0-3.5-3.38,3.84,3.84,0,0,0-3.88,3.38h7.37Z"/><path d="M259.61,157.53a0.75,0.75,0,0,1,.72-0.72h1.1a0.62,0.62,0,0,1,.61.46l0.46,1.29a7.77,7.77,0,0,1,5.32-2.13c4.64,0,6.35,3.27,6.35,7.22v7.64a0.75,0.75,0,0,1-.72.72h-2.17a0.72,0.72,0,0,1-.72-0.72v-7.79c0-2.43-1.18-3.76-3.15-3.76a5,5,0,0,0-4.22,2.28v9.27c0,0.49-.23.72-0.87,0.72h-2a0.75,0.75,0,0,1-.72-0.72V157.53Z"/><path d="M288.45,166.76a6.1,6.1,0,0,1-1.18-3.69,6.51,6.51,0,0,1,6.54-6.65h6.65a0.7,0.7,0,0,1,.72.72v1a0.63,0.63,0,0,1-.42.65l-2.09.57a5.09,5.09,0,0,1,1.63,4.07,6.21,6.21,0,0,1-6.46,6.19,11.16,11.16,0,0,1-3.31-.61,2.09,2.09,0,0,0-1.56,1.86,1.62,1.62,0,0,0,1.82,1.56H296c3.31,0,6,1.79,6,5.09s-3,6.31-8.09,6.31c-5.36,0-7.52-2.74-7.52-5.21a4.19,4.19,0,0,1,2.24-3.57v-0.11a3.92,3.92,0,0,1-2.81-3.8A5.24,5.24,0,0,1,288.45,166.76Zm5.36,13.91c2.32,0,4.33-1.18,4.33-3,0-.61-0.38-2.17-2.85-2.17-1.1,0-2.24,0-3.34.08-0.23.08-2.09,0.68-2.09,2.39C289.85,179.53,291.49,180.66,293.81,180.66Zm3.27-17.51a3.2,3.2,0,0,0-3.19-3.5,3.5,3.5,0,0,0,0,7A3.2,3.2,0,0,0,297.07,163.15Z"/><path d="M304.33,148.41a2.18,2.18,0,0,1,2.17-2.24,2.22,2.22,0,1,1,0,4.45A2.17,2.17,0,0,1,304.33,148.41Zm0.42,9.12a0.75,0.75,0,0,1,.72-0.72h2.17a0.75,0.75,0,0,1,.72.72v13.75a0.75,0.75,0,0,1-.72.72h-2.17a0.75,0.75,0,0,1-.72-0.72V157.53Z"/><path d="M311.25,157.68a0.56,0.56,0,0,1,.57-0.87h2.24a0.7,0.7,0,0,1,.68.42l4,9h0l4.1-9a1,1,0,0,1,1-.42h1.75a0.56,0.56,0,0,1,.57.87L319.45,172a0.67,0.67,0,0,1-.65.38h-0.19A0.67,0.67,0,0,1,318,172Z"/><path d="M335.57,156.42a6.84,6.84,0,0,1,7,7,9.4,9.4,0,0,1-.08,1,0.7,0.7,0,0,1-.68.65H331.46a4.4,4.4,0,0,0,4.37,4.07,6.48,6.48,0,0,0,3.38-1.1c0.46-.27.72-0.42,1,0l1.06,1.44a0.59,0.59,0,0,1-.08,1,8.73,8.73,0,0,1-5.62,1.9c-4.6,0-7.64-3.61-7.64-8S331,156.42,335.57,156.42Zm3.46,6.31a3.6,3.6,0,0,0-3.5-3.38,3.84,3.84,0,0,0-3.88,3.38H339Z"/><path d="M346.21,157.53a0.75,0.75,0,0,1,.72-0.72H348a0.62,0.62,0,0,1,.61.46l0.46,1.29a7.77,7.77,0,0,1,5.32-2.13c4.64,0,6.35,3.27,6.35,7.22v7.64a0.75,0.75,0,0,1-.72.72h-2.17a0.72,0.72,0,0,1-.72-0.72v-7.79c0-2.43-1.18-3.76-3.15-3.76a5,5,0,0,0-4.22,2.28v9.27c0,0.49-.23.72-0.87,0.72h-2a0.75,0.75,0,0,1-.72-0.72V157.53Z"/><path d="M374.86,160h-1.6a0.72,0.72,0,0,1-.72-0.72v-1.71a0.7,0.7,0,0,1,.72-0.72h1.6v-4.22a0.75,0.75,0,0,1,.72-0.72l2.17,0a0.71,0.71,0,0,1,.68.72v4.25h3.88a0.7,0.7,0,0,1,.72.72v1.71a0.72,0.72,0,0,1-.72.72h-3.88v7.52c0,1.29.49,1.52,1.22,1.52a6.2,6.2,0,0,0,2.32-.68,0.57,0.57,0,0,1,.87.34l0.68,1.67a0.63,0.63,0,0,1-.34.91,11.66,11.66,0,0,1-4.45,1.14c-3,0-3.88-1.82-3.88-4.52V160Z"/><path d="M387,146.13a0.75,0.75,0,0,1,.72-0.72h2.2a0.75,0.75,0,0,1,.72.72v11.93a7.83,7.83,0,0,1,4.56-1.63c4.29,0,6.35,3.08,6.35,7.22v7.64a0.75,0.75,0,0,1-.72.72h-2.13a0.72,0.72,0,0,1-.72-0.72v-7.71c0-2.47-1.25-3.84-3.23-3.84a4.69,4.69,0,0,0-4.1,2.39v9.16a0.69,0.69,0,0,1-.76.72h-2.17a0.75,0.75,0,0,1-.72-0.72V146.13Z"/><path d="M412.82,156.42a6.84,6.84,0,0,1,7,7,9.4,9.4,0,0,1-.08,1,0.7,0.7,0,0,1-.68.65H408.71a4.4,4.4,0,0,0,4.37,4.07,6.48,6.48,0,0,0,3.38-1.1c0.46-.27.72-0.42,1,0l1.06,1.44a0.59,0.59,0,0,1-.08,1,8.73,8.73,0,0,1-5.62,1.9c-4.6,0-7.64-3.61-7.64-8S408.26,156.42,412.82,156.42Zm3.46,6.31a3.6,3.6,0,0,0-3.5-3.38,3.84,3.84,0,0,0-3.88,3.38h7.37Z"/><path d="M430.91,170l0.8-1.48a0.66,0.66,0,0,1,1-.19,7.87,7.87,0,0,0,3.53,1c1.14,0,1.86-.46,1.86-1.29,0-1-.84-1.52-2.93-2.47-2.36-1-4.33-2.47-4.33-5,0-1.9,1.56-4.18,5.21-4.18a8.53,8.53,0,0,1,4.48,1.18,0.85,0.85,0,0,1,.3,1.1L440.1,160a0.8,0.8,0,0,1-1,.3,8.69,8.69,0,0,0-3.12-.8c-1.29,0-1.71.57-1.71,1.14,0,1,.95,1.41,2.43,2.05,2.77,1.22,5.05,2.39,5.05,5.24,0,2.36-2.24,4.45-5.62,4.45a8,8,0,0,1-5-1.56A0.64,0.64,0,0,1,430.91,170Z"/><path d="M450.4,162.39a10.93,10.93,0,0,1,3,.46c0-2.39-.42-3.34-2.36-3.34a16.13,16.13,0,0,0-4.26.68,0.68,0.68,0,0,1-.84-0.61l-0.3-1.41a0.68,0.68,0,0,1,.49-0.87,15.66,15.66,0,0,1,5.24-.87c4.86,0,5.32,3,5.32,6.76v8.09a0.75,0.75,0,0,1-.72.72h-1.06a0.64,0.64,0,0,1-.65-0.53l-0.38-1a6.56,6.56,0,0,1-4.67,1.94,4.72,4.72,0,0,1-4.9-5.09C444.32,164.52,446.52,162.39,450.4,162.39Zm-0.46,7.29a4.5,4.5,0,0,0,3.42-1.9v-2.43a5.73,5.73,0,0,0-2.66-.61c-1.82,0-3.08.95-3.08,2.51A2.29,2.29,0,0,0,449.94,169.68Z"/><path d="M461.5,157.53a0.75,0.75,0,0,1,.72-0.72h1.06a0.66,0.66,0,0,1,.65.46l0.42,1.29a7.06,7.06,0,0,1,5-2.13,5.64,5.64,0,0,1,4.9,2.43,8.46,8.46,0,0,1,5.51-2.43c4.64,0,6.27,3.27,6.27,7.22v7.64a0.72,0.72,0,0,1-.72.72h-2.13a0.72,0.72,0,0,1-.72-0.72v-7.79c0-2.39-1.1-3.76-3.15-3.76a5.47,5.47,0,0,0-3.91,1.86,10.62,10.62,0,0,1,.11,1.82v7.87a0.75,0.75,0,0,1-.72.72h-2a0.72,0.72,0,0,1-.72-0.72v-7.79c0-2.43-1.1-3.76-3.23-3.76a4.31,4.31,0,0,0-3.76,2.28v9.27a0.75,0.75,0,0,1-.72.72h-2.13a0.75,0.75,0,0,1-.72-0.72V157.53Z"/><path d="M497.29,156.42a6.84,6.84,0,0,1,7,7,9.4,9.4,0,0,1-.08,1,0.7,0.7,0,0,1-.68.65H493.19a4.4,4.4,0,0,0,4.37,4.07,6.48,6.48,0,0,0,3.38-1.1c0.46-.27.72-0.42,1,0l1.06,1.44a0.59,0.59,0,0,1-.08,1,8.73,8.73,0,0,1-5.62,1.9c-4.6,0-7.64-3.61-7.64-8S492.73,156.42,497.29,156.42Zm3.46,6.31a3.6,3.6,0,0,0-3.5-3.38,3.84,3.84,0,0,0-3.88,3.38h7.37Z"/><path d="M517.28,160h-1.6a0.72,0.72,0,0,1-.72-0.72v-1.71a0.7,0.7,0,0,1,.72-0.72h1.6v-4.22a0.75,0.75,0,0,1,.72-0.72l2.17,0a0.71,0.71,0,0,1,.68.72v4.25h3.88a0.7,0.7,0,0,1,.72.72v1.71a0.72,0.72,0,0,1-.72.72h-3.88v7.52c0,1.29.49,1.52,1.22,1.52a6.2,6.2,0,0,0,2.32-.68,0.57,0.57,0,0,1,.87.34l0.68,1.67a0.63,0.63,0,0,1-.34.91,11.66,11.66,0,0,1-4.45,1.14c-3,0-3.88-1.82-3.88-4.52V160Z"/><path d="M536,156.42a8,8,0,1,1-7.68,7.94A7.86,7.86,0,0,1,536,156.42Zm0,12.69a4.52,4.52,0,0,0,4.29-4.75,4.31,4.31,0,1,0-8.59,0A4.52,4.52,0,0,0,536,169.11Z"/><path d="M554,156.42a8,8,0,1,1-7.68,7.94A7.86,7.86,0,0,1,554,156.42Zm0,12.69a4.52,4.52,0,0,0,4.29-4.75,4.31,4.31,0,1,0-8.59,0A4.52,4.52,0,0,0,554,169.11Z"/><path d="M565.46,146.13a0.75,0.75,0,0,1,.72-0.72h2.17a0.75,0.75,0,0,1,.72.72v25.15a0.75,0.75,0,0,1-.72.72h-2.17a0.75,0.75,0,0,1-.72-0.72V146.13Z"/><path d="M573.1,170l0.8-1.48a0.66,0.66,0,0,1,1-.19,7.87,7.87,0,0,0,3.53,1c1.14,0,1.86-.46,1.86-1.29,0-1-.84-1.52-2.93-2.47-2.36-1-4.33-2.47-4.33-5,0-1.9,1.56-4.18,5.21-4.18a8.53,8.53,0,0,1,4.48,1.18,0.85,0.85,0,0,1,.3,1.1L582.3,160a0.8,0.8,0,0,1-1,.3,8.69,8.69,0,0,0-3.12-.8c-1.29,0-1.71.57-1.71,1.14,0,1,.95,1.41,2.43,2.05,2.77,1.22,5.05,2.39,5.05,5.24,0,2.36-2.24,4.45-5.62,4.45a8,8,0,0,1-5-1.56A0.64,0.64,0,0,1,573.1,170Z"/><path d="M589.63,167.1c1.41,0,3.15,1,3.15,4.22a9.81,9.81,0,0,1-3.76,7.6,0.57,0.57,0,0,1-.91,0l-0.57-.57a0.64,0.64,0,0,1,.19-1,7,7,0,0,0,2.7-5.17,4.2,4.2,0,0,1-.95.15,2.65,2.65,0,0,1-2.62-2.62A2.72,2.72,0,0,1,589.63,167.1Z"/><path d="M39.65,202h-1.6a0.72,0.72,0,0,1-.72-0.72v-1.71a0.7,0.7,0,0,1,.72-0.72h1.6v-4.22a0.75,0.75,0,0,1,.72-0.72l2.17,0a0.71,0.71,0,0,1,.68.72v4.25H47.1a0.7,0.7,0,0,1,.72.72v1.71a0.72,0.72,0,0,1-.72.72H43.22v7.52c0,1.29.49,1.52,1.22,1.52a6.2,6.2,0,0,0,2.32-.68,0.57,0.57,0,0,1,.87.34l0.68,1.67a0.63,0.63,0,0,1-.34.91,11.66,11.66,0,0,1-4.45,1.14c-3,0-3.88-1.82-3.88-4.52V202Z"/><path d="M51.81,188.13a0.75,0.75,0,0,1,.72-0.72h2.2a0.75,0.75,0,0,1,.72.72v11.93A7.83,7.83,0,0,1,60,198.42c4.29,0,6.35,3.08,6.35,7.22v7.64a0.75,0.75,0,0,1-.72.72H63.51a0.72,0.72,0,0,1-.72-0.72v-7.71c0-2.47-1.25-3.84-3.23-3.84a4.69,4.69,0,0,0-4.1,2.39v9.16a0.69,0.69,0,0,1-.76.72H52.53a0.75,0.75,0,0,1-.72-0.72V188.13Z"/><path d="M77.61,198.42a6.84,6.84,0,0,1,7,7,9.41,9.41,0,0,1-.08,1,0.7,0.7,0,0,1-.68.65H73.51a4.4,4.4,0,0,0,4.37,4.07,6.48,6.48,0,0,0,3.38-1.1c0.46-.27.72-0.42,1,0l1.06,1.44a0.59,0.59,0,0,1-.08,1,8.73,8.73,0,0,1-5.62,1.9c-4.6,0-7.64-3.61-7.64-8S73,198.42,77.61,198.42Zm3.46,6.31a3.6,3.6,0,0,0-3.5-3.38,3.84,3.84,0,0,0-3.88,3.38h7.37Z"/><path d="M95.7,212l0.8-1.48a0.66,0.66,0,0,1,1-.19,7.87,7.87,0,0,0,3.53,1c1.14,0,1.86-.46,1.86-1.29,0-1-.84-1.52-2.93-2.47-2.36-1-4.33-2.47-4.33-5,0-1.9,1.56-4.18,5.21-4.18a8.53,8.53,0,0,1,4.48,1.18,0.85,0.85,0,0,1,.3,1.1L104.89,202a0.8,0.8,0,0,1-1,.3,8.69,8.69,0,0,0-3.12-.8c-1.29,0-1.71.57-1.71,1.14,0,1,.95,1.41,2.43,2.05,2.77,1.22,5.05,2.39,5.05,5.24,0,2.36-2.24,4.45-5.62,4.45a8,8,0,0,1-5-1.56A0.64,0.64,0,0,1,95.7,212Z"/><path d="M115.19,204.39a10.93,10.93,0,0,1,3,.46c0-2.39-.42-3.34-2.36-3.34a16.13,16.13,0,0,0-4.26.68,0.68,0.68,0,0,1-.84-0.61l-0.3-1.41a0.68,0.68,0,0,1,.49-0.87,15.66,15.66,0,0,1,5.24-.87c4.86,0,5.32,3,5.32,6.76v8.09a0.75,0.75,0,0,1-.72.72h-1.06a0.64,0.64,0,0,1-.65-0.53l-0.38-1a6.56,6.56,0,0,1-4.67,1.94,4.72,4.72,0,0,1-4.9-5.09C109.11,206.52,111.31,204.39,115.19,204.39Zm-0.46,7.29a4.5,4.5,0,0,0,3.42-1.9v-2.43a5.73,5.73,0,0,0-2.66-.61c-1.82,0-3.08.95-3.08,2.51A2.29,2.29,0,0,0,114.73,211.68Z"/><path d="M126.29,199.53a0.75,0.75,0,0,1,.72-0.72h1.06a0.66,0.66,0,0,1,.65.46l0.42,1.29a7.06,7.06,0,0,1,5-2.13,5.64,5.64,0,0,1,4.9,2.43,8.46,8.46,0,0,1,5.51-2.43c4.64,0,6.27,3.27,6.27,7.22v7.64a0.72,0.72,0,0,1-.72.72H148a0.72,0.72,0,0,1-.72-0.72v-7.79c0-2.39-1.1-3.76-3.15-3.76a5.47,5.47,0,0,0-3.91,1.86,10.62,10.62,0,0,1,.11,1.82v7.87a0.75,0.75,0,0,1-.72.72h-2a0.72,0.72,0,0,1-.72-0.72v-7.79c0-2.43-1.1-3.76-3.23-3.76a4.31,4.31,0,0,0-3.76,2.28v9.27a0.75,0.75,0,0,1-.72.72H127a0.75,0.75,0,0,1-.72-0.72V199.53Z"/><path d="M162.08,198.42a6.84,6.84,0,0,1,7,7,9.4,9.4,0,0,1-.08,1,0.7,0.7,0,0,1-.68.65H158a4.4,4.4,0,0,0,4.37,4.07,6.48,6.48,0,0,0,3.38-1.1c0.46-.27.72-0.42,1,0l1.06,1.44a0.59,0.59,0,0,1-.08,1,8.73,8.73,0,0,1-5.62,1.9c-4.6,0-7.64-3.61-7.64-8S157.52,198.42,162.08,198.42Zm3.46,6.31a3.6,3.6,0,0,0-3.5-3.38,3.84,3.84,0,0,0-3.88,3.38h7.37Z"/><path d="M181.08,199.53a0.75,0.75,0,0,1,.72-0.72h1.1a0.72,0.72,0,0,1,.65.53l0.42,1.29a5.41,5.41,0,0,1,4.45-2.2c1.44,0,3.19.38,2.77,1.41l-0.91,1.86a0.65,0.65,0,0,1-.91.34,3.49,3.49,0,0,0-1.29-.27,4,4,0,0,0-3.42,1.86v9.65c0,0.65-.42.72-1,0.72H181.8a0.75,0.75,0,0,1-.72-0.72V199.53Z"/><path d="M193.62,199.53a0.75,0.75,0,0,1,.72-0.72h2.17a0.75,0.75,0,0,1,.72.72v7.79c0,2.47,1.18,3.8,3.12,3.8a4,4,0,0,0,3.76-2.51v-9.08c0-.61.3-0.72,0.84-0.72h2a0.75,0.75,0,0,1,.72.72v13.75a0.75,0.75,0,0,1-.72.72h-1.06a0.73,0.73,0,0,1-.68-0.61l-0.38-1.1a6.88,6.88,0,0,1-5,2.09c-4.56,0-6.16-3.23-6.16-7.18v-7.68Z"/><path d="M212.58,188.13a0.75,0.75,0,0,1,.72-0.72h2.17a0.75,0.75,0,0,1,.72.72v25.15a0.75,0.75,0,0,1-.72.72h-2.17a0.75,0.75,0,0,1-.72-0.72V188.13Z"/><path d="M227.63,198.42a6.84,6.84,0,0,1,7,7,9.41,9.41,0,0,1-.08,1,0.7,0.7,0,0,1-.68.65H223.53a4.4,4.4,0,0,0,4.37,4.07,6.48,6.48,0,0,0,3.38-1.1c0.46-.27.72-0.42,1,0l1.06,1.44a0.59,0.59,0,0,1-.08,1,8.73,8.73,0,0,1-5.62,1.9c-4.6,0-7.64-3.61-7.64-8S223.07,198.42,227.63,198.42Zm3.46,6.31a3.6,3.6,0,0,0-3.5-3.38,3.84,3.84,0,0,0-3.88,3.38h7.37Z"/><path d="M237.36,212l0.8-1.48a0.66,0.66,0,0,1,1-.19,7.87,7.87,0,0,0,3.53,1c1.14,0,1.86-.46,1.86-1.29,0-1-.84-1.52-2.93-2.47-2.36-1-4.33-2.47-4.33-5,0-1.9,1.56-4.18,5.21-4.18a8.53,8.53,0,0,1,4.48,1.18,0.85,0.85,0,0,1,.3,1.1L246.55,202a0.8,0.8,0,0,1-1,.3,8.69,8.69,0,0,0-3.12-.8c-1.29,0-1.71.57-1.71,1.14,0,1,.95,1.41,2.43,2.05,2.77,1.22,5.05,2.39,5.05,5.24,0,2.36-2.24,4.45-5.62,4.45a8,8,0,0,1-5-1.56A0.64,0.64,0,0,1,237.36,212Z"/><path d="M253.89,209.1c1.41,0,3.15,1,3.15,4.22a9.81,9.81,0,0,1-3.76,7.6,0.57,0.57,0,0,1-.91,0l-0.57-.57a0.64,0.64,0,0,1,.19-1,7,7,0,0,0,2.7-5.17,4.2,4.2,0,0,1-.95.15,2.65,2.65,0,0,1-2.62-2.62A2.72,2.72,0,0,1,253.89,209.1Z"/><path d="M268.06,199.68a0.55,0.55,0,0,1,.53-0.87h2.05a0.75,0.75,0,0,1,.68.46l2.55,8.4h0L278,198.8a0.72,0.72,0,0,1,.65-0.38h0.23a0.67,0.67,0,0,1,.65.38l4,8.89h0l2.51-8.43a1.14,1.14,0,0,1,1.18-.46h1.48a0.57,0.57,0,0,1,.57.87L284.86,214a0.68,0.68,0,0,1-.68.38H284a0.69,0.69,0,0,1-.65-0.34L278.7,203.9h0L274,214a0.63,0.63,0,0,1-.61.34h-0.19a0.66,0.66,0,0,1-.65-0.38Z"/><path d="M299.3,198.42a6.84,6.84,0,0,1,7,7,9.4,9.4,0,0,1-.08,1,0.7,0.7,0,0,1-.68.65H295.19a4.4,4.4,0,0,0,4.37,4.07,6.48,6.48,0,0,0,3.38-1.1c0.46-.27.72-0.42,1,0l1.06,1.44a0.59,0.59,0,0,1-.08,1,8.73,8.73,0,0,1-5.62,1.9c-4.6,0-7.64-3.61-7.64-8S294.74,198.42,299.3,198.42Zm3.46,6.31a3.6,3.6,0,0,0-3.5-3.38,3.84,3.84,0,0,0-3.88,3.38h7.37Z"/><path d="M318.3,199.53a0.75,0.75,0,0,1,.72-0.72h1.1a0.62,0.62,0,0,1,.61.46l0.46,1.29a7.77,7.77,0,0,1,5.32-2.13c4.64,0,6.35,3.27,6.35,7.22v7.64a0.75,0.75,0,0,1-.72.72H330a0.72,0.72,0,0,1-.72-0.72v-7.79c0-2.43-1.18-3.76-3.15-3.76a5,5,0,0,0-4.22,2.28v9.27c0,0.49-.23.72-0.87,0.72h-2a0.75,0.75,0,0,1-.72-0.72V199.53Z"/><path d="M344.1,198.42a6.84,6.84,0,0,1,7,7,9.41,9.41,0,0,1-.08,1,0.7,0.7,0,0,1-.68.65H340a4.4,4.4,0,0,0,4.37,4.07,6.48,6.48,0,0,0,3.38-1.1c0.46-.27.72-0.42,1,0l1.06,1.44a0.59,0.59,0,0,1-.08,1,8.73,8.73,0,0,1-5.62,1.9c-4.6,0-7.64-3.61-7.64-8S339.54,198.42,344.1,198.42Zm3.46,6.31a3.6,3.6,0,0,0-3.5-3.38,3.84,3.84,0,0,0-3.88,3.38h7.37Z"/><path d="M352.69,199.68a0.56,0.56,0,0,1,.57-0.87h2.24a0.7,0.7,0,0,1,.68.42l4,9h0l4.1-9a1,1,0,0,1,1-.42H367a0.56,0.56,0,0,1,.57.87L360.89,214a0.67,0.67,0,0,1-.65.38h-0.19a0.67,0.67,0,0,1-.65-0.38Z"/><path d="M377,198.42a6.84,6.84,0,0,1,7,7,9.4,9.4,0,0,1-.08,1,0.7,0.7,0,0,1-.68.65H372.9a4.4,4.4,0,0,0,4.37,4.07,6.48,6.48,0,0,0,3.38-1.1c0.46-.27.72-0.42,1,0l1.06,1.44a0.59,0.59,0,0,1-.08,1,8.73,8.73,0,0,1-5.62,1.9c-4.6,0-7.64-3.61-7.64-8S372.44,198.42,377,198.42Zm3.46,6.31a3.6,3.6,0,0,0-3.5-3.38,3.84,3.84,0,0,0-3.88,3.38h7.37Z"/><path d="M387.64,199.53a0.75,0.75,0,0,1,.72-0.72h1.1a0.72,0.72,0,0,1,.65.53l0.42,1.29a5.41,5.41,0,0,1,4.45-2.2c1.44,0,3.19.38,2.77,1.41l-0.91,1.86a0.65,0.65,0,0,1-.91.34,3.49,3.49,0,0,0-1.29-.27,4,4,0,0,0-3.42,1.86v9.65c0,0.65-.42.72-1,0.72h-1.82a0.75,0.75,0,0,1-.72-0.72V199.53Z"/><path d="M409.76,202h-1.6a0.72,0.72,0,0,1-.72-0.72v-1.71a0.7,0.7,0,0,1,.72-0.72h1.6v-4.22a0.75,0.75,0,0,1,.72-0.72l2.17,0a0.71,0.71,0,0,1,.68.72v4.25h3.88a0.7,0.7,0,0,1,.72.72v1.71a0.72,0.72,0,0,1-.72.72h-3.88v7.52c0,1.29.49,1.52,1.22,1.52a6.2,6.2,0,0,0,2.32-.68,0.57,0.57,0,0,1,.87.34l0.68,1.67a0.63,0.63,0,0,1-.34.91,11.66,11.66,0,0,1-4.45,1.14c-3,0-3.88-1.82-3.88-4.52V202Z"/><path d="M421.92,199.53a0.75,0.75,0,0,1,.72-0.72h1.1a0.72,0.72,0,0,1,.65.53l0.42,1.29a5.41,5.41,0,0,1,4.45-2.2c1.44,0,3.19.38,2.77,1.41l-0.91,1.86a0.65,0.65,0,0,1-.91.34,3.49,3.49,0,0,0-1.29-.27,4,4,0,0,0-3.42,1.86v9.65c0,0.65-.42.72-1,0.72h-1.82a0.75,0.75,0,0,1-.72-0.72V199.53Z"/><path d="M434.46,199.53a0.75,0.75,0,0,1,.72-0.72h2.17a0.75,0.75,0,0,1,.72.72v7.79c0,2.47,1.18,3.8,3.12,3.8a4,4,0,0,0,3.76-2.51v-9.08c0-.61.3-0.72,0.84-0.72h2a0.75,0.75,0,0,1,.72.72v13.75a0.75,0.75,0,0,1-.72.72h-1.06a0.73,0.73,0,0,1-.68-0.61l-0.38-1.1a6.88,6.88,0,0,1-5,2.09c-4.56,0-6.16-3.23-6.16-7.18v-7.68Z"/><path d="M453.42,188.13a0.75,0.75,0,0,1,.72-0.72h2.17a0.75,0.75,0,0,1,.72.72v25.15a0.75,0.75,0,0,1-.72.72h-2.17a0.75,0.75,0,0,1-.72-0.72V188.13Z"/><path d="M459.92,199.79a0.67,0.67,0,0,1,.65-1h2.51a0.83,0.83,0,0,1,.65.42l4.71,10.11h0L473,199.22a0.77,0.77,0,0,1,.8-0.42H476a0.65,0.65,0,0,1,.65,1L465,224.95a0.76,0.76,0,0,1-.65.46h-2.28a0.68,0.68,0,0,1-.65-1l5.09-10.9Z"/><path d="M487.92,188.13a0.75,0.75,0,0,1,.72-0.72h2.2a0.75,0.75,0,0,1,.72.72v16.45l5.93-5.32a1.5,1.5,0,0,1,.95-0.46h2.66a0.59,0.59,0,0,1,.42,1l-6.31,5.74,7.45,7.45a0.56,0.56,0,0,1-.42,1h-3.12a1,1,0,0,1-.68-0.3l-6.88-7.07v6.65a0.75,0.75,0,0,1-.72.72h-2.2a0.75,0.75,0,0,1-.72-0.72V188.13Z"/><path d="M505.67,199.53a0.75,0.75,0,0,1,.72-0.72h1.1a0.62,0.62,0,0,1,.61.46l0.46,1.29a7.77,7.77,0,0,1,5.32-2.13c4.64,0,6.35,3.27,6.35,7.22v7.64a0.75,0.75,0,0,1-.72.72h-2.17a0.72,0.72,0,0,1-.72-0.72v-7.79c0-2.43-1.18-3.76-3.15-3.76a5,5,0,0,0-4.22,2.28v9.27c0,0.49-.23.72-0.87,0.72h-2a0.75,0.75,0,0,1-.72-0.72V199.53Z"/><path d="M531.51,198.42a8,8,0,1,1-7.68,7.94A7.86,7.86,0,0,1,531.51,198.42Zm0,12.69a4.52,4.52,0,0,0,4.29-4.75,4.31,4.31,0,1,0-8.59,0A4.52,4.52,0,0,0,531.51,211.11Z"/><path d="M541.54,199.68a0.55,0.55,0,0,1,.53-0.87h2.05a0.75,0.75,0,0,1,.68.46l2.55,8.4h0l4.07-8.85a0.72,0.72,0,0,1,.65-0.38h0.23a0.67,0.67,0,0,1,.65.38l4,8.89h0l2.51-8.43a1.14,1.14,0,0,1,1.18-.46h1.48a0.57,0.57,0,0,1,.57.87L558.34,214a0.68,0.68,0,0,1-.68.38H557.5a0.69,0.69,0,0,1-.65-0.34l-4.67-10.14h0L547.51,214a0.63,0.63,0,0,1-.61.34h-0.19a0.66,0.66,0,0,1-.65-0.38Z"/><path d="M10.12,244H8.53a0.72,0.72,0,0,1-.72-0.72v-1.71a0.7,0.7,0,0,1,.72-0.72h1.6v-4.22a0.75,0.75,0,0,1,.72-0.72l2.17,0a0.71,0.71,0,0,1,.68.72v4.25h3.88a0.7,0.7,0,0,1,.72.72v1.71a0.72,0.72,0,0,1-.72.72H13.69v7.52c0,1.29.49,1.52,1.22,1.52a6.18,6.18,0,0,0,2.32-.68,0.57,0.57,0,0,1,.87.34l0.68,1.67a0.63,0.63,0,0,1-.34.91A11.66,11.66,0,0,1,14,256.38c-3,0-3.88-1.82-3.88-4.52V244Z"/><path d="M22.28,230.13a0.75,0.75,0,0,1,.72-0.72h2.2a0.75,0.75,0,0,1,.72.72v11.93a7.83,7.83,0,0,1,4.56-1.63c4.29,0,6.35,3.08,6.35,7.22v7.64a0.75,0.75,0,0,1-.72.72H34a0.72,0.72,0,0,1-.72-0.72v-7.71c0-2.47-1.25-3.84-3.23-3.84a4.69,4.69,0,0,0-4.1,2.39v9.16a0.69,0.69,0,0,1-.76.72H23a0.75,0.75,0,0,1-.72-0.72V230.13Z"/><path d="M48.08,240.42a6.84,6.84,0,0,1,7,7,9.44,9.44,0,0,1-.08,1,0.7,0.7,0,0,1-.68.65H44a4.4,4.4,0,0,0,4.37,4.07,6.49,6.49,0,0,0,3.38-1.1c0.46-.27.72-0.42,1,0l1.06,1.44a0.59,0.59,0,0,1-.08,1,8.73,8.73,0,0,1-5.62,1.9c-4.6,0-7.64-3.61-7.64-8S43.52,240.42,48.08,240.42Zm3.46,6.31a3.6,3.6,0,0,0-3.5-3.38,3.85,3.85,0,0,0-3.88,3.38h7.37Z"/><path d="M73.58,240.42a6.84,6.84,0,0,1,7,7,9.44,9.44,0,0,1-.08,1,0.7,0.7,0,0,1-.68.65H69.48a4.4,4.4,0,0,0,4.37,4.07,6.49,6.49,0,0,0,3.38-1.1c0.46-.27.72-0.42,1,0l1.06,1.44a0.59,0.59,0,0,1-.08,1,8.73,8.73,0,0,1-5.62,1.9c-4.6,0-7.64-3.61-7.64-8S69,240.42,73.58,240.42ZM77,246.73a3.6,3.6,0,0,0-3.5-3.38,3.85,3.85,0,0,0-3.88,3.38H77Z"/><path d="M85.4,244H83.58a0.72,0.72,0,0,1-.72-0.72v-1.71a0.7,0.7,0,0,1,.72-0.72H85.4V237c0-5.21,3.5-7.56,7.45-7.56A8.08,8.08,0,0,1,97.94,231a6.19,6.19,0,0,1,4.79-2,6.83,6.83,0,0,1,4.33,1.52,0.7,0.7,0,0,1,.15.87l-0.95,1.71a0.6,0.6,0,0,1-.95.11,5.17,5.17,0,0,0-2.51-.91c-1.67,0-2.85,1.22-2.85,3.76v4.71h4.1a0.7,0.7,0,0,1,.72.72v1.71a0.72,0.72,0,0,1-.72.72H100v11.32a0.75,0.75,0,0,1-.72.72H97a0.75,0.75,0,0,1-.72-0.72V244H89.09v11.32a0.75,0.75,0,0,1-.72.72H86.12a0.75,0.75,0,0,1-.72-0.72V244Zm10.87-3.15v-4.71a8.39,8.39,0,0,1,.23-2A5.28,5.28,0,0,0,93,232.71c-2,0-3.88,1.25-3.88,4.26v3.84h7.18Z"/><path d="M114.32,240.42a6.84,6.84,0,0,1,7,7,9.44,9.44,0,0,1-.08,1,0.7,0.7,0,0,1-.68.65H110.21a4.4,4.4,0,0,0,4.37,4.07,6.49,6.49,0,0,0,3.38-1.1c0.46-.27.72-0.42,1,0l1.06,1.44a0.59,0.59,0,0,1-.08,1,8.73,8.73,0,0,1-5.62,1.9c-4.6,0-7.64-3.61-7.64-8S109.76,240.42,114.32,240.42Zm3.46,6.31a3.6,3.6,0,0,0-3.5-3.38,3.85,3.85,0,0,0-3.88,3.38h7.37Z"/><path d="M131.8,240.42a6.73,6.73,0,0,1,5.51,2.7,0.74,0.74,0,0,1-.15,1.06l-1.25,1.14c-0.46.42-.72,0.11-1-0.15a4.22,4.22,0,0,0-3-1.44,4.69,4.69,0,1,0,3.5,7.64,0.69,0.69,0,0,1,1-.08l1,0.84a0.74,0.74,0,0,1,.27,1.06,6.74,6.74,0,0,1-5.89,3.19,7.91,7.91,0,0,1-7.94-7.94A8.09,8.09,0,0,1,131.8,240.42Z"/><path d="M142.44,244h-1.6a0.72,0.72,0,0,1-.72-0.72v-1.71a0.7,0.7,0,0,1,.72-0.72h1.6v-4.22a0.75,0.75,0,0,1,.72-0.72l2.17,0a0.71,0.71,0,0,1,.68.72v4.25h3.88a0.7,0.7,0,0,1,.72.72v1.71a0.72,0.72,0,0,1-.72.72H146v7.52c0,1.29.49,1.52,1.22,1.52a6.18,6.18,0,0,0,2.32-.68,0.57,0.57,0,0,1,.87.34l0.68,1.67a0.63,0.63,0,0,1-.34.91,11.66,11.66,0,0,1-4.45,1.14c-3,0-3.88-1.82-3.88-4.52V244Z"/><path d="M153.68,254l0.8-1.48a0.66,0.66,0,0,1,1-.19,7.87,7.87,0,0,0,3.53,1c1.14,0,1.86-.46,1.86-1.29,0-1-.84-1.52-2.93-2.47-2.36-1-4.33-2.47-4.33-5,0-1.9,1.56-4.18,5.21-4.18a8.52,8.52,0,0,1,4.48,1.18,0.85,0.85,0,0,1,.3,1.1L162.88,244a0.8,0.8,0,0,1-1,.3,8.69,8.69,0,0,0-3.12-.8c-1.29,0-1.71.57-1.71,1.14,0,1,.95,1.41,2.43,2.05,2.77,1.22,5.05,2.39,5.05,5.24,0,2.36-2.24,4.45-5.62,4.45a8,8,0,0,1-5-1.56A0.64,0.64,0,0,1,153.68,254Z"/><path d="M183.09,240.42a8,8,0,1,1-7.68,7.94A7.86,7.86,0,0,1,183.09,240.42Zm0,12.69a4.52,4.52,0,0,0,4.29-4.75,4.31,4.31,0,1,0-8.59,0A4.52,4.52,0,0,0,183.09,253.11Z"/><path d="M195.75,244H194a0.72,0.72,0,0,1-.72-0.72v-1.71a0.7,0.7,0,0,1,.72-0.72h1.79v-4.71c0-4.71,2.81-7.07,6.46-7.07a6.83,6.83,0,0,1,4.33,1.52,0.71,0.71,0,0,1,.15.87l-0.95,1.71a0.6,0.6,0,0,1-1,.11,5.17,5.17,0,0,0-2.51-.91c-1.67,0-2.85,1.22-2.85,3.76v4.71h4.1a0.7,0.7,0,0,1,.72.72v1.71a0.72,0.72,0,0,1-.72.72h-4.1v11.32a0.75,0.75,0,0,1-.72.72h-2.24a0.75,0.75,0,0,1-.72-0.72V244Z"/><path d="M222.2,240.42a8,8,0,1,1-7.68,7.94A7.86,7.86,0,0,1,222.2,240.42Zm0,12.69a4.52,4.52,0,0,0,4.29-4.75,4.31,4.31,0,1,0-8.59,0A4.52,4.52,0,0,0,222.2,253.11Z"/><path d="M233.44,241.53a0.75,0.75,0,0,1,.72-0.72h2.17a0.75,0.75,0,0,1,.72.72v7.79c0,2.47,1.18,3.8,3.12,3.8a4,4,0,0,0,3.76-2.51v-9.08c0-.61.3-0.72,0.84-0.72h2a0.75,0.75,0,0,1,.72.72v13.75a0.75,0.75,0,0,1-.72.72h-1.06a0.73,0.73,0,0,1-.68-0.61l-0.38-1.1a6.88,6.88,0,0,1-5,2.09c-4.56,0-6.16-3.23-6.16-7.18v-7.67Z"/><path d="M252.41,241.53a0.75,0.75,0,0,1,.72-0.72h1.1a0.72,0.72,0,0,1,.65.53l0.42,1.29a5.41,5.41,0,0,1,4.45-2.2c1.44,0,3.19.38,2.77,1.41l-0.91,1.86a0.65,0.65,0,0,1-.91.34,3.47,3.47,0,0,0-1.29-.27,4,4,0,0,0-3.42,1.86v9.65c0,0.65-.42.72-1,0.72h-1.82a0.75,0.75,0,0,1-.72-0.72V241.53Z"/><path d="M278.51,246.39a10.93,10.93,0,0,1,3,.46c0-2.39-.42-3.34-2.36-3.34a16.17,16.17,0,0,0-4.26.68,0.68,0.68,0,0,1-.84-0.61l-0.3-1.41a0.68,0.68,0,0,1,.49-0.87,15.69,15.69,0,0,1,5.24-.87c4.86,0,5.32,3,5.32,6.76v8.09a0.75,0.75,0,0,1-.72.72H283a0.64,0.64,0,0,1-.65-0.53l-0.38-1a6.56,6.56,0,0,1-4.67,1.94,4.72,4.72,0,0,1-4.9-5.09C272.43,248.52,274.63,246.39,278.51,246.39Zm-0.46,7.29a4.49,4.49,0,0,0,3.42-1.9v-2.43a5.73,5.73,0,0,0-2.66-.61c-1.82,0-3.08,1-3.08,2.51A2.29,2.29,0,0,0,278.05,253.69Z"/><path d="M296.45,240.42a6.73,6.73,0,0,1,5.51,2.7,0.74,0.74,0,0,1-.15,1.06l-1.25,1.14c-0.46.42-.72,0.11-1-0.15a4.22,4.22,0,0,0-3-1.44,4.69,4.69,0,1,0,3.5,7.64,0.69,0.69,0,0,1,1-.08l1,0.84a0.74,0.74,0,0,1,.27,1.06,6.74,6.74,0,0,1-5.89,3.19,7.91,7.91,0,0,1-7.94-7.94A8.09,8.09,0,0,1,296.45,240.42Z"/><path d="M307.09,244h-1.6a0.72,0.72,0,0,1-.72-0.72v-1.71a0.7,0.7,0,0,1,.72-0.72h1.6v-4.22a0.75,0.75,0,0,1,.72-0.72l2.17,0a0.71,0.71,0,0,1,.68.72v4.25h3.88a0.7,0.7,0,0,1,.72.72v1.71a0.72,0.72,0,0,1-.72.72h-3.88v7.52c0,1.29.49,1.52,1.22,1.52a6.18,6.18,0,0,0,2.32-.68,0.57,0.57,0,0,1,.87.34l0.68,1.67a0.63,0.63,0,0,1-.34.91,11.66,11.66,0,0,1-4.45,1.14c-3,0-3.88-1.82-3.88-4.52V244Z"/><path d="M318.83,232.41a2.18,2.18,0,0,1,2.17-2.24,2.22,2.22,0,1,1,0,4.45A2.17,2.17,0,0,1,318.83,232.41Zm0.42,9.12a0.75,0.75,0,0,1,.72-0.72h2.17a0.75,0.75,0,0,1,.72.72v13.75a0.75,0.75,0,0,1-.72.72H320a0.75,0.75,0,0,1-.72-0.72V241.53Z"/><path d="M334.33,240.42a8,8,0,1,1-7.68,7.94A7.86,7.86,0,0,1,334.33,240.42Zm0,12.69a4.52,4.52,0,0,0,4.29-4.75,4.31,4.31,0,1,0-8.59,0A4.52,4.52,0,0,0,334.33,253.11Z"/><path d="M345.81,241.53a0.75,0.75,0,0,1,.72-0.72h1.1a0.62,0.62,0,0,1,.61.46l0.46,1.29a7.77,7.77,0,0,1,5.32-2.13c4.64,0,6.35,3.27,6.35,7.22v7.64a0.75,0.75,0,0,1-.72.72h-2.17a0.72,0.72,0,0,1-.72-0.72v-7.79c0-2.43-1.18-3.76-3.15-3.76a5,5,0,0,0-4.22,2.28v9.27c0,0.49-.23.72-0.87,0.72h-2a0.75,0.75,0,0,1-.72-0.72V241.53Z"/><path d="M364.2,254l0.8-1.48a0.66,0.66,0,0,1,1-.19,7.87,7.87,0,0,0,3.53,1c1.14,0,1.86-.46,1.86-1.29,0-1-.84-1.52-2.93-2.47-2.36-1-4.33-2.47-4.33-5,0-1.9,1.56-4.18,5.21-4.18a8.52,8.52,0,0,1,4.48,1.18,0.85,0.85,0,0,1,.3,1.1L373.4,244a0.8,0.8,0,0,1-1,.3,8.69,8.69,0,0,0-3.12-.8c-1.29,0-1.71.57-1.71,1.14,0,1,.95,1.41,2.43,2.05,2.77,1.22,5.05,2.39,5.05,5.24,0,2.36-2.24,4.45-5.62,4.45a8,8,0,0,1-5-1.56A0.64,0.64,0,0,1,364.2,254Z"/><path d="M380.73,251.1c1.41,0,3.15,1,3.15,4.22a9.81,9.81,0,0,1-3.76,7.6,0.57,0.57,0,0,1-.91,0l-0.57-.57a0.64,0.64,0,0,1,.19-0.95,7,7,0,0,0,2.7-5.17,4.2,4.2,0,0,1-.95.15,2.65,2.65,0,0,1-2.62-2.62A2.72,2.72,0,0,1,380.73,251.1Z"/><path d="M396.35,230.13a0.75,0.75,0,0,1,.72-0.72h2.2a0.75,0.75,0,0,1,.72.72v11.13a9.16,9.16,0,0,1,3.65-.84,7.67,7.67,0,0,1,7.48,8c0,4.37-3.08,8-7.1,8a6.79,6.79,0,0,1-4.83-2.13l-0.3,1.1a0.76,0.76,0,0,1-.68.65h-1.14a0.75,0.75,0,0,1-.72-0.72V230.13Zm7.22,23c2.43,0,4-2.17,4-4.71a4.41,4.41,0,0,0-4.33-4.67,6.49,6.49,0,0,0-3.31.87v6.23A4.09,4.09,0,0,0,403.57,253.11Z"/><path d="M414.74,241.53a0.75,0.75,0,0,1,.72-0.72h2.17a0.75,0.75,0,0,1,.72.72v7.79c0,2.47,1.18,3.8,3.12,3.8a4,4,0,0,0,3.76-2.51v-9.08c0-.61.3-0.72,0.84-0.72h2a0.75,0.75,0,0,1,.72.72v13.75a0.75,0.75,0,0,1-.72.72H427a0.73,0.73,0,0,1-.68-0.61l-0.38-1.1a6.88,6.88,0,0,1-5,2.09c-4.56,0-6.16-3.23-6.16-7.18v-7.67Z"/><path d="M434.69,244h-1.6a0.72,0.72,0,0,1-.72-0.72v-1.71a0.7,0.7,0,0,1,.72-0.72h1.6v-4.22a0.75,0.75,0,0,1,.72-0.72l2.17,0a0.71,0.71,0,0,1,.68.72v4.25h3.88a0.7,0.7,0,0,1,.72.72v1.71a0.72,0.72,0,0,1-.72.72h-3.88v7.52c0,1.29.49,1.52,1.22,1.52a6.18,6.18,0,0,0,2.32-.68,0.57,0.57,0,0,1,.87.34l0.68,1.67a0.63,0.63,0,0,1-.34.91,11.66,11.66,0,0,1-4.45,1.14c-3,0-3.88-1.82-3.88-4.52V244Z"/><path d="M461.74,240.42a8,8,0,1,1-7.68,7.94A7.86,7.86,0,0,1,461.74,240.42Zm0,12.69a4.52,4.52,0,0,0,4.29-4.75,4.31,4.31,0,1,0-8.59,0A4.52,4.52,0,0,0,461.74,253.11Z"/><path d="M473.22,241.53a0.75,0.75,0,0,1,.72-0.72H475a0.62,0.62,0,0,1,.61.46l0.46,1.29a7.77,7.77,0,0,1,5.32-2.13c4.64,0,6.35,3.27,6.35,7.22v7.64a0.75,0.75,0,0,1-.72.72h-2.17a0.72,0.72,0,0,1-.72-0.72v-7.79c0-2.43-1.18-3.76-3.15-3.76a5,5,0,0,0-4.22,2.28v9.27c0,0.49-.23.72-0.87,0.72h-2a0.75,0.75,0,0,1-.72-0.72V241.53Z"/><path d="M499,240.42a6.84,6.84,0,0,1,7,7,9.44,9.44,0,0,1-.08,1,0.7,0.7,0,0,1-.68.65H494.92a4.4,4.4,0,0,0,4.37,4.07,6.49,6.49,0,0,0,3.38-1.1c0.46-.27.72-0.42,1,0l1.06,1.44a0.59,0.59,0,0,1-.08,1,8.73,8.73,0,0,1-5.62,1.9c-4.6,0-7.64-3.61-7.64-8S494.46,240.42,499,240.42Zm3.46,6.31a3.6,3.6,0,0,0-3.5-3.38,3.85,3.85,0,0,0-3.88,3.38h7.37Z"/><path d="M519,244h-1.6a0.72,0.72,0,0,1-.72-0.72v-1.71a0.7,0.7,0,0,1,.72-0.72H519v-4.22a0.75,0.75,0,0,1,.72-0.72l2.17,0a0.71,0.71,0,0,1,.68.72v4.25h3.88a0.7,0.7,0,0,1,.72.72v1.71a0.72,0.72,0,0,1-.72.72h-3.88v7.52c0,1.29.49,1.52,1.22,1.52a6.18,6.18,0,0,0,2.32-.68,0.57,0.57,0,0,1,.87.34l0.68,1.67a0.63,0.63,0,0,1-.34.91,11.66,11.66,0,0,1-4.45,1.14c-3,0-3.88-1.82-3.88-4.52V244Z"/><path d="M531.17,230.13a0.75,0.75,0,0,1,.72-0.72h2.2a0.75,0.75,0,0,1,.72.72v11.93a7.83,7.83,0,0,1,4.56-1.63c4.29,0,6.35,3.08,6.35,7.22v7.64a0.75,0.75,0,0,1-.72.72h-2.13a0.72,0.72,0,0,1-.72-0.72v-7.71c0-2.47-1.25-3.84-3.23-3.84a4.69,4.69,0,0,0-4.1,2.39v9.16a0.69,0.69,0,0,1-.76.72h-2.17a0.75,0.75,0,0,1-.72-0.72V230.13Z"/><path d="M550.05,232.41a2.18,2.18,0,0,1,2.17-2.24,2.22,2.22,0,1,1,0,4.45A2.17,2.17,0,0,1,550.05,232.41Zm0.42,9.12a0.75,0.75,0,0,1,.72-0.72h2.17a0.75,0.75,0,0,1,.72.72v13.75a0.75,0.75,0,0,1-.72.72h-2.17a0.75,0.75,0,0,1-.72-0.72V241.53Z"/><path d="M559,241.53a0.75,0.75,0,0,1,.72-0.72h1.1a0.62,0.62,0,0,1,.61.46l0.46,1.29a7.77,7.77,0,0,1,5.32-2.13c4.64,0,6.35,3.27,6.35,7.22v7.64a0.75,0.75,0,0,1-.72.72h-2.17a0.72,0.72,0,0,1-.72-0.72v-7.79c0-2.43-1.18-3.76-3.15-3.76a5,5,0,0,0-4.22,2.28v9.27c0,0.49-.23.72-0.87,0.72h-2a0.75,0.75,0,0,1-.72-0.72V241.53Z"/><path d="M579.5,250.76a6.1,6.1,0,0,1-1.18-3.69,6.51,6.51,0,0,1,6.54-6.65h6.65a0.7,0.7,0,0,1,.72.72v0.95a0.63,0.63,0,0,1-.42.65l-2.09.57a5.09,5.09,0,0,1,1.63,4.07,6.21,6.21,0,0,1-6.46,6.19,11.16,11.16,0,0,1-3.31-.61,2.09,2.09,0,0,0-1.56,1.86,1.62,1.62,0,0,0,1.82,1.56H587c3.31,0,6,1.79,6,5.09s-3,6.31-8.09,6.31c-5.36,0-7.52-2.74-7.52-5.21a4.19,4.19,0,0,1,2.24-3.57v-0.11a3.92,3.92,0,0,1-2.81-3.8A5.24,5.24,0,0,1,579.5,250.76Zm5.36,13.91c2.32,0,4.33-1.18,4.33-3,0-.61-0.38-2.17-2.85-2.17-1.1,0-2.24,0-3.34.08-0.23.08-2.09,0.68-2.09,2.39C580.91,263.53,582.54,264.67,584.86,264.67Zm3.27-17.52a3.2,3.2,0,0,0-3.19-3.5,3.5,3.5,0,0,0,0,7A3.2,3.2,0,0,0,588.13,247.15Z"/><path d="M54.89,283.68a0.56,0.56,0,0,1,.53-0.87h2.05a0.75,0.75,0,0,1,.68.46l2.55,8.4h0l4.07-8.85a0.72,0.72,0,0,1,.65-0.38h0.23a0.67,0.67,0,0,1,.65.38l4,8.89h0l2.51-8.44a1.14,1.14,0,0,1,1.18-.46h1.48a0.57,0.57,0,0,1,.57.87L71.68,298a0.68,0.68,0,0,1-.68.38H70.84A0.69,0.69,0,0,1,70.2,298L65.52,287.9h0L60.85,298a0.63,0.63,0,0,1-.61.34H60.05a0.66,0.66,0,0,1-.65-0.38Z"/><path d="M86.12,282.42a6.84,6.84,0,0,1,7,7,9.44,9.44,0,0,1-.08,1,0.7,0.7,0,0,1-.68.65H82a4.4,4.4,0,0,0,4.37,4.07,6.49,6.49,0,0,0,3.38-1.1c0.46-.27.72-0.42,1,0l1.06,1.44a0.59,0.59,0,0,1-.08,1,8.73,8.73,0,0,1-5.62,1.9c-4.6,0-7.64-3.61-7.64-8S81.56,282.42,86.12,282.42Zm3.46,6.31a3.6,3.6,0,0,0-3.5-3.38,3.85,3.85,0,0,0-3.88,3.38h7.37Z"/><path d="M111.5,282.42a9.16,9.16,0,0,1,3.65.84V272.13a0.75,0.75,0,0,1,.72-0.72h2.2a0.75,0.75,0,0,1,.72.72v25.15a0.75,0.75,0,0,1-.72.72h-1.14a0.76,0.76,0,0,1-.68-0.65l-0.3-1.1a6.79,6.79,0,0,1-4.83,2.13c-4,0-7.1-3.61-7.1-8A7.67,7.67,0,0,1,111.5,282.42Zm0.08,12.69a4.09,4.09,0,0,0,3.61-2.28v-6.19a6.3,6.3,0,0,0-3.31-.91,4.41,4.41,0,0,0-4.33,4.67C107.55,292.95,109.15,295.11,111.58,295.11Z"/><path d="M130.27,282.42a8,8,0,1,1-7.68,7.94A7.86,7.86,0,0,1,130.27,282.42Zm0,12.69a4.52,4.52,0,0,0,4.29-4.75,4.31,4.31,0,1,0-8.59,0A4.52,4.52,0,0,0,130.27,295.11Z"/><path d="M150.11,272.13a0.75,0.75,0,0,1,.72-0.72H153a0.75,0.75,0,0,1,.72.72v16.45l5.93-5.32a1.5,1.5,0,0,1,.95-0.46h2.66a0.59,0.59,0,0,1,.42,1l-6.31,5.74,7.45,7.45a0.56,0.56,0,0,1-.42,1h-3.12a1,1,0,0,1-.68-0.3l-6.88-7.07v6.65a0.75,0.75,0,0,1-.72.72h-2.2a0.75,0.75,0,0,1-.72-0.72V272.13Z"/><path d="M167.86,283.53a0.75,0.75,0,0,1,.72-0.72h1.1a0.62,0.62,0,0,1,.61.46l0.46,1.29a7.77,7.77,0,0,1,5.32-2.13c4.64,0,6.35,3.27,6.35,7.22v7.64a0.75,0.75,0,0,1-.72.72h-2.17a0.72,0.72,0,0,1-.72-0.72v-7.79c0-2.43-1.18-3.76-3.15-3.76a5,5,0,0,0-4.22,2.28v9.27c0,0.49-.23.72-0.87,0.72h-2a0.75,0.75,0,0,1-.72-0.72V283.53Z"/><path d="M193.7,282.42a8,8,0,1,1-7.68,7.94A7.86,7.86,0,0,1,193.7,282.42Zm0,12.69a4.52,4.52,0,0,0,4.29-4.75,4.31,4.31,0,1,0-8.59,0A4.52,4.52,0,0,0,193.7,295.11Z"/><path d="M203.73,283.68a0.56,0.56,0,0,1,.53-0.87h2.05a0.75,0.75,0,0,1,.68.46l2.55,8.4h0l4.07-8.85a0.72,0.72,0,0,1,.65-0.38h0.23a0.67,0.67,0,0,1,.65.38l4,8.89h0l2.51-8.44a1.14,1.14,0,0,1,1.18-.46h1.48a0.57,0.57,0,0,1,.57.87L220.52,298a0.68,0.68,0,0,1-.68.38h-0.15A0.69,0.69,0,0,1,219,298l-4.67-10.14h0L209.69,298a0.63,0.63,0,0,1-.61.34H208.9a0.66,0.66,0,0,1-.65-0.38Z"/><path d="M238,286h-1.79a0.72,0.72,0,0,1-.72-0.72v-1.71a0.7,0.7,0,0,1,.72-0.72H238v-4.71c0-4.71,2.81-7.07,6.46-7.07a6.83,6.83,0,0,1,4.33,1.52,0.71,0.71,0,0,1,.15.87L248,275.13a0.6,0.6,0,0,1-1,.11,5.17,5.17,0,0,0-2.51-.91c-1.67,0-2.85,1.22-2.85,3.76v4.71h4.1a0.7,0.7,0,0,1,.72.72v1.71a0.72,0.72,0,0,1-.72.72h-4.1v11.32a0.75,0.75,0,0,1-.72.72h-2.24a0.75,0.75,0,0,1-.72-0.72V286Z"/><path d="M256.09,282.42a8,8,0,1,1-7.68,7.94A7.86,7.86,0,0,1,256.09,282.42Zm0,12.69a4.52,4.52,0,0,0,4.29-4.75,4.31,4.31,0,1,0-8.59,0A4.52,4.52,0,0,0,256.09,295.11Z"/><path d="M267.57,283.53a0.75,0.75,0,0,1,.72-0.72h1.1a0.72,0.72,0,0,1,.65.53l0.42,1.29a5.41,5.41,0,0,1,4.45-2.2c1.44,0,3.19.38,2.77,1.41l-0.91,1.86a0.65,0.65,0,0,1-.91.34,3.47,3.47,0,0,0-1.29-.27,4,4,0,0,0-3.42,1.86v9.65c0,0.65-.42.72-1,0.72h-1.82a0.75,0.75,0,0,1-.72-0.72V283.53Z"/><path d="M295.53,282.42a6.73,6.73,0,0,1,5.51,2.7,0.74,0.74,0,0,1-.15,1.06l-1.25,1.14c-0.46.42-.72,0.11-1-0.15a4.22,4.22,0,0,0-3-1.44,4.69,4.69,0,1,0,3.5,7.64,0.69,0.69,0,0,1,1-.08l1,0.84a0.74,0.74,0,0,1,.27,1.06,6.74,6.74,0,0,1-5.89,3.19,7.91,7.91,0,0,1-7.94-7.94A8.09,8.09,0,0,1,295.53,282.42Z"/><path d="M311.68,282.42a6.84,6.84,0,0,1,7,7,9.44,9.44,0,0,1-.08,1,0.7,0.7,0,0,1-.68.65H307.58a4.4,4.4,0,0,0,4.37,4.07,6.49,6.49,0,0,0,3.38-1.1c0.46-.27.72-0.42,1,0l1.06,1.44a0.59,0.59,0,0,1-.08,1,8.73,8.73,0,0,1-5.62,1.9c-4.6,0-7.64-3.61-7.64-8S307.12,282.42,311.68,282.42Zm3.46,6.31a3.6,3.6,0,0,0-3.5-3.38,3.85,3.85,0,0,0-3.88,3.38h7.37Z"/><path d="M322.32,283.53a0.75,0.75,0,0,1,.72-0.72h1.1a0.72,0.72,0,0,1,.65.53l0.42,1.29a5.41,5.41,0,0,1,4.45-2.2c1.44,0,3.19.38,2.77,1.41l-0.91,1.86a0.65,0.65,0,0,1-.91.34,3.47,3.47,0,0,0-1.29-.27,4,4,0,0,0-3.42,1.86v9.65c0,0.65-.42.72-1,0.72H323a0.75,0.75,0,0,1-.72-0.72V283.53Z"/><path d="M336.08,286h-1.6a0.72,0.72,0,0,1-.72-0.72v-1.71a0.7,0.7,0,0,1,.72-0.72h1.6v-4.22a0.75,0.75,0,0,1,.72-0.72l2.17,0a0.71,0.71,0,0,1,.68.72v4.25h3.88a0.7,0.7,0,0,1,.72.72v1.71a0.72,0.72,0,0,1-.72.72h-3.88v7.52c0,1.29.49,1.52,1.22,1.52a6.18,6.18,0,0,0,2.32-.68,0.57,0.57,0,0,1,.87.34l0.68,1.67a0.63,0.63,0,0,1-.34.91,11.66,11.66,0,0,1-4.45,1.14c-3,0-3.88-1.82-3.88-4.52V286Z"/><path d="M353.22,288.39a10.93,10.93,0,0,1,3,.46c0-2.39-.42-3.34-2.36-3.34a16.17,16.17,0,0,0-4.26.68,0.68,0.68,0,0,1-.84-0.61l-0.3-1.41a0.68,0.68,0,0,1,.49-0.87,15.69,15.69,0,0,1,5.24-.87c4.86,0,5.32,3,5.32,6.76v8.09a0.75,0.75,0,0,1-.72.72h-1.06a0.64,0.64,0,0,1-.65-0.53l-0.38-1a6.56,6.56,0,0,1-4.67,1.94,4.72,4.72,0,0,1-4.9-5.09C347.14,290.52,349.34,288.39,353.22,288.39Zm-0.46,7.29a4.49,4.49,0,0,0,3.42-1.9v-2.43a5.73,5.73,0,0,0-2.66-.61c-1.82,0-3.08,1-3.08,2.51A2.29,2.29,0,0,0,352.76,295.69Z"/><path d="M363.9,274.41a2.18,2.18,0,0,1,2.17-2.24,2.22,2.22,0,1,1,0,4.45A2.17,2.17,0,0,1,363.9,274.41Zm0.42,9.12a0.75,0.75,0,0,1,.72-0.72h2.17a0.75,0.75,0,0,1,.72.72v13.75a0.75,0.75,0,0,1-.72.72H365a0.75,0.75,0,0,1-.72-0.72V283.53Z"/><path d="M372.86,283.53a0.75,0.75,0,0,1,.72-0.72h1.1a0.62,0.62,0,0,1,.61.46l0.46,1.29a7.77,7.77,0,0,1,5.32-2.13c4.64,0,6.35,3.27,6.35,7.22v7.64a0.75,0.75,0,0,1-.72.72h-2.17a0.72,0.72,0,0,1-.72-0.72v-7.79c0-2.43-1.18-3.76-3.15-3.76a5,5,0,0,0-4.22,2.28v9.27c0,0.49-.23.72-0.87,0.72h-2a0.75,0.75,0,0,1-.72-0.72V283.53Z"/><path d="M391.94,284.89a2.47,2.47,0,0,1,2.47-2.47A2.45,2.45,0,1,1,391.94,284.89Zm2.47,8.59a2.45,2.45,0,1,1-2.47,2.47A2.46,2.46,0,0,1,394.41,293.48Z"/><path d="M410.9,286h-1.6a0.72,0.72,0,0,1-.72-0.72v-1.71a0.7,0.7,0,0,1,.72-0.72h1.6v-4.22a0.75,0.75,0,0,1,.72-0.72l2.17,0a0.71,0.71,0,0,1,.68.72v4.25h3.88a0.7,0.7,0,0,1,.72.72v1.71a0.72,0.72,0,0,1-.72.72h-3.88v7.52c0,1.29.49,1.52,1.22,1.52a6.18,6.18,0,0,0,2.32-.68,0.57,0.57,0,0,1,.87.34l0.68,1.67a0.63,0.63,0,0,1-.34.91,11.66,11.66,0,0,1-4.45,1.14c-3,0-3.88-1.82-3.88-4.52V286Z"/><path d="M423.06,272.13a0.75,0.75,0,0,1,.72-0.72H426a0.75,0.75,0,0,1,.72.72v11.93a7.83,7.83,0,0,1,4.56-1.63c4.29,0,6.35,3.08,6.35,7.22v7.64a0.75,0.75,0,0,1-.72.72h-2.13a0.72,0.72,0,0,1-.72-0.72v-7.71c0-2.47-1.25-3.84-3.23-3.84a4.69,4.69,0,0,0-4.1,2.39v9.16a0.69,0.69,0,0,1-.76.72h-2.17a0.75,0.75,0,0,1-.72-0.72V272.13Z"/><path d="M448.86,282.42a6.84,6.84,0,0,1,7,7,9.44,9.44,0,0,1-.08,1,0.7,0.7,0,0,1-.68.65H444.76a4.4,4.4,0,0,0,4.37,4.07,6.49,6.49,0,0,0,3.38-1.1c0.46-.27.72-0.42,1,0l1.06,1.44a0.59,0.59,0,0,1-.08,1,8.73,8.73,0,0,1-5.62,1.9c-4.6,0-7.64-3.61-7.64-8S444.3,282.42,448.86,282.42Zm3.46,6.31a3.6,3.6,0,0,0-3.5-3.38,3.85,3.85,0,0,0-3.88,3.38h7.37Z"/><path d="M471.51,308.68a0.7,0.7,0,0,1-.8.72h-2.13a0.75,0.75,0,0,1-.72-0.72V283.53a0.75,0.75,0,0,1,.72-0.72h1.14a0.67,0.67,0,0,1,.65.49l0.38,1a6.43,6.43,0,0,1,4.64-1.86c4.18,0,7.26,3.65,7.26,8s-3.27,7.94-7.41,7.94a7.61,7.61,0,0,1-3.72-1v11.32Zm3.27-13.56a4.44,4.44,0,0,0,4.33-4.67c0-2.55-1.6-4.71-4.18-4.71a3.88,3.88,0,0,0-3.5,2.2V294A5.63,5.63,0,0,0,474.78,295.11Z"/><path d="M491.46,288.39a10.93,10.93,0,0,1,3,.46c0-2.39-.42-3.34-2.36-3.34a16.17,16.17,0,0,0-4.26.68,0.68,0.68,0,0,1-.84-0.61l-0.3-1.41a0.68,0.68,0,0,1,.49-0.87,15.69,15.69,0,0,1,5.24-.87c4.86,0,5.32,3,5.32,6.76v8.09a0.75,0.75,0,0,1-.72.72H496a0.64,0.64,0,0,1-.65-0.53l-0.38-1a6.56,6.56,0,0,1-4.67,1.94,4.72,4.72,0,0,1-4.9-5.09C485.38,290.52,487.58,288.39,491.46,288.39ZM491,295.69a4.49,4.49,0,0,0,3.42-1.9v-2.43a5.73,5.73,0,0,0-2.66-.61c-1.82,0-3.08,1-3.08,2.51A2.29,2.29,0,0,0,491,295.69Z"/><path d="M503.54,286h-1.6a0.72,0.72,0,0,1-.72-0.72v-1.71a0.7,0.7,0,0,1,.72-0.72h1.6v-4.22a0.75,0.75,0,0,1,.72-0.72l2.17,0a0.71,0.71,0,0,1,.68.72v4.25H511a0.7,0.7,0,0,1,.72.72v1.71a0.72,0.72,0,0,1-.72.72h-3.88v7.52c0,1.29.49,1.52,1.22,1.52a6.18,6.18,0,0,0,2.32-.68,0.57,0.57,0,0,1,.87.34l0.68,1.67a0.63,0.63,0,0,1-.34.91,11.66,11.66,0,0,1-4.45,1.14c-3,0-3.88-1.82-3.88-4.52V286Z"/><path d="M515.7,272.13a0.75,0.75,0,0,1,.72-0.72h2.2a0.75,0.75,0,0,1,.72.72v11.93a7.83,7.83,0,0,1,4.56-1.63c4.29,0,6.35,3.08,6.35,7.22v7.64a0.75,0.75,0,0,1-.72.72H527.4a0.72,0.72,0,0,1-.72-0.72v-7.71c0-2.47-1.25-3.84-3.23-3.84a4.69,4.69,0,0,0-4.1,2.39v9.16a0.69,0.69,0,0,1-.76.72h-2.17a0.75,0.75,0,0,1-.72-0.72V272.13Z"/><path d="M534.09,296l0.8-1.48a0.66,0.66,0,0,1,1-.19,7.87,7.87,0,0,0,3.53,1c1.14,0,1.86-.46,1.86-1.29,0-1-.84-1.52-2.93-2.47-2.36-1-4.33-2.47-4.33-5,0-1.9,1.56-4.18,5.21-4.18a8.52,8.52,0,0,1,4.48,1.18,0.85,0.85,0,0,1,.3,1.1L543.29,286a0.8,0.8,0,0,1-1,.3,8.69,8.69,0,0,0-3.12-.8c-1.29,0-1.71.57-1.71,1.14,0,1,.95,1.41,2.43,2.05,2.77,1.22,5.05,2.39,5.05,5.24,0,2.36-2.24,4.45-5.62,4.45a8,8,0,0,1-5-1.56A0.64,0.64,0,0,1,534.09,296Z"/><path d="M149.83,325.68a0.56,0.56,0,0,1,.53-0.87h2.05a0.75,0.75,0,0,1,.68.46l2.55,8.4h0l4.07-8.85a0.72,0.72,0,0,1,.65-0.38h0.23a0.67,0.67,0,0,1,.65.38l4,8.89h0l2.51-8.44a1.14,1.14,0,0,1,1.18-.46h1.48a0.57,0.57,0,0,1,.57.87L166.62,340a0.68,0.68,0,0,1-.68.38h-0.15a0.69,0.69,0,0,1-.65-0.34l-4.67-10.14h0L155.79,340a0.63,0.63,0,0,1-.61.34H155a0.66,0.66,0,0,1-.65-0.38Z"/><path d="M181.06,324.42a6.84,6.84,0,0,1,7,7,9.44,9.44,0,0,1-.08,1,0.7,0.7,0,0,1-.68.65H177a4.4,4.4,0,0,0,4.37,4.07,6.49,6.49,0,0,0,3.38-1.1c0.46-.27.72-0.42,1,0l1.06,1.44a0.59,0.59,0,0,1-.08,1,8.73,8.73,0,0,1-5.62,1.9c-4.6,0-7.64-3.61-7.64-8S176.5,324.42,181.06,324.42Zm3.46,6.31a3.6,3.6,0,0,0-3.5-3.38,3.85,3.85,0,0,0-3.88,3.38h7.37Z"/><path d="M201,328h-1.6a0.72,0.72,0,0,1-.72-0.72v-1.71a0.7,0.7,0,0,1,.72-0.72H201v-4.22a0.75,0.75,0,0,1,.72-0.72l2.17,0a0.71,0.71,0,0,1,.68.72v4.25h3.88a0.7,0.7,0,0,1,.72.72v1.71a0.72,0.72,0,0,1-.72.72h-3.88v7.52c0,1.29.49,1.52,1.22,1.52a6.18,6.18,0,0,0,2.32-.68,0.57,0.57,0,0,1,.87.34l0.68,1.67a0.63,0.63,0,0,1-.34.91,11.66,11.66,0,0,1-4.45,1.14c-3,0-3.88-1.82-3.88-4.52V328Z"/><path d="M218.19,330.39a10.93,10.93,0,0,1,3,.46c0-2.39-.42-3.34-2.36-3.34a16.17,16.17,0,0,0-4.26.68,0.68,0.68,0,0,1-.84-0.61l-0.3-1.41a0.68,0.68,0,0,1,.49-0.87,15.69,15.69,0,0,1,5.24-.87c4.86,0,5.32,3,5.32,6.76v8.09a0.75,0.75,0,0,1-.72.72h-1.06a0.64,0.64,0,0,1-.65-0.53l-0.38-1a6.56,6.56,0,0,1-4.67,1.94,4.72,4.72,0,0,1-4.9-5.09C212.11,332.52,214.31,330.39,218.19,330.39Zm-0.46,7.29a4.49,4.49,0,0,0,3.42-1.9v-2.43a5.73,5.73,0,0,0-2.66-.61c-1.82,0-3.08,1-3.08,2.51A2.29,2.29,0,0,0,217.73,337.69Z"/><path d="M229.28,314.13a0.75,0.75,0,0,1,.72-0.72h2.2a0.75,0.75,0,0,1,.72.72v16.45l5.93-5.32a1.5,1.5,0,0,1,.95-0.46h2.66a0.59,0.59,0,0,1,.42,1l-6.31,5.74L244,339a0.56,0.56,0,0,1-.42,1h-3.12a1,1,0,0,1-.68-0.3l-6.88-7.07v6.65a0.75,0.75,0,0,1-.72.72H230a0.75,0.75,0,0,1-.72-0.72V314.13Z"/><path d="M253.26,324.42a6.84,6.84,0,0,1,7,7,9.44,9.44,0,0,1-.08,1,0.7,0.7,0,0,1-.68.65H249.16a4.4,4.4,0,0,0,4.37,4.07,6.49,6.49,0,0,0,3.38-1.1c0.46-.27.72-0.42,1,0l1.06,1.44a0.59,0.59,0,0,1-.08,1,8.73,8.73,0,0,1-5.62,1.9c-4.6,0-7.64-3.61-7.64-8S248.7,324.42,253.26,324.42Zm3.46,6.31a3.6,3.6,0,0,0-3.5-3.38,3.85,3.85,0,0,0-3.88,3.38h7.37Z"/><path d="M277.24,330.39a10.93,10.93,0,0,1,3,.46c0-2.39-.42-3.34-2.36-3.34a16.17,16.17,0,0,0-4.26.68,0.68,0.68,0,0,1-.84-0.61l-0.3-1.41a0.68,0.68,0,0,1,.49-0.87,15.69,15.69,0,0,1,5.24-.87c4.86,0,5.32,3,5.32,6.76v8.09a0.75,0.75,0,0,1-.72.72h-1.06a0.64,0.64,0,0,1-.65-0.53l-0.38-1a6.56,6.56,0,0,1-4.67,1.94,4.72,4.72,0,0,1-4.9-5.09C271.16,332.52,273.36,330.39,277.24,330.39Zm-0.46,7.29a4.49,4.49,0,0,0,3.42-1.9v-2.43a5.73,5.73,0,0,0-2.66-.61c-1.82,0-3.08,1-3.08,2.51A2.29,2.29,0,0,0,276.78,337.69Z"/><path d="M288.33,325.53a0.75,0.75,0,0,1,.72-0.72h1.1a0.72,0.72,0,0,1,.65.53l0.42,1.29a5.41,5.41,0,0,1,4.45-2.2c1.44,0,3.19.38,2.77,1.41l-0.91,1.86a0.65,0.65,0,0,1-.91.34,3.47,3.47,0,0,0-1.29-.27,4,4,0,0,0-3.42,1.86v9.65c0,0.65-.42.72-1,0.72h-1.82a0.75,0.75,0,0,1-.72-0.72V325.53Z"/><path d="M307.48,324.42a6.84,6.84,0,0,1,7,7,9.44,9.44,0,0,1-.08,1,0.7,0.7,0,0,1-.68.65H303.38a4.4,4.4,0,0,0,4.37,4.07,6.49,6.49,0,0,0,3.38-1.1c0.46-.27.72-0.42,1,0l1.06,1.44a0.59,0.59,0,0,1-.08,1,8.73,8.73,0,0,1-5.62,1.9c-4.6,0-7.64-3.61-7.64-8S302.93,324.42,307.48,324.42Zm3.46,6.31a3.6,3.6,0,0,0-3.5-3.38,3.85,3.85,0,0,0-3.88,3.38h7.37Z"/><path d="M333,324.42a8,8,0,1,1-7.68,7.94A7.86,7.86,0,0,1,333,324.42Zm0,12.69a4.52,4.52,0,0,0,4.29-4.75,4.31,4.31,0,1,0-8.59,0A4.52,4.52,0,0,0,333,337.11Z"/><path d="M344.27,325.53a0.75,0.75,0,0,1,.72-0.72h2.17a0.75,0.75,0,0,1,.72.72v7.79c0,2.47,1.18,3.8,3.12,3.8a4,4,0,0,0,3.76-2.51v-9.08c0-.61.3-0.72,0.84-0.72h2a0.75,0.75,0,0,1,.72.72v13.75a0.75,0.75,0,0,1-.72.72H356.5a0.73,0.73,0,0,1-.68-0.61l-0.38-1.1a6.88,6.88,0,0,1-5,2.09c-4.56,0-6.16-3.23-6.16-7.18v-7.67Z"/><path d="M363.23,325.53a0.75,0.75,0,0,1,.72-0.72h1.1a0.72,0.72,0,0,1,.65.53l0.42,1.29a5.41,5.41,0,0,1,4.45-2.2c1.44,0,3.19.38,2.77,1.41l-0.91,1.86a0.65,0.65,0,0,1-.91.34,3.47,3.47,0,0,0-1.29-.27,4,4,0,0,0-3.42,1.86v9.65c0,0.65-.42.72-1,0.72H364a0.75,0.75,0,0,1-.72-0.72V325.53Z"/><path d="M390.89,324.42a8,8,0,1,1-7.68,7.94A7.86,7.86,0,0,1,390.89,324.42Zm0,12.69a4.52,4.52,0,0,0,4.29-4.75,4.31,4.31,0,1,0-8.59,0A4.52,4.52,0,0,0,390.89,337.11Z"/><path d="M400.93,325.68a0.56,0.56,0,0,1,.53-0.87h2.05a0.75,0.75,0,0,1,.68.46l2.55,8.4h0l4.07-8.85a0.72,0.72,0,0,1,.65-0.38h0.23a0.67,0.67,0,0,1,.65.38l4,8.89h0l2.51-8.44a1.14,1.14,0,0,1,1.18-.46h1.48a0.57,0.57,0,0,1,.57.87L417.72,340a0.68,0.68,0,0,1-.68.38h-0.15a0.69,0.69,0,0,1-.65-0.34l-4.67-10.14h0L406.89,340a0.63,0.63,0,0,1-.61.34h-0.19a0.66,0.66,0,0,1-.65-0.38Z"/><path d="M425.66,325.53a0.75,0.75,0,0,1,.72-0.72h1.1a0.62,0.62,0,0,1,.61.46l0.46,1.29a7.77,7.77,0,0,1,5.32-2.13c4.64,0,6.35,3.27,6.35,7.22v7.64a0.75,0.75,0,0,1-.72.72h-2.17a0.72,0.72,0,0,1-.72-0.72v-7.79c0-2.43-1.18-3.76-3.15-3.76a5,5,0,0,0-4.22,2.28v9.27c0,0.49-.23.72-0.87,0.72h-2a0.75,0.75,0,0,1-.72-0.72V325.53Z"/><path d="M446.83,335.1a2.64,2.64,0,1,1-2.62,2.66A2.64,2.64,0,0,1,446.83,335.1Z"/><path class="cls-1" d="M179.57,382.83c11.07,0,11.07,11.52,22.15,11.52s11.07-11.52,22.15-11.52,11.07,11.52,22.15,11.52,11.07-11.52,22.15-11.52,11.07,11.52,22.15,11.52,11.08-11.52,22.15-11.52,11.08,11.52,22.15,11.52,11.08-11.52,22.15-11.52,11.08,11.52,22.15,11.52,11.08-11.52,22.16-11.52,11.08,11.52,22.16,11.52"/></svg>