<svg id="Layer_1" data-name="Layer 1" xmlns="http://www.w3.org/2000/svg" viewBox="0 0 600 400"><defs><style>.cls-1{fill:none;stroke:#000;stroke-linecap:round;stroke-linejoin:round;stroke-width:8px;}</style></defs><title>type</title><path d="M35,82.78H32.63a1,1,0,0,1-1-.95V79.58a0.92,0.92,0,0,1,1-.95H35v-6.2c0-6.2,3.7-9.3,8.5-9.3a9,9,0,0,1,5.7,2,0.93,0.93,0,0,1,.2,1.15l-1.25,2.25a0.79,0.79,0,0,1-1.25.15,6.8,6.8,0,0,0-3.3-1.2c-2.2,0-3.75,1.6-3.75,5v6.2h5.4a0.92,0.92,0,0,1,1,.95v2.25a1,1,0,0,1-1,.95h-5.4v14.9a1,1,0,0,1-.95,1h-3a1,1,0,0,1-1-1V82.78Z"/><path d="M50.18,79.58a1,1,0,0,1,1-.95h1.45a1,1,0,0,1,.85.7L54,81a7.13,7.13,0,0,1,5.85-2.9c1.9,0,4.2.5,3.65,1.85l-1.2,2.45a0.85,0.85,0,0,1-1.2.45,4.58,4.58,0,0,0-1.7-.35A5.27,5.27,0,0,0,54.88,85v12.7c0,0.85-.55,1-1.35,1h-2.4a1,1,0,0,1-1-1V79.58Z"/><path d="M75.43,78.13a10.51,10.51,0,1,1-10.1,10.45A10.34,10.34,0,0,1,75.43,78.13Zm0,16.7c3.15,0,5.65-2.8,5.65-6.25a5.67,5.67,0,1,0-11.3,0C69.78,92,72.28,94.83,75.43,94.83Z"/><path d="M90.53,79.58a1,1,0,0,1,1-.95h1.4a0.87,0.87,0,0,1,.85.6l0.55,1.7a9.29,9.29,0,0,1,6.6-2.8,7.42,7.42,0,0,1,6.45,3.2,11.14,11.14,0,0,1,7.25-3.2c6.1,0,8.25,4.3,8.25,9.5V97.68a1,1,0,0,1-1,1h-2.8a1,1,0,0,1-.95-1V87.43c0-3.15-1.45-5-4.15-5a7.2,7.2,0,0,0-5.15,2.45,14,14,0,0,1,.15,2.4V97.68a1,1,0,0,1-.95,1h-2.65a1,1,0,0,1-1-1V87.43c0-3.2-1.45-5-4.25-5a5.67,5.67,0,0,0-5,3v12.2a1,1,0,0,1-1,1h-2.8a1,1,0,0,1-1-1V79.58Z"/><path d="M141.38,82.78h-2.1a1,1,0,0,1-1-.95V79.58a0.92,0.92,0,0,1,1-.95h2.1V73.08a1,1,0,0,1,1-.95l2.85-.05a0.94,0.94,0,0,1,.9,1v5.6h5.1a0.92,0.92,0,0,1,.95.95v2.25a1,1,0,0,1-.95.95h-5.1v9.9c0,1.7.65,2,1.6,2a8.15,8.15,0,0,0,3.05-.9,0.75,0.75,0,0,1,1.15.45l0.9,2.2a0.83,0.83,0,0,1-.45,1.2,15.34,15.34,0,0,1-5.85,1.5c-4,0-5.1-2.4-5.1-6V82.78Z"/><path d="M157.38,64.58a1,1,0,0,1,1-.95h2.9a1,1,0,0,1,.95.95v15.7a10.3,10.3,0,0,1,6-2.15c5.65,0,8.35,4.05,8.35,9.5V97.68a1,1,0,0,1-1,1h-2.8a1,1,0,0,1-1-1V87.53c0-3.25-1.65-5.05-4.25-5.05a6.18,6.18,0,0,0-5.4,3.15V97.68a0.91,0.91,0,0,1-1,1h-2.85a1,1,0,0,1-1-1V64.58Z"/><path d="M182.23,67.58a2.87,2.87,0,0,1,2.85-3,2.93,2.93,0,1,1,0,5.85A2.86,2.86,0,0,1,182.23,67.58Zm0.55,12a1,1,0,0,1,1-.95h2.85a1,1,0,0,1,1,.95v18.1a1,1,0,0,1-1,1h-2.85a1,1,0,0,1-1-1V79.58Z"/><path d="M192.83,96l1-2a0.86,0.86,0,0,1,1.25-.25,10.36,10.36,0,0,0,4.65,1.3c1.5,0,2.45-.6,2.45-1.7,0-1.35-1.1-2-3.85-3.25-3.1-1.35-5.7-3.25-5.7-6.55,0-2.5,2.05-5.5,6.85-5.5a11.21,11.21,0,0,1,5.9,1.55,1.12,1.12,0,0,1,.4,1.45l-0.9,1.7a1.05,1.05,0,0,1-1.3.4,11.42,11.42,0,0,0-4.1-1.05c-1.7,0-2.25.75-2.25,1.5,0,1.3,1.25,1.85,3.2,2.7,3.65,1.6,6.65,3.15,6.65,6.9,0,3.1-3,5.85-7.4,5.85a10.49,10.49,0,0,1-6.6-2.05A0.84,0.84,0,0,1,192.83,96Z"/><path d="M224.23,82.78h-2.1a1,1,0,0,1-1-.95V79.58a0.92,0.92,0,0,1,1-.95h2.1V73.08a1,1,0,0,1,1-.95l2.85-.05a0.94,0.94,0,0,1,.9,1v5.6H234a0.92,0.92,0,0,1,.95.95v2.25a1,1,0,0,1-.95.95h-5.1v9.9c0,1.7.65,2,1.6,2a8.15,8.15,0,0,0,3.05-.9,0.75,0.75,0,0,1,1.15.45l0.9,2.2a0.83,0.83,0,0,1-.45,1.2,15.34,15.34,0,0,1-5.85,1.5c-4,0-5.1-2.4-5.1-6V82.78Z"/><path d="M248.83,78.13a10.51,10.51,0,1,1-10.1,10.45A10.34,10.34,0,0,1,248.83,78.13Zm0,16.7c3.15,0,5.65-2.8,5.65-6.25a5.67,5.67,0,1,0-11.3,0C243.18,92,245.68,94.83,248.83,94.83Z"/><path d="M276.23,82.78h-2.1a1,1,0,0,1-1-.95V79.58a0.92,0.92,0,0,1,1-.95h2.1V73.08a1,1,0,0,1,1-.95l2.85-.05a0.94,0.94,0,0,1,.9,1v5.6H286a0.92,0.92,0,0,1,.95.95v2.25a1,1,0,0,1-.95.95h-5.1v9.9c0,1.7.65,2,1.6,2a8.15,8.15,0,0,0,3.05-.9,0.75,0.75,0,0,1,1.15.45l0.9,2.2a0.83,0.83,0,0,1-.45,1.2,15.34,15.34,0,0,1-5.85,1.5c-4,0-5.1-2.4-5.1-6V82.78Z"/><path d="M292.23,64.58a1,1,0,0,1,1-.95h2.9a1,1,0,0,1,.95.95v15.7a10.3,10.3,0,0,1,6-2.15c5.65,0,8.35,4.05,8.35,9.5V97.68a1,1,0,0,1-1,1h-2.8a1,1,0,0,1-1-1V87.53c0-3.25-1.65-5.05-4.25-5.05a6.18,6.18,0,0,0-5.4,3.15V97.68a0.91,0.91,0,0,1-1,1h-2.85a1,1,0,0,1-1-1V64.58Z"/><path d="M324.18,86a14.39,14.39,0,0,1,4,.6c0-3.15-.55-4.4-3.1-4.4a21.24,21.24,0,0,0-5.6.9,0.9,0.9,0,0,1-1.1-.8l-0.4-1.85a0.9,0.9,0,0,1,.65-1.15,20.63,20.63,0,0,1,6.9-1.15c6.4,0,7,3.9,7,8.9V97.68a1,1,0,0,1-1,1h-1.4a0.84,0.84,0,0,1-.85-0.7l-0.5-1.35a8.63,8.63,0,0,1-6.15,2.55c-3.75,0-6.45-2.55-6.45-6.7C316.18,88.78,319.08,86,324.18,86Zm-0.6,9.6a5.92,5.92,0,0,0,4.5-2.5v-3.2a7.52,7.52,0,0,0-3.5-.8c-2.4,0-4.05,1.25-4.05,3.3A3,3,0,0,0,323.58,95.58Z"/><path d="M340.08,82.78H338a1,1,0,0,1-1-.95V79.58a0.92,0.92,0,0,1,1-.95h2.1V73.08a1,1,0,0,1,1-.95l2.85-.05a0.94,0.94,0,0,1,.9,1v5.6h5.1a0.92,0.92,0,0,1,.95.95v2.25a1,1,0,0,1-.95.95h-5.1v9.9c0,1.7.65,2,1.6,2a8.15,8.15,0,0,0,3.05-.9,0.75,0.75,0,0,1,1.15.45l0.9,2.2a0.83,0.83,0,0,1-.45,1.2,15.34,15.34,0,0,1-5.85,1.5c-4,0-5.1-2.4-5.1-6V82.78Z"/><path d="M358.73,92.18c1.85,0,4.15,1.25,4.15,5.55a12.91,12.91,0,0,1-5,10,0.75,0.75,0,0,1-1.2,0L356,107a0.84,0.84,0,0,1,.25-1.25c0.55-.5,3.55-2.9,3.55-6.8a5.52,5.52,0,0,1-1.25.2,3.49,3.49,0,0,1-3.45-3.45A3.58,3.58,0,0,1,358.73,92.18Z"/><path d="M380.82,82.78h-2.35a1,1,0,0,1-1-.95V79.58a0.92,0.92,0,0,1,1-.95h2.35v-6.2c0-6.2,3.7-9.3,8.5-9.3a9,9,0,0,1,5.7,2,0.93,0.93,0,0,1,.2,1.15L394,68.53a0.79,0.79,0,0,1-1.25.15,6.8,6.8,0,0,0-3.3-1.2c-2.2,0-3.75,1.6-3.75,5v6.2h5.4a0.92,0.92,0,0,1,1,.95v2.25a1,1,0,0,1-1,.95h-5.4v14.9a1,1,0,0,1-.95,1h-3a1,1,0,0,1-1-1V82.78Z"/><path d="M396,79.58a1,1,0,0,1,1-.95h1.45a1,1,0,0,1,.85.7l0.55,1.7a7.13,7.13,0,0,1,5.85-2.9c1.9,0,4.2.5,3.65,1.85l-1.2,2.45a0.85,0.85,0,0,1-1.2.45,4.58,4.58,0,0,0-1.7-.35,5.27,5.27,0,0,0-4.5,2.45v12.7c0,0.85-.55,1-1.35,1H397a1,1,0,0,1-1-1V79.58Z"/><path d="M421.27,78.13a10.51,10.51,0,1,1-10.1,10.45A10.34,10.34,0,0,1,421.27,78.13Zm0,16.7c3.15,0,5.65-2.8,5.65-6.25a5.67,5.67,0,1,0-11.3,0C415.62,92,418.12,94.83,421.27,94.83Z"/><path d="M436.37,79.58a1,1,0,0,1,1-.95h1.4a0.87,0.87,0,0,1,.85.6l0.55,1.7a9.29,9.29,0,0,1,6.6-2.8,7.42,7.42,0,0,1,6.45,3.2,11.14,11.14,0,0,1,7.25-3.2c6.1,0,8.25,4.3,8.25,9.5V97.68a1,1,0,0,1-1,1h-2.8a1,1,0,0,1-.95-1V87.43c0-3.15-1.45-5-4.15-5a7.2,7.2,0,0,0-5.15,2.45,14,14,0,0,1,.15,2.4V97.68a1,1,0,0,1-.95,1h-2.65a1,1,0,0,1-1-1V87.43c0-3.2-1.45-5-4.25-5a5.67,5.67,0,0,0-5,3v12.2a1,1,0,0,1-1,1h-2.8a1,1,0,0,1-1-1V79.58Z"/><path d="M485.92,64.58a1,1,0,0,1,1-.95h2.9a1,1,0,0,1,.95.95v15.7a10.3,10.3,0,0,1,6-2.15c5.65,0,8.35,4.05,8.35,9.5V97.68a1,1,0,0,1-1,1h-2.8a1,1,0,0,1-1-1V87.53c0-3.25-1.65-5.05-4.25-5.05a6.17,6.17,0,0,0-5.4,3.15V97.68a0.91,0.91,0,0,1-1,1h-2.85a1,1,0,0,1-1-1V64.58Z"/><path d="M519.87,78.13a9,9,0,0,1,9.2,9.25,12.32,12.32,0,0,1-.1,1.35,0.92,0.92,0,0,1-.9.85h-13.6a5.79,5.79,0,0,0,5.75,5.35,8.53,8.53,0,0,0,4.45-1.45c0.6-.35,1-0.55,1.35,0l1.4,1.9a0.78,0.78,0,0,1-.1,1.3,11.49,11.49,0,0,1-7.4,2.5c-6.05,0-10.05-4.75-10.05-10.5S513.87,78.13,519.87,78.13Zm4.55,8.3a4.73,4.73,0,0,0-4.6-4.45,5.06,5.06,0,0,0-5.1,4.45h9.7Z"/><path d="M533.87,79.58a1,1,0,0,1,1-.95h1.45a1,1,0,0,1,.85.7l0.55,1.7a7.13,7.13,0,0,1,5.85-2.9c1.9,0,4.2.5,3.65,1.85L546,82.43a0.85,0.85,0,0,1-1.2.45,4.58,4.58,0,0,0-1.7-.35,5.27,5.27,0,0,0-4.5,2.45v12.7c0,0.85-.55,1-1.35,1h-2.4a1,1,0,0,1-1-1V79.58Z"/><path d="M559.07,78.13a9,9,0,0,1,9.2,9.25,12.32,12.32,0,0,1-.1,1.35,0.92,0.92,0,0,1-.9.85h-13.6a5.79,5.79,0,0,0,5.75,5.35,8.53,8.53,0,0,0,4.45-1.45c0.6-.35,1-0.55,1.35,0l1.4,1.9a0.78,0.78,0,0,1-.1,1.3,11.49,11.49,0,0,1-7.4,2.5c-6.05,0-10.05-4.75-10.05-10.5S553.07,78.13,559.07,78.13Zm4.55,8.3A4.73,4.73,0,0,0,559,82a5.06,5.06,0,0,0-5.1,4.45h9.7Z"/><path d="M57.88,132.78h-2.1a1,1,0,0,1-1-.95v-2.25a0.92,0.92,0,0,1,1-.95h2.1v-5.55a1,1,0,0,1,1-.95l2.85-.05a0.94,0.94,0,0,1,.9,1v5.6h5.1a0.92,0.92,0,0,1,.95.95v2.25a1,1,0,0,1-.95.95h-5.1v9.9c0,1.7.65,2,1.6,2a8.15,8.15,0,0,0,3.05-.9,0.75,0.75,0,0,1,1.15.45l0.9,2.2a0.83,0.83,0,0,1-.45,1.2,15.34,15.34,0,0,1-5.85,1.5c-4,0-5.1-2.4-5.1-6v-10.4Z"/><path d="M82.48,128.13a10.51,10.51,0,1,1-10.1,10.45A10.34,10.34,0,0,1,82.48,128.13Zm0,16.7c3.15,0,5.65-2.8,5.65-6.25a5.67,5.67,0,1,0-11.3,0C76.83,142,79.33,144.83,82.48,144.83Z"/><path d="M109.88,132.78h-2.1a1,1,0,0,1-1-.95v-2.25a0.92,0.92,0,0,1,1-.95h2.1v-5.55a1,1,0,0,1,1-.95l2.85-.05a0.94,0.94,0,0,1,.9,1v5.6h5.1a0.92,0.92,0,0,1,.95.95v2.25a1,1,0,0,1-.95.95h-5.1v9.9c0,1.7.65,2,1.6,2a8.15,8.15,0,0,0,3.05-.9,0.75,0.75,0,0,1,1.15.45l0.9,2.2a0.83,0.83,0,0,1-.45,1.2,15.34,15.34,0,0,1-5.85,1.5c-4,0-5.1-2.4-5.1-6v-10.4Z"/><path d="M125.88,114.58a1,1,0,0,1,1-.95h2.9a1,1,0,0,1,.95.95v15.7a10.3,10.3,0,0,1,6-2.15c5.65,0,8.35,4.05,8.35,9.5v10.05a1,1,0,0,1-1,1h-2.8a1,1,0,0,1-1-1V137.53c0-3.25-1.65-5.05-4.25-5.05a6.18,6.18,0,0,0-5.4,3.15v12.05a0.91,0.91,0,0,1-1,1h-2.85a1,1,0,0,1-1-1v-33.1Z"/><path d="M159.83,128.13a9,9,0,0,1,9.2,9.25,12.32,12.32,0,0,1-.1,1.35,0.92,0.92,0,0,1-.9.85h-13.6a5.79,5.79,0,0,0,5.75,5.35,8.53,8.53,0,0,0,4.45-1.45c0.6-.35,1-0.55,1.35,0l1.4,1.9a0.78,0.78,0,0,1-.1,1.3,11.49,11.49,0,0,1-7.4,2.5c-6.05,0-10.05-4.75-10.05-10.5S153.83,128.13,159.83,128.13Zm4.55,8.3a4.73,4.73,0,0,0-4.6-4.45,5.06,5.06,0,0,0-5.1,4.45h9.7Z"/><path d="M173.83,129.58a1,1,0,0,1,1-.95h1.45a1,1,0,0,1,.85.7l0.55,1.7a7.13,7.13,0,0,1,5.85-2.9c1.9,0,4.2.5,3.65,1.85l-1.2,2.45a0.85,0.85,0,0,1-1.2.45,4.58,4.58,0,0,0-1.7-.35,5.27,5.27,0,0,0-4.5,2.45v12.7c0,0.85-.55,1-1.35,1h-2.4a1,1,0,0,1-1-1v-18.1Z"/><path d="M199,128.13a9,9,0,0,1,9.2,9.25,12.32,12.32,0,0,1-.1,1.35,0.92,0.92,0,0,1-.9.85h-13.6a5.79,5.79,0,0,0,5.75,5.35,8.53,8.53,0,0,0,4.45-1.45c0.6-.35,1-0.55,1.35,0l1.4,1.9a0.78,0.78,0,0,1-.1,1.3,11.49,11.49,0,0,1-7.4,2.5c-6.05,0-10.05-4.75-10.05-10.5S193,128.13,199,128.13Zm4.55,8.3A4.73,4.73,0,0,0,199,132a5.06,5.06,0,0,0-5.1,4.45h9.7Z"/><path d="M215.68,142.18c1.85,0,4.15,1.25,4.15,5.55a12.91,12.91,0,0,1-5,10,0.75,0.75,0,0,1-1.2,0l-0.75-.75a0.84,0.84,0,0,1,.25-1.25c0.55-.5,3.55-2.9,3.55-6.8a5.52,5.52,0,0,1-1.25.2,3.49,3.49,0,0,1-3.45-3.45A3.58,3.58,0,0,1,215.68,142.18Z"/><path d="M237.78,132.78h-2.35a1,1,0,0,1-1-.95v-2.25a0.92,0.92,0,0,1,1-.95h2.35v-6.2c0-6.2,3.7-9.3,8.5-9.3a9,9,0,0,1,5.7,2,0.93,0.93,0,0,1,.2,1.15l-1.25,2.25a0.79,0.79,0,0,1-1.25.15,6.8,6.8,0,0,0-3.3-1.2c-2.2,0-3.75,1.6-3.75,5v6.2H248a0.92,0.92,0,0,1,1,.95v2.25a1,1,0,0,1-1,.95h-5.4v14.9a1,1,0,0,1-.95,1h-3a1,1,0,0,1-1-1v-14.9Z"/><path d="M253,129.58a1,1,0,0,1,1-.95h1.45a1,1,0,0,1,.85.7l0.55,1.7a7.13,7.13,0,0,1,5.85-2.9c1.9,0,4.2.5,3.65,1.85l-1.2,2.45a0.85,0.85,0,0,1-1.2.45,4.58,4.58,0,0,0-1.7-.35,5.27,5.27,0,0,0-4.5,2.45v12.7c0,0.85-.55,1-1.35,1h-2.4a1,1,0,0,1-1-1v-18.1Z"/><path d="M278.23,128.13a10.51,10.51,0,1,1-10.1,10.45A10.34,10.34,0,0,1,278.23,128.13Zm0,16.7c3.15,0,5.65-2.8,5.65-6.25a5.67,5.67,0,1,0-11.3,0C272.58,142,275.08,144.83,278.23,144.83Z"/><path d="M293.33,129.58a1,1,0,0,1,1-.95h1.4a0.87,0.87,0,0,1,.85.6l0.55,1.7a9.29,9.29,0,0,1,6.6-2.8,7.42,7.42,0,0,1,6.45,3.2,11.14,11.14,0,0,1,7.25-3.2c6.1,0,8.25,4.3,8.25,9.5v10.05a1,1,0,0,1-1,1h-2.8a1,1,0,0,1-.95-1V137.43c0-3.15-1.45-5-4.15-5a7.2,7.2,0,0,0-5.15,2.45,14,14,0,0,1,.15,2.4v10.35a1,1,0,0,1-.95,1h-2.65a1,1,0,0,1-1-1V137.43c0-3.2-1.45-5-4.25-5a5.67,5.67,0,0,0-5,3v12.2a1,1,0,0,1-1,1h-2.8a1,1,0,0,1-1-1v-18.1Z"/><path d="M342.88,129.58a1,1,0,0,1,1-.95h1.4a0.87,0.87,0,0,1,.85.6l0.55,1.7a9.29,9.29,0,0,1,6.6-2.8,7.42,7.42,0,0,1,6.45,3.2,11.14,11.14,0,0,1,7.25-3.2c6.1,0,8.25,4.3,8.25,9.5v10.05a1,1,0,0,1-1,1h-2.8a1,1,0,0,1-.95-1V137.43c0-3.15-1.45-5-4.15-5a7.2,7.2,0,0,0-5.15,2.45,14,14,0,0,1,.15,2.4v10.35a1,1,0,0,1-.95,1h-2.65a1,1,0,0,1-1-1V137.43c0-3.2-1.45-5-4.25-5a5.67,5.67,0,0,0-5,3v12.2a1,1,0,0,1-1,1h-2.8a1,1,0,0,1-1-1v-18.1Z"/><path d="M390,128.13a9,9,0,0,1,9.2,9.25,12.32,12.32,0,0,1-.1,1.35,0.92,0.92,0,0,1-.9.85h-13.6a5.79,5.79,0,0,0,5.75,5.35,8.53,8.53,0,0,0,4.45-1.45c0.6-.35,1-0.55,1.35,0l1.4,1.9a0.78,0.78,0,0,1-.1,1.3,11.49,11.49,0,0,1-7.4,2.5c-6.05,0-10.05-4.75-10.05-10.5S384,128.13,390,128.13Zm4.55,8.3a4.73,4.73,0,0,0-4.6-4.45,5.06,5.06,0,0,0-5.1,4.45h9.7Z"/><path d="M416.27,132.78h-2.1a1,1,0,0,1-1-.95v-2.25a0.92,0.92,0,0,1,1-.95h2.1v-5.55a1,1,0,0,1,1-.95l2.85-.05a0.94,0.94,0,0,1,.9,1v5.6h5.1a0.92,0.92,0,0,1,.95.95v2.25a1,1,0,0,1-.95.95H421v9.9c0,1.7.65,2,1.6,2a8.15,8.15,0,0,0,3.05-.9,0.75,0.75,0,0,1,1.15.45l0.9,2.2a0.83,0.83,0,0,1-.45,1.2,15.34,15.34,0,0,1-5.85,1.5c-4,0-5.1-2.4-5.1-6v-10.4Z"/><path d="M440.87,128.13a10.51,10.51,0,1,1-10.1,10.45A10.34,10.34,0,0,1,440.87,128.13Zm0,16.7c3.15,0,5.65-2.8,5.65-6.25a5.67,5.67,0,1,0-11.3,0C435.22,142,437.72,144.83,440.87,144.83Z"/><path d="M464.27,129.93a0.88,0.88,0,0,1,.85-1.3h3.3a1.09,1.09,0,0,1,.85.55l6.2,13.3h0.05l6-13.3a1,1,0,0,1,1-.55h2.85a0.86,0.86,0,0,1,.85,1.3L471,163a1,1,0,0,1-.85.6h-3a0.9,0.9,0,0,1-.85-1.35l6.7-14.35Z"/><path d="M498.72,128.13a10.51,10.51,0,1,1-10.1,10.45A10.34,10.34,0,0,1,498.72,128.13Zm0,16.7c3.15,0,5.65-2.8,5.65-6.25a5.67,5.67,0,1,0-11.3,0C493.07,142,495.57,144.83,498.72,144.83Z"/><path d="M513.52,129.58a1,1,0,0,1,1-.95h2.85a1,1,0,0,1,1,.95v10.25c0,3.25,1.55,5,4.1,5a5.33,5.33,0,0,0,5-3.3v-12c0-.8.4-0.95,1.1-0.95H531a1,1,0,0,1,1,.95v18.1a1,1,0,0,1-1,1h-1.4a1,1,0,0,1-.9-0.8l-0.5-1.45a9,9,0,0,1-6.6,2.75c-6,0-8.1-4.25-8.1-9.45v-10.1Z"/><path d="M540.92,142.18a3.48,3.48,0,1,1-3.45,3.5A3.48,3.48,0,0,1,540.92,142.18Z"/><path d="M55.88,260.51a6.73,6.73,0,0,1,5.51,2.7,0.74,0.74,0,0,1-.15,1.06L60,265.41c-0.46.42-.72,0.11-1-0.15a4.22,4.22,0,0,0-3-1.44,4.69,4.69,0,1,0,3.5,7.64,0.7,0.7,0,0,1,1-.08l1,0.84a0.74,0.74,0,0,1,.27,1.06,6.74,6.74,0,0,1-5.89,3.19,7.91,7.91,0,0,1-7.94-7.94A8.08,8.08,0,0,1,55.88,260.51Z"/><path d="M65.54,250.21a0.75,0.75,0,0,1,.72-0.72h2.17a0.75,0.75,0,0,1,.72.72v25.15a0.75,0.75,0,0,1-.72.72H66.26a0.75,0.75,0,0,1-.72-0.72V250.21Z"/><path d="M73.67,252.49a2.18,2.18,0,0,1,2.17-2.24,2.22,2.22,0,1,1,0,4.45A2.17,2.17,0,0,1,73.67,252.49Zm0.42,9.12a0.75,0.75,0,0,1,.72-0.72H77a0.75,0.75,0,0,1,.72.72v13.75a0.75,0.75,0,0,1-.72.72H74.81a0.75,0.75,0,0,1-.72-0.72V261.61Z"/><path d="M89.47,260.51A6.73,6.73,0,0,1,95,263.2a0.74,0.74,0,0,1-.15,1.06l-1.25,1.14c-0.46.42-.72,0.11-1-0.15a4.22,4.22,0,0,0-3-1.44,4.69,4.69,0,1,0,3.5,7.64,0.7,0.7,0,0,1,1-.08l1,0.84a0.74,0.74,0,0,1,.27,1.06,6.74,6.74,0,0,1-5.89,3.19,7.91,7.91,0,0,1-7.94-7.94A8.08,8.08,0,0,1,89.47,260.51Z"/><path d="M99.13,250.21a0.75,0.75,0,0,1,.72-0.72h2.2a0.75,0.75,0,0,1,.72.72v16.45l5.93-5.32a1.5,1.5,0,0,1,.95-0.46h2.66a0.59,0.59,0,0,1,.42,1l-6.31,5.74,7.45,7.45a0.56,0.56,0,0,1-.42,1h-3.12a1,1,0,0,1-.68-0.3l-6.88-7.07v6.65a0.75,0.75,0,0,1-.72.72h-2.2a0.75,0.75,0,0,1-.72-0.72V250.21Z"/><path d="M130.21,266.47a10.93,10.93,0,0,1,3,.46c0-2.39-.42-3.34-2.36-3.34a16.13,16.13,0,0,0-4.26.68,0.68,0.68,0,0,1-.84-0.61l-0.3-1.41a0.68,0.68,0,0,1,.49-0.87,15.66,15.66,0,0,1,5.24-.87c4.86,0,5.32,3,5.32,6.76v8.09a0.75,0.75,0,0,1-.72.72h-1.06a0.64,0.64,0,0,1-.65-0.53l-0.38-1a6.56,6.56,0,0,1-4.67,1.94,4.72,4.72,0,0,1-4.9-5.09C124.13,268.6,126.33,266.47,130.21,266.47Zm-0.46,7.29a4.5,4.5,0,0,0,3.42-1.9v-2.43a5.73,5.73,0,0,0-2.66-.61c-1.82,0-3.08.95-3.08,2.51A2.29,2.29,0,0,0,129.75,273.77Z"/><path d="M141.31,261.61a0.75,0.75,0,0,1,.72-0.72h1.1a0.62,0.62,0,0,1,.61.46l0.46,1.29a7.77,7.77,0,0,1,5.32-2.13c4.64,0,6.35,3.27,6.35,7.22v7.64a0.75,0.75,0,0,1-.72.72H153a0.72,0.72,0,0,1-.72-0.72v-7.79c0-2.43-1.18-3.76-3.15-3.76a5,5,0,0,0-4.22,2.28v9.27c0,0.49-.23.72-0.87,0.72h-2a0.75,0.75,0,0,1-.72-0.72V261.61Z"/><path d="M167,260.51a9.14,9.14,0,0,1,3.65.84V250.21a0.75,0.75,0,0,1,.72-0.72h2.2a0.75,0.75,0,0,1,.72.72v25.15a0.75,0.75,0,0,1-.72.72h-1.14a0.76,0.76,0,0,1-.68-0.65l-0.3-1.1a6.79,6.79,0,0,1-4.83,2.13c-4,0-7.1-3.61-7.1-8A7.67,7.67,0,0,1,167,260.51Zm0.08,12.69a4.09,4.09,0,0,0,3.61-2.28v-6.19a6.3,6.3,0,0,0-3.31-.91,4.41,4.41,0,0,0-4.33,4.67C163,271,164.64,273.2,167.07,273.2Z"/><path d="M194,260.51a9.14,9.14,0,0,1,3.65.84V250.21a0.75,0.75,0,0,1,.72-0.72h2.2a0.75,0.75,0,0,1,.72.72v25.15a0.75,0.75,0,0,1-.72.72H199.4a0.76,0.76,0,0,1-.68-0.65l-0.3-1.1a6.79,6.79,0,0,1-4.83,2.13c-4,0-7.1-3.61-7.1-8A7.67,7.67,0,0,1,194,260.51ZM194,273.2a4.09,4.09,0,0,0,3.61-2.28v-6.19a6.3,6.3,0,0,0-3.31-.91,4.41,4.41,0,0,0-4.33,4.67C190,271,191.62,273.2,194,273.2Z"/><path d="M206.21,261.61a0.75,0.75,0,0,1,.72-0.72H208a0.72,0.72,0,0,1,.65.53l0.42,1.29a5.41,5.41,0,0,1,4.45-2.2c1.44,0,3.19.38,2.77,1.41l-0.91,1.86a0.65,0.65,0,0,1-.91.34,3.49,3.49,0,0,0-1.29-.27,4,4,0,0,0-3.42,1.86v9.65c0,0.65-.42.72-1,0.72h-1.82a0.75,0.75,0,0,1-.72-0.72V261.61Z"/><path d="M224,266.47a10.93,10.93,0,0,1,3,.46c0-2.39-.42-3.34-2.36-3.34a16.13,16.13,0,0,0-4.26.68,0.68,0.68,0,0,1-.84-0.61l-0.3-1.41a0.68,0.68,0,0,1,.49-0.87,15.66,15.66,0,0,1,5.24-.87c4.86,0,5.32,3,5.32,6.76v8.09a0.75,0.75,0,0,1-.72.72h-1.06a0.64,0.64,0,0,1-.65-0.53l-0.38-1a6.56,6.56,0,0,1-4.67,1.94,4.72,4.72,0,0,1-4.9-5.09C217.87,268.6,220.08,266.47,224,266.47Zm-0.46,7.29a4.5,4.5,0,0,0,3.42-1.9v-2.43a5.73,5.73,0,0,0-2.66-.61c-1.82,0-3.08.95-3.08,2.51A2.29,2.29,0,0,0,223.5,273.77Z"/><path d="M236.23,270.84a6.1,6.1,0,0,1-1.18-3.69,6.51,6.51,0,0,1,6.54-6.65h6.65a0.7,0.7,0,0,1,.72.72v1a0.63,0.63,0,0,1-.42.65l-2.09.57a5.09,5.09,0,0,1,1.63,4.07,6.21,6.21,0,0,1-6.46,6.19,11.16,11.16,0,0,1-3.31-.61,2.09,2.09,0,0,0-1.56,1.86,1.62,1.62,0,0,0,1.82,1.56h5.17c3.31,0,6,1.79,6,5.09s-3,6.31-8.09,6.31c-5.36,0-7.52-2.74-7.52-5.21a4.19,4.19,0,0,1,2.24-3.57V279a3.92,3.92,0,0,1-2.81-3.8A5.24,5.24,0,0,1,236.23,270.84Zm5.36,13.91c2.32,0,4.33-1.18,4.33-3,0-.61-0.38-2.17-2.85-2.17-1.1,0-2.24,0-3.34.08-0.23.08-2.09,0.68-2.09,2.39C237.63,283.61,239.27,284.75,241.59,284.75Zm3.27-17.51a3.2,3.2,0,0,0-3.19-3.5,3.5,3.5,0,0,0,0,7A3.2,3.2,0,0,0,244.85,267.23Z"/><path d="M261.88,264h-1.6a0.72,0.72,0,0,1-.72-0.72v-1.71a0.7,0.7,0,0,1,.72-0.72h1.6v-4.22a0.75,0.75,0,0,1,.72-0.72l2.17,0a0.71,0.71,0,0,1,.68.72v4.25h3.88a0.7,0.7,0,0,1,.72.72v1.71a0.72,0.72,0,0,1-.72.72h-3.88v7.52c0,1.29.49,1.52,1.22,1.52a6.2,6.2,0,0,0,2.32-.68,0.57,0.57,0,0,1,.87.34l0.68,1.67a0.63,0.63,0,0,1-.34.91,11.66,11.66,0,0,1-4.45,1.14c-3,0-3.88-1.82-3.88-4.52V264Z"/><path d="M280.57,260.51a8,8,0,1,1-7.68,7.94A7.86,7.86,0,0,1,280.57,260.51Zm0,12.69a4.52,4.52,0,0,0,4.29-4.75,4.31,4.31,0,1,0-8.59,0A4.52,4.52,0,0,0,280.57,273.2Z"/><path d="M307.25,260.51a6.73,6.73,0,0,1,5.51,2.7,0.74,0.74,0,0,1-.15,1.06l-1.25,1.14c-0.46.42-.72,0.11-1-0.15a4.22,4.22,0,0,0-3-1.44,4.69,4.69,0,1,0,3.5,7.64,0.7,0.7,0,0,1,1-.08l1,0.84a0.74,0.74,0,0,1,.27,1.06,6.74,6.74,0,0,1-5.89,3.19,7.91,7.91,0,0,1-7.94-7.94A8.08,8.08,0,0,1,307.25,260.51Z"/><path d="M323.44,260.51a8,8,0,1,1-7.68,7.94A7.86,7.86,0,0,1,323.44,260.51Zm0,12.69a4.52,4.52,0,0,0,4.29-4.75,4.31,4.31,0,1,0-8.59,0A4.52,4.52,0,0,0,323.44,273.2Z"/><path d="M334.91,261.61a0.75,0.75,0,0,1,.72-0.72h1.1a0.62,0.62,0,0,1,.61.46l0.46,1.29a7.77,7.77,0,0,1,5.32-2.13c4.64,0,6.35,3.27,6.35,7.22v7.64a0.75,0.75,0,0,1-.72.72h-2.17a0.72,0.72,0,0,1-.72-0.72v-7.79c0-2.43-1.18-3.76-3.15-3.76a5,5,0,0,0-4.22,2.28v9.27c0,0.49-.23.72-0.87,0.72h-2a0.75,0.75,0,0,1-.72-0.72V261.61Z"/><path d="M354.22,261.61a0.75,0.75,0,0,1,.72-0.72H356a0.62,0.62,0,0,1,.61.46l0.46,1.29a7.77,7.77,0,0,1,5.32-2.13c4.64,0,6.35,3.27,6.35,7.22v7.64a0.75,0.75,0,0,1-.72.72h-2.17a0.72,0.72,0,0,1-.72-0.72v-7.79c0-2.43-1.18-3.76-3.15-3.76a5,5,0,0,0-4.22,2.28v9.27c0,0.49-.23.72-0.87,0.72h-2a0.75,0.75,0,0,1-.72-0.72V261.61Z"/><path d="M380,260.51a6.84,6.84,0,0,1,7,7,9.4,9.4,0,0,1-.08,1,0.7,0.7,0,0,1-.68.65H375.91a4.4,4.4,0,0,0,4.37,4.07,6.48,6.48,0,0,0,3.38-1.1c0.46-.27.72-0.42,1,0l1.06,1.44a0.59,0.59,0,0,1-.08,1,8.73,8.73,0,0,1-5.62,1.9c-4.6,0-7.64-3.61-7.64-8S375.46,260.51,380,260.51Zm3.46,6.31a3.6,3.6,0,0,0-3.5-3.38,3.84,3.84,0,0,0-3.88,3.38h7.37Z"/><path d="M397.5,260.51a6.73,6.73,0,0,1,5.51,2.7,0.74,0.74,0,0,1-.15,1.06l-1.25,1.14c-0.46.42-.72,0.11-1-0.15a4.22,4.22,0,0,0-3-1.44,4.69,4.69,0,1,0,3.5,7.64,0.7,0.7,0,0,1,1-.08l1,0.84a0.74,0.74,0,0,1,.27,1.06,6.74,6.74,0,0,1-5.89,3.19,7.91,7.91,0,0,1-7.94-7.94A8.08,8.08,0,0,1,397.5,260.51Z"/><path d="M408.14,264h-1.6a0.72,0.72,0,0,1-.72-0.72v-1.71a0.7,0.7,0,0,1,.72-0.72h1.6v-4.22a0.75,0.75,0,0,1,.72-0.72l2.17,0a0.71,0.71,0,0,1,.68.72v4.25h3.88a0.7,0.7,0,0,1,.72.72v1.71a0.72,0.72,0,0,1-.72.72h-3.88v7.52c0,1.29.49,1.52,1.22,1.52a6.2,6.2,0,0,0,2.32-.68,0.57,0.57,0,0,1,.87.34l0.68,1.67a0.63,0.63,0,0,1-.34.91,11.66,11.66,0,0,1-4.45,1.14c-3,0-3.88-1.82-3.88-4.52V264Z"/><path d="M429.64,264H428a0.72,0.72,0,0,1-.72-0.72v-1.71a0.7,0.7,0,0,1,.72-0.72h1.6v-4.22a0.75,0.75,0,0,1,.72-0.72l2.17,0a0.71,0.71,0,0,1,.68.72v4.25h3.88a0.7,0.7,0,0,1,.72.72v1.71a0.72,0.72,0,0,1-.72.72h-3.88v7.52c0,1.29.49,1.52,1.22,1.52a6.2,6.2,0,0,0,2.32-.68,0.57,0.57,0,0,1,.87.34l0.68,1.67a0.63,0.63,0,0,1-.34.91,11.66,11.66,0,0,1-4.45,1.14c-3,0-3.88-1.82-3.88-4.52V264Z"/><path d="M441.8,250.21a0.75,0.75,0,0,1,.72-0.72h2.2a0.75,0.75,0,0,1,.72.72v11.93a7.83,7.83,0,0,1,4.56-1.63c4.29,0,6.35,3.08,6.35,7.22v7.64a0.75,0.75,0,0,1-.72.72h-2.13a0.72,0.72,0,0,1-.72-0.72v-7.71c0-2.47-1.25-3.84-3.23-3.84a4.69,4.69,0,0,0-4.1,2.39v9.16a0.69,0.69,0,0,1-.76.72h-2.17a0.75,0.75,0,0,1-.72-0.72V250.21Z"/><path d="M467.61,260.51a6.84,6.84,0,0,1,7,7,9.4,9.4,0,0,1-.08,1,0.7,0.7,0,0,1-.68.65H463.5a4.4,4.4,0,0,0,4.37,4.07,6.48,6.48,0,0,0,3.38-1.1c0.46-.27.72-0.42,1,0l1.06,1.44a0.59,0.59,0,0,1-.08,1,8.73,8.73,0,0,1-5.62,1.9c-4.6,0-7.64-3.61-7.64-8S463,260.51,467.61,260.51Zm3.46,6.31a3.6,3.6,0,0,0-3.5-3.38,3.84,3.84,0,0,0-3.88,3.38h7.37Z"/><path d="M493,260.51a9.14,9.14,0,0,1,3.65.84V250.21a0.75,0.75,0,0,1,.72-0.72h2.2a0.75,0.75,0,0,1,.72.72v25.15a0.75,0.75,0,0,1-.72.72h-1.14a0.76,0.76,0,0,1-.68-0.65l-0.3-1.1a6.79,6.79,0,0,1-4.83,2.13c-4,0-7.1-3.61-7.1-8A7.67,7.67,0,0,1,493,260.51Zm0.08,12.69a4.09,4.09,0,0,0,3.61-2.28v-6.19a6.3,6.3,0,0,0-3.31-.91,4.41,4.41,0,0,0-4.33,4.67C489,271,490.63,273.2,493.06,273.2Z"/><path d="M511.76,260.51a8,8,0,1,1-7.68,7.94A7.86,7.86,0,0,1,511.76,260.51Zm0,12.69a4.52,4.52,0,0,0,4.29-4.75,4.31,4.31,0,1,0-8.59,0A4.52,4.52,0,0,0,511.76,273.2Z"/><path d="M524.22,264h-1.6a0.72,0.72,0,0,1-.72-0.72v-1.71a0.7,0.7,0,0,1,.72-0.72h1.6v-4.22a0.75,0.75,0,0,1,.72-0.72l2.17,0a0.71,0.71,0,0,1,.68.72v4.25h3.88a0.7,0.7,0,0,1,.72.72v1.71a0.72,0.72,0,0,1-.72.72H527.8v7.52c0,1.29.49,1.52,1.22,1.52a6.2,6.2,0,0,0,2.32-.68,0.57,0.57,0,0,1,.87.34l0.68,1.67a0.63,0.63,0,0,1-.34.91,11.66,11.66,0,0,1-4.45,1.14c-3,0-3.88-1.82-3.88-4.52V264Z"/><path d="M535.47,274.11l0.8-1.48a0.66,0.66,0,0,1,1-.19,7.87,7.87,0,0,0,3.53,1c1.14,0,1.86-.46,1.86-1.29,0-1-.84-1.52-2.93-2.47-2.36-1-4.33-2.47-4.33-5,0-1.9,1.56-4.18,5.21-4.18a8.52,8.52,0,0,1,4.48,1.18,0.85,0.85,0,0,1,.3,1.1l-0.68,1.29a0.8,0.8,0,0,1-1,.3,8.69,8.69,0,0,0-3.12-.8c-1.29,0-1.71.57-1.71,1.14,0,1,.95,1.41,2.43,2.05,2.77,1.22,5.05,2.39,5.05,5.24,0,2.36-2.24,4.45-5.62,4.45a8,8,0,0,1-5-1.56A0.64,0.64,0,0,1,535.47,274.11Z"/><path d="M551.85,271.18a2.64,2.64,0,1,1-2.62,2.66A2.64,2.64,0,0,1,551.85,271.18Z"/><path d="M57,304.76a0.55,0.55,0,0,1,.53-0.87h2.05a0.75,0.75,0,0,1,.68.46l2.55,8.4h0l4.07-8.85a0.72,0.72,0,0,1,.65-0.38h0.23a0.67,0.67,0,0,1,.65.38l4,8.89h0L75,304.34a1.14,1.14,0,0,1,1.18-.46h1.48a0.57,0.57,0,0,1,.57.87L73.8,319.08a0.68,0.68,0,0,1-.68.38H73a0.69,0.69,0,0,1-.65-0.34L67.64,309h0L63,319.12a0.63,0.63,0,0,1-.61.34H62.17a0.66,0.66,0,0,1-.65-0.38Z"/><path d="M81.74,293.21a0.75,0.75,0,0,1,.72-0.72h2.2a0.75,0.75,0,0,1,.72.72v11.93a7.82,7.82,0,0,1,4.56-1.63c4.29,0,6.35,3.08,6.35,7.22v7.64a0.75,0.75,0,0,1-.72.72H93.44a0.72,0.72,0,0,1-.72-0.72v-7.71c0-2.47-1.25-3.84-3.23-3.84a4.69,4.69,0,0,0-4.1,2.39v9.16a0.69,0.69,0,0,1-.76.72H82.46a0.75,0.75,0,0,1-.72-0.72V293.21Z"/><path d="M107.54,303.51a6.84,6.84,0,0,1,7,7,9.42,9.42,0,0,1-.08,1,0.7,0.7,0,0,1-.68.65H103.44a4.4,4.4,0,0,0,4.37,4.07,6.48,6.48,0,0,0,3.38-1.1c0.46-.27.72-0.42,1,0l1.06,1.44a0.59,0.59,0,0,1-.08,1,8.73,8.73,0,0,1-5.62,1.9c-4.6,0-7.64-3.61-7.64-8S103,303.51,107.54,303.51Zm3.46,6.31a3.6,3.6,0,0,0-3.5-3.38,3.85,3.85,0,0,0-3.88,3.38H111Z"/><path d="M118.18,304.61a0.75,0.75,0,0,1,.72-0.72H120a0.62,0.62,0,0,1,.61.46l0.46,1.29a7.77,7.77,0,0,1,5.32-2.13c4.64,0,6.35,3.27,6.35,7.22v7.64a0.75,0.75,0,0,1-.72.72h-2.17a0.72,0.72,0,0,1-.72-0.72v-7.79c0-2.43-1.18-3.76-3.15-3.76a5,5,0,0,0-4.22,2.28v9.27c0,0.49-.23.72-0.87,0.72h-2a0.75,0.75,0,0,1-.72-0.72V304.61Z"/><path d="M143.79,304.87a0.67,0.67,0,0,1,.65-1h2.51a0.82,0.82,0,0,1,.65.42l4.71,10.11h0l4.56-10.11a0.77,0.77,0,0,1,.8-0.42h2.17a0.65,0.65,0,0,1,.65,1L148.89,330a0.76,0.76,0,0,1-.65.46H146a0.68,0.68,0,0,1-.65-1l5.09-10.9Z"/><path d="M170,303.51a8,8,0,1,1-7.68,7.94A7.86,7.86,0,0,1,170,303.51Zm0,12.69a4.52,4.52,0,0,0,4.29-4.75,4.31,4.31,0,1,0-8.59,0A4.52,4.52,0,0,0,170,316.2Z"/><path d="M181.22,304.61a0.75,0.75,0,0,1,.72-0.72h2.17a0.75,0.75,0,0,1,.72.72v7.79c0,2.47,1.18,3.8,3.12,3.8a4,4,0,0,0,3.76-2.51v-9.08c0-.61.3-0.72,0.84-0.72h2a0.75,0.75,0,0,1,.72.72v13.75a0.75,0.75,0,0,1-.72.72h-1.06a0.73,0.73,0,0,1-.68-0.61l-0.38-1.1a6.88,6.88,0,0,1-5,2.09c-4.56,0-6.16-3.23-6.16-7.18v-7.67Z"/><path d="M213.52,309.47a10.93,10.93,0,0,1,3,.46c0-2.39-.42-3.34-2.36-3.34a16.17,16.17,0,0,0-4.26.68,0.68,0.68,0,0,1-.84-0.61l-0.3-1.41a0.68,0.68,0,0,1,.49-0.87,15.66,15.66,0,0,1,5.24-.87c4.86,0,5.32,3,5.32,6.76v8.09a0.75,0.75,0,0,1-.72.72H218a0.64,0.64,0,0,1-.65-0.53l-0.38-1a6.56,6.56,0,0,1-4.67,1.94,4.72,4.72,0,0,1-4.9-5.09C207.44,311.6,209.65,309.47,213.52,309.47Zm-0.46,7.29a4.5,4.5,0,0,0,3.42-1.9v-2.43a5.71,5.71,0,0,0-2.66-.61c-1.82,0-3.08,1-3.08,2.51A2.29,2.29,0,0,0,213.07,316.77Z"/><path d="M224.62,304.61a0.75,0.75,0,0,1,.72-0.72h1.1a0.72,0.72,0,0,1,.65.53l0.42,1.29a5.41,5.41,0,0,1,4.45-2.2c1.44,0,3.19.38,2.77,1.41l-0.91,1.86a0.65,0.65,0,0,1-.91.34,3.47,3.47,0,0,0-1.29-.27,4,4,0,0,0-3.42,1.86v9.65c0,0.65-.42.72-1,0.72h-1.82a0.75,0.75,0,0,1-.72-0.72V304.61Z"/><path d="M243.77,303.51a6.84,6.84,0,0,1,7,7,9.42,9.42,0,0,1-.08,1,0.7,0.7,0,0,1-.68.65H239.67a4.4,4.4,0,0,0,4.37,4.07,6.48,6.48,0,0,0,3.38-1.1c0.46-.27.72-0.42,1,0l1.06,1.44a0.59,0.59,0,0,1-.08,1,8.73,8.73,0,0,1-5.62,1.9c-4.6,0-7.64-3.61-7.64-8S239.21,303.51,243.77,303.51Zm3.46,6.31a3.6,3.6,0,0,0-3.5-3.38,3.85,3.85,0,0,0-3.88,3.38h7.37Z"/><path d="M263.95,307h-1.79a0.72,0.72,0,0,1-.72-0.72v-1.71a0.7,0.7,0,0,1,.72-0.72h1.79v-4.71c0-4.52,3.08-7.07,6.84-7.07a11.84,11.84,0,0,1,5.7,1.71,0.71,0.71,0,0,1,.19.95l-0.95,1.71c-0.23.46-.57,0.42-1,0.19a9.58,9.58,0,0,0-4-1.22c-1.56,0-3.15,1.1-3.15,3.72v4.71h10.14a0.75,0.75,0,0,1,.72.72v13.75a0.75,0.75,0,0,1-.72.72h-2.17a0.75,0.75,0,0,1-.72-0.72V307h-7.26v11.32a0.89,0.89,0,0,1-1.06.72h-1.9a0.75,0.75,0,0,1-.72-0.72V307Z"/><path d="M283.44,304.61a0.75,0.75,0,0,1,.72-0.72h1.1a0.62,0.62,0,0,1,.61.46l0.46,1.29a7.77,7.77,0,0,1,5.32-2.13c4.64,0,6.35,3.27,6.35,7.22v7.64a0.75,0.75,0,0,1-.72.72h-2.17a0.72,0.72,0,0,1-.72-0.72v-7.79c0-2.43-1.18-3.76-3.15-3.76a5,5,0,0,0-4.22,2.28v9.27c0,0.49-.23.72-0.87,0.72h-2a0.75,0.75,0,0,1-.72-0.72V304.61Z"/><path d="M302.33,295.49a2.18,2.18,0,0,1,2.17-2.24,2.22,2.22,0,1,1,0,4.45A2.17,2.17,0,0,1,302.33,295.49Zm0.42,9.12a0.75,0.75,0,0,1,.72-0.72h2.17a0.75,0.75,0,0,1,.72.72v13.75a0.75,0.75,0,0,1-.72.72h-2.17a0.75,0.75,0,0,1-.72-0.72V304.61Z"/><path d="M310.38,317.11l0.8-1.48a0.66,0.66,0,0,1,1-.19,7.87,7.87,0,0,0,3.53,1c1.14,0,1.86-.46,1.86-1.29,0-1-.84-1.52-2.93-2.47-2.36-1-4.33-2.47-4.33-5,0-1.9,1.56-4.18,5.21-4.18a8.52,8.52,0,0,1,4.48,1.18,0.85,0.85,0,0,1,.3,1.1l-0.68,1.29a0.8,0.8,0,0,1-1,.3,8.69,8.69,0,0,0-3.12-.8c-1.29,0-1.71.57-1.71,1.14,0,1,.95,1.41,2.43,2.05,2.77,1.22,5.05,2.39,5.05,5.24,0,2.36-2.24,4.45-5.62,4.45a8,8,0,0,1-5-1.56A0.64,0.64,0,0,1,310.38,317.11Z"/><path d="M324.9,293.21a0.75,0.75,0,0,1,.72-0.72h2.2a0.75,0.75,0,0,1,.72.72v11.93a7.82,7.82,0,0,1,4.56-1.63c4.29,0,6.35,3.08,6.35,7.22v7.64a0.75,0.75,0,0,1-.72.72H336.6a0.72,0.72,0,0,1-.72-0.72v-7.71c0-2.47-1.25-3.84-3.23-3.84a4.69,4.69,0,0,0-4.1,2.39v9.16a0.69,0.69,0,0,1-.76.72h-2.17a0.75,0.75,0,0,1-.72-0.72V293.21Z"/><path d="M350.7,303.51a6.84,6.84,0,0,1,7,7,9.42,9.42,0,0,1-.08,1,0.7,0.7,0,0,1-.68.65H346.6a4.4,4.4,0,0,0,4.37,4.07,6.48,6.48,0,0,0,3.38-1.1c0.46-.27.72-0.42,1,0l1.06,1.44a0.59,0.59,0,0,1-.08,1,8.73,8.73,0,0,1-5.62,1.9c-4.6,0-7.64-3.61-7.64-8S346.14,303.51,350.7,303.51Zm3.46,6.31a3.6,3.6,0,0,0-3.5-3.38,3.85,3.85,0,0,0-3.88,3.38h7.37Z"/><path d="M367.72,303.51a9.14,9.14,0,0,1,3.65.84V293.21a0.75,0.75,0,0,1,.72-0.72h2.2a0.75,0.75,0,0,1,.72.72v25.15a0.75,0.75,0,0,1-.72.72h-1.14a0.76,0.76,0,0,1-.68-0.65l-0.3-1.1a6.79,6.79,0,0,1-4.83,2.13c-4,0-7.1-3.61-7.1-8A7.67,7.67,0,0,1,367.72,303.51Zm0.08,12.69a4.09,4.09,0,0,0,3.61-2.28v-6.19a6.31,6.31,0,0,0-3.31-.91,4.41,4.41,0,0,0-4.33,4.67C363.77,314,365.37,316.2,367.8,316.2Z"/><path d="M382,314.18c1.41,0,3.15,1,3.15,4.22a9.81,9.81,0,0,1-3.76,7.6,0.57,0.57,0,0,1-.91,0l-0.57-.57a0.64,0.64,0,0,1,.19-0.95,7,7,0,0,0,2.7-5.17,4.2,4.2,0,0,1-.95.15,2.65,2.65,0,0,1-2.62-2.62A2.72,2.72,0,0,1,382,314.18Z"/><path d="M397.59,304.61a0.75,0.75,0,0,1,.72-0.72h1.1a0.72,0.72,0,0,1,.65.53l0.42,1.29a5.41,5.41,0,0,1,4.45-2.2c1.44,0,3.19.38,2.77,1.41l-0.91,1.86a0.65,0.65,0,0,1-.91.34,3.47,3.47,0,0,0-1.29-.27,4,4,0,0,0-3.42,1.86v9.65c0,0.65-.42.72-1,0.72h-1.82a0.75,0.75,0,0,1-.72-0.72V304.61Z"/><path d="M416.74,303.51a6.84,6.84,0,0,1,7,7,9.42,9.42,0,0,1-.08,1,0.7,0.7,0,0,1-.68.65H412.64a4.4,4.4,0,0,0,4.37,4.07,6.48,6.48,0,0,0,3.38-1.1c0.46-.27.72-0.42,1,0l1.06,1.44a0.59,0.59,0,0,1-.08,1,8.73,8.73,0,0,1-5.62,1.9c-4.6,0-7.64-3.61-7.64-8S412.18,303.51,416.74,303.51Zm3.46,6.31a3.6,3.6,0,0,0-3.5-3.38,3.85,3.85,0,0,0-3.88,3.38h7.37Z"/><path d="M428.37,307h-1.6a0.72,0.72,0,0,1-.72-0.72v-1.71a0.7,0.7,0,0,1,.72-0.72h1.6v-4.22a0.75,0.75,0,0,1,.72-0.72l2.17,0a0.71,0.71,0,0,1,.68.72v4.26h3.88a0.7,0.7,0,0,1,.72.72v1.71a0.72,0.72,0,0,1-.72.72h-3.88v7.52c0,1.29.49,1.52,1.22,1.52a6.18,6.18,0,0,0,2.32-.68,0.57,0.57,0,0,1,.87.34l0.68,1.67a0.63,0.63,0,0,1-.34.91,11.66,11.66,0,0,1-4.45,1.14c-3,0-3.88-1.82-3.88-4.52V307Z"/><path d="M440.3,304.61a0.75,0.75,0,0,1,.72-0.72h2.17a0.75,0.75,0,0,1,.72.72v7.79c0,2.47,1.18,3.8,3.12,3.8a4,4,0,0,0,3.76-2.51v-9.08c0-.61.3-0.72,0.84-0.72h2a0.75,0.75,0,0,1,.72.72v13.75a0.75,0.75,0,0,1-.72.72h-1.06a0.73,0.73,0,0,1-.68-0.61l-0.38-1.1a6.88,6.88,0,0,1-5,2.09c-4.56,0-6.16-3.23-6.16-7.18v-7.67Z"/><path d="M459.26,304.61a0.75,0.75,0,0,1,.72-0.72h1.1a0.72,0.72,0,0,1,.65.53l0.42,1.29a5.41,5.41,0,0,1,4.45-2.2c1.44,0,3.19.38,2.77,1.41l-0.91,1.86a0.65,0.65,0,0,1-.91.34,3.47,3.47,0,0,0-1.29-.27,4,4,0,0,0-3.42,1.86v9.65c0,0.65-.42.72-1,0.72H460a0.75,0.75,0,0,1-.72-0.72V304.61Z"/><path d="M472,304.61a0.75,0.75,0,0,1,.72-0.72h1.1a0.62,0.62,0,0,1,.61.46l0.46,1.29a7.77,7.77,0,0,1,5.32-2.13c4.64,0,6.35,3.27,6.35,7.22v7.64a0.75,0.75,0,0,1-.72.72H483.7a0.72,0.72,0,0,1-.72-0.72v-7.79c0-2.43-1.18-3.76-3.15-3.76a5,5,0,0,0-4.22,2.28v9.27c0,0.49-.23.72-0.87,0.72h-2a0.75,0.75,0,0,1-.72-0.72V304.61Z"/><path d="M500.68,307h-1.6a0.72,0.72,0,0,1-.72-0.72v-1.71a0.7,0.7,0,0,1,.72-0.72h1.6v-4.22a0.75,0.75,0,0,1,.72-0.72l2.17,0a0.71,0.71,0,0,1,.68.72v4.26h3.88a0.7,0.7,0,0,1,.72.72v1.71a0.72,0.72,0,0,1-.72.72h-3.88v7.52c0,1.29.49,1.52,1.22,1.52a6.18,6.18,0,0,0,2.32-.68,0.57,0.57,0,0,1,.87.34l0.68,1.67a0.63,0.63,0,0,1-.34.91,11.66,11.66,0,0,1-4.45,1.14c-3,0-3.88-1.82-3.88-4.52V307Z"/><path d="M512.84,293.21a0.75,0.75,0,0,1,.72-0.72h2.2a0.75,0.75,0,0,1,.72.72v11.93a7.82,7.82,0,0,1,4.56-1.63c4.29,0,6.35,3.08,6.35,7.22v7.64a0.75,0.75,0,0,1-.72.72h-2.13a0.72,0.72,0,0,1-.72-0.72v-7.71c0-2.47-1.25-3.84-3.23-3.84a4.69,4.69,0,0,0-4.1,2.39v9.16a0.69,0.69,0,0,1-.76.72h-2.17a0.75,0.75,0,0,1-.72-0.72V293.21Z"/><path d="M538.64,303.51a6.84,6.84,0,0,1,7,7,9.42,9.42,0,0,1-.08,1,0.7,0.7,0,0,1-.68.65H534.54a4.4,4.4,0,0,0,4.37,4.07,6.48,6.48,0,0,0,3.38-1.1c0.46-.27.72-0.42,1,0l1.06,1.44a0.59,0.59,0,0,1-.08,1,8.73,8.73,0,0,1-5.62,1.9c-4.6,0-7.64-3.61-7.64-8S534.09,303.51,538.64,303.51Zm3.46,6.31a3.6,3.6,0,0,0-3.5-3.38,3.85,3.85,0,0,0-3.88,3.38h7.37Z"/><path d="M118.9,372.76a0.7,0.7,0,0,1-.8.72H116a0.75,0.75,0,0,1-.72-0.72V347.61a0.75,0.75,0,0,1,.72-0.72h1.14a0.67,0.67,0,0,1,.65.49l0.38,1a6.43,6.43,0,0,1,4.64-1.86c4.18,0,7.26,3.65,7.26,8s-3.27,7.94-7.41,7.94a7.61,7.61,0,0,1-3.72-1v11.32Zm3.27-13.56a4.44,4.44,0,0,0,4.33-4.67c0-2.55-1.6-4.71-4.18-4.71a3.88,3.88,0,0,0-3.5,2.2v6.08A5.63,5.63,0,0,0,122.17,359.2Z"/><path d="M138.85,352.47a10.93,10.93,0,0,1,3,.46c0-2.39-.42-3.34-2.36-3.34a16.17,16.17,0,0,0-4.26.68,0.68,0.68,0,0,1-.84-0.61l-0.3-1.41a0.68,0.68,0,0,1,.49-0.87,15.69,15.69,0,0,1,5.24-.87c4.86,0,5.32,3,5.32,6.76v8.09a0.75,0.75,0,0,1-.72.72h-1.06a0.64,0.64,0,0,1-.65-0.53l-0.38-1a6.56,6.56,0,0,1-4.67,1.94,4.72,4.72,0,0,1-4.9-5.09C132.77,354.6,135,352.47,138.85,352.47Zm-0.46,7.29a4.49,4.49,0,0,0,3.42-1.9v-2.43a5.73,5.73,0,0,0-2.66-.61c-1.82,0-3.08,1-3.08,2.51A2.29,2.29,0,0,0,138.4,359.77Z"/><path d="M149.53,338.49a2.18,2.18,0,0,1,2.17-2.24,2.22,2.22,0,1,1,0,4.45A2.17,2.17,0,0,1,149.53,338.49Zm0.42,9.12a0.75,0.75,0,0,1,.72-0.72h2.17a0.75,0.75,0,0,1,.72.72v13.75a0.75,0.75,0,0,1-.72.72h-2.17a0.75,0.75,0,0,1-.72-0.72V347.61Z"/><path d="M158.5,347.61a0.75,0.75,0,0,1,.72-0.72h1.1a0.62,0.62,0,0,1,.61.46l0.46,1.29a7.77,7.77,0,0,1,5.32-2.13c4.64,0,6.35,3.27,6.35,7.22v7.64a0.75,0.75,0,0,1-.72.72h-2.17a0.72,0.72,0,0,1-.72-0.72v-7.79c0-2.43-1.18-3.76-3.15-3.76a5,5,0,0,0-4.22,2.28v9.27c0,0.49-.23.72-0.87,0.72h-2a0.75,0.75,0,0,1-.72-0.72V347.61Z"/><path d="M178.68,350h-1.6a0.72,0.72,0,0,1-.72-0.72v-1.71a0.7,0.7,0,0,1,.72-0.72h1.6v-4.22a0.75,0.75,0,0,1,.72-0.72l2.17,0a0.71,0.71,0,0,1,.68.72v4.26h3.88a0.7,0.7,0,0,1,.72.72v1.71a0.72,0.72,0,0,1-.72.72h-3.88v7.52c0,1.29.49,1.52,1.22,1.52a6.18,6.18,0,0,0,2.32-.68,0.57,0.57,0,0,1,.87.34l0.68,1.67a0.63,0.63,0,0,1-.34.91,11.66,11.66,0,0,1-4.45,1.14c-3,0-3.88-1.82-3.88-4.52V350Z"/><path d="M190.84,336.21a0.75,0.75,0,0,1,.72-0.72h2.2a0.75,0.75,0,0,1,.72.72v11.13a9.16,9.16,0,0,1,3.65-.84,7.67,7.67,0,0,1,7.48,8c0,4.37-3.08,8-7.1,8a6.79,6.79,0,0,1-4.83-2.13l-0.3,1.1a0.76,0.76,0,0,1-.68.65h-1.14a0.75,0.75,0,0,1-.72-0.72V336.21Zm7.22,23c2.43,0,4-2.17,4-4.71a4.41,4.41,0,0,0-4.33-4.67,6.49,6.49,0,0,0-3.31.87v6.23A4.09,4.09,0,0,0,198.06,359.2Z"/><path d="M209.46,347.61a0.75,0.75,0,0,1,.72-0.72h1.1a0.72,0.72,0,0,1,.65.53l0.42,1.29a5.41,5.41,0,0,1,4.45-2.2c1.44,0,3.19.38,2.77,1.41l-0.91,1.86a0.65,0.65,0,0,1-.91.34,3.47,3.47,0,0,0-1.29-.27,4,4,0,0,0-3.42,1.86v9.65c0,0.65-.42.72-1,0.72h-1.82a0.75,0.75,0,0,1-.72-0.72V347.61Z"/><path d="M222,347.61a0.75,0.75,0,0,1,.72-0.72h2.17a0.75,0.75,0,0,1,.72.72v7.79c0,2.47,1.18,3.8,3.12,3.8a4,4,0,0,0,3.76-2.51v-9.08c0-.61.3-0.72,0.84-0.72h2a0.75,0.75,0,0,1,.72.72v13.75a0.75,0.75,0,0,1-.72.72h-1.06a0.73,0.73,0,0,1-.68-0.61l-0.38-1.1a6.88,6.88,0,0,1-5,2.09c-4.56,0-6.16-3.23-6.16-7.18v-7.67Z"/><path d="M240,360.11l0.8-1.48a0.66,0.66,0,0,1,1-.19,7.87,7.87,0,0,0,3.53,1c1.14,0,1.86-.46,1.86-1.29,0-1-.84-1.52-2.93-2.47-2.36-1-4.33-2.47-4.33-5,0-1.9,1.56-4.18,5.21-4.18a8.52,8.52,0,0,1,4.48,1.18,0.85,0.85,0,0,1,.3,1.1l-0.68,1.29a0.8,0.8,0,0,1-1,.3,8.69,8.69,0,0,0-3.12-.8c-1.29,0-1.71.57-1.71,1.14,0,1,.95,1.41,2.43,2.05,2.77,1.22,5.05,2.39,5.05,5.24,0,2.36-2.24,4.45-5.62,4.45a8,8,0,0,1-5-1.56A0.64,0.64,0,0,1,240,360.11Z"/><path d="M254.56,336.21a0.75,0.75,0,0,1,.72-0.72h2.2a0.75,0.75,0,0,1,.72.72v11.93a7.83,7.83,0,0,1,4.56-1.63c4.29,0,6.35,3.08,6.35,7.22v7.64a0.75,0.75,0,0,1-.72.72h-2.13a0.72,0.72,0,0,1-.72-0.72v-7.71c0-2.47-1.25-3.84-3.23-3.84a4.69,4.69,0,0,0-4.1,2.39v9.16a0.69,0.69,0,0,1-.76.72h-2.17a0.75,0.75,0,0,1-.72-0.72V336.21Z"/><path d="M283.21,350h-1.6a0.72,0.72,0,0,1-.72-0.72v-1.71a0.7,0.7,0,0,1,.72-0.72h1.6v-4.22a0.75,0.75,0,0,1,.72-0.72l2.17,0a0.71,0.71,0,0,1,.68.72v4.26h3.88a0.7,0.7,0,0,1,.72.72v1.71a0.72,0.72,0,0,1-.72.72h-3.88v7.52c0,1.29.49,1.52,1.22,1.52a6.18,6.18,0,0,0,2.32-.68,0.57,0.57,0,0,1,.87.34l0.68,1.67a0.63,0.63,0,0,1-.34.91,11.66,11.66,0,0,1-4.45,1.14c-3,0-3.88-1.82-3.88-4.52V350Z"/><path d="M301.91,346.51a8,8,0,1,1-7.68,7.94A7.86,7.86,0,0,1,301.91,346.51Zm0,12.69a4.52,4.52,0,0,0,4.29-4.75,4.31,4.31,0,1,0-8.59,0A4.52,4.52,0,0,0,301.91,359.2Z"/><path d="M322.73,350h-1.6a0.72,0.72,0,0,1-.72-0.72v-1.71a0.7,0.7,0,0,1,.72-0.72h1.6v-4.22a0.75,0.75,0,0,1,.72-0.72l2.17,0a0.71,0.71,0,0,1,.68.72v4.26h3.88a0.7,0.7,0,0,1,.72.72v1.71a0.72,0.72,0,0,1-.72.72H326.3v7.52c0,1.29.49,1.52,1.22,1.52a6.18,6.18,0,0,0,2.32-.68,0.57,0.57,0,0,1,.87.34l0.68,1.67a0.63,0.63,0,0,1-.34.91,11.66,11.66,0,0,1-4.45,1.14c-3,0-3.88-1.82-3.88-4.52V350Z"/><path d="M334.89,336.21a0.75,0.75,0,0,1,.72-0.72h2.2a0.75,0.75,0,0,1,.72.72v11.93a7.83,7.83,0,0,1,4.56-1.63c4.29,0,6.35,3.08,6.35,7.22v7.64a0.75,0.75,0,0,1-.72.72H346.6a0.72,0.72,0,0,1-.72-0.72v-7.71c0-2.47-1.25-3.84-3.23-3.84a4.69,4.69,0,0,0-4.1,2.39v9.16a0.69,0.69,0,0,1-.76.72h-2.17a0.75,0.75,0,0,1-.72-0.72V336.21Z"/><path d="M360.69,346.51a6.84,6.84,0,0,1,7,7,9.44,9.44,0,0,1-.08,1,0.7,0.7,0,0,1-.68.65H356.59a4.4,4.4,0,0,0,4.37,4.07,6.49,6.49,0,0,0,3.38-1.1c0.46-.27.72-0.42,1,0l1.06,1.44a0.59,0.59,0,0,1-.08,1,8.73,8.73,0,0,1-5.62,1.9c-4.6,0-7.64-3.61-7.64-8S356.13,346.51,360.69,346.51Zm3.46,6.31a3.6,3.6,0,0,0-3.5-3.38,3.85,3.85,0,0,0-3.88,3.38h7.37Z"/><path d="M379.69,336.21a0.75,0.75,0,0,1,.72-0.72h2.2a0.75,0.75,0,0,1,.72.72v11.13a9.16,9.16,0,0,1,3.65-.84,7.67,7.67,0,0,1,7.48,8c0,4.37-3.08,8-7.1,8a6.79,6.79,0,0,1-4.83-2.13l-0.3,1.1a0.76,0.76,0,0,1-.68.65h-1.14a0.75,0.75,0,0,1-.72-0.72V336.21Zm7.22,23c2.43,0,4-2.17,4-4.71a4.41,4.41,0,0,0-4.33-4.67,6.49,6.49,0,0,0-3.31.87v6.23A4.09,4.09,0,0,0,386.91,359.2Z"/><path d="M398.09,347.61a0.75,0.75,0,0,1,.72-0.72H401a0.75,0.75,0,0,1,.72.72v7.79c0,2.47,1.18,3.8,3.12,3.8a4,4,0,0,0,3.76-2.51v-9.08c0-.61.3-0.72,0.84-0.72h2a0.75,0.75,0,0,1,.72.72v13.75a0.75,0.75,0,0,1-.72.72h-1.06a0.73,0.73,0,0,1-.68-0.61l-0.38-1.1a6.88,6.88,0,0,1-5,2.09c-4.56,0-6.16-3.23-6.16-7.18v-7.67Z"/><path d="M423.89,346.51a6.73,6.73,0,0,1,5.51,2.7,0.74,0.74,0,0,1-.15,1.06L428,351.41c-0.46.42-.72,0.11-1-0.15a4.22,4.22,0,0,0-3-1.44,4.69,4.69,0,1,0,3.5,7.64,0.69,0.69,0,0,1,1-.08l1,0.84a0.74,0.74,0,0,1,.27,1.06,6.74,6.74,0,0,1-5.89,3.19,7.91,7.91,0,0,1-7.94-7.94A8.09,8.09,0,0,1,423.89,346.51Z"/><path d="M433.54,336.21a0.75,0.75,0,0,1,.72-0.72h2.2a0.75,0.75,0,0,1,.72.72v16.45l5.93-5.32a1.5,1.5,0,0,1,.95-0.46h2.66a0.59,0.59,0,0,1,.42,1l-6.31,5.74,7.45,7.45a0.56,0.56,0,0,1-.42,1h-3.12a1,1,0,0,1-.68-0.3l-6.88-7.07v6.65a0.75,0.75,0,0,1-.72.72h-2.2a0.75,0.75,0,0,1-.72-0.72V336.21Z"/><path d="M457.52,346.51a6.84,6.84,0,0,1,7,7,9.44,9.44,0,0,1-.08,1,0.7,0.7,0,0,1-.68.65H453.41a4.4,4.4,0,0,0,4.37,4.07,6.49,6.49,0,0,0,3.38-1.1c0.46-.27.72-0.42,1,0l1.06,1.44a0.59,0.59,0,0,1-.08,1,8.73,8.73,0,0,1-5.62,1.9c-4.6,0-7.64-3.61-7.64-8S453,346.51,457.52,346.51Zm3.46,6.31a3.6,3.6,0,0,0-3.5-3.38,3.85,3.85,0,0,0-3.88,3.38H461Z"/><path d="M469.15,350h-1.6a0.72,0.72,0,0,1-.72-0.72v-1.71a0.7,0.7,0,0,1,.72-0.72h1.6v-4.22a0.75,0.75,0,0,1,.72-0.72l2.17,0a0.71,0.71,0,0,1,.68.72v4.26h3.88a0.7,0.7,0,0,1,.72.72v1.71a0.72,0.72,0,0,1-.72.72h-3.88v7.52c0,1.29.49,1.52,1.22,1.52a6.18,6.18,0,0,0,2.32-.68,0.57,0.57,0,0,1,.87.34l0.68,1.67a0.63,0.63,0,0,1-.34.91,11.66,11.66,0,0,1-4.45,1.14c-3,0-3.88-1.82-3.88-4.52V350Z"/><path d="M484.38,357.18a2.64,2.64,0,1,1-2.62,2.66A2.64,2.64,0,0,1,484.38,357.18Zm-1.1-6-1.1-10.6v-4.33a0.75,0.75,0,0,1,.72-0.72h3a0.75,0.75,0,0,1,.72.72v4.25l-1.1,10.68a0.77,0.77,0,0,1-.72.61H484A0.77,0.77,0,0,1,483.28,351.14Z"/><path class="cls-1" d="M179.57,194.24c11.07,0,11.07,11.52,22.15,11.52s11.07-11.52,22.15-11.52,11.07,11.52,22.15,11.52,11.07-11.52,22.15-11.52,11.07,11.52,22.15,11.52,11.08-11.52,22.15-11.52,11.08,11.52,22.15,11.52,11.08-11.52,22.15-11.52,11.08,11.52,22.15,11.52,11.08-11.52,22.16-11.52,11.08,11.52,22.16,11.52"/></svg>